<svg version="1.1" id="Layer_1" xmlns="http://www.w3.org/2000/svg" xmlns:xlink="http://www.w3.org/1999/xlink" x="0px" y="0px"
	 width="100%" viewBox="0 0 480 432" enable-background="new 0 0 480 432" xml:space="preserve">
<path fill="#000000" opacity="1.000000" stroke="none" 
	d="
M374.149780,239.458862 
	C383.886993,217.178894 412.462891,213.184601 427.864716,230.138153 
	C439.317139,242.744446 439.213776,261.361389 427.591248,274.181610 
	C416.902466,285.971893 397.868256,287.857025 384.869385,278.042297 
	C381.928101,275.821533 380.047699,275.677216 377.065765,277.695679 
	C367.689850,284.042328 358.163818,290.173218 348.578827,296.201477 
	C345.460083,298.162964 344.795959,300.070557 346.349152,303.565582 
	C366.361267,348.595734 340.681000,399.662018 292.556854,410.748016 
	C257.274536,418.875763 219.903778,399.849182 205.400436,366.373993 
	C202.437088,359.534271 202.451920,359.591095 195.083328,361.514160 
	C189.773361,362.899963 184.447342,364.258118 179.070862,365.343048 
	C175.642044,366.034973 174.336914,367.661804 173.765640,371.250092 
	C170.113464,394.189941 146.651871,406.369873 126.604950,395.964996 
	C114.389153,389.624664 108.213249,377.219360 109.705116,362.018860 
	C110.847694,350.377136 120.705246,339.485016 133.466553,335.763489 
	C145.226608,332.333984 159.331421,336.618103 166.793793,347.272491 
	C170.492203,352.552917 173.877289,352.910339 179.233292,351.146606 
	C184.746048,349.331299 190.505325,348.229950 196.198914,347.013672 
	C198.879669,346.441010 199.563568,345.268097 199.276947,342.498718 
	C197.111679,321.577301 203.076279,302.971283 216.117218,286.670013 
	C218.563751,283.611847 218.441071,281.895721 215.869888,279.210480 
	C209.649216,272.713867 203.653168,265.997406 197.702637,259.249573 
	C195.613541,256.880554 194.023804,256.317810 191.062088,258.298279 
	C169.513718,272.707581 146.290222,275.235657 121.940468,266.931549 
	C117.654663,265.469940 115.463539,266.140930 113.852478,270.081909 
	C113.414528,271.153259 112.822182,272.188660 112.148926,273.132294 
	C107.163437,280.119629 105.286934,285.865051 111.880562,294.275452 
	C120.558342,305.344299 117.165268,322.242371 106.882935,332.638428 
	C96.981567,342.649292 81.127464,344.896423 68.584755,338.066772 
	C55.882835,331.150360 49.265057,316.830231 52.379925,303.001251 
	C56.050083,286.706970 69.101242,276.433868 85.717979,277.715210 
	C91.843872,278.187561 95.458328,276.635620 97.627121,270.940948 
	C98.683411,268.167389 100.260574,265.527679 101.967018,263.082123 
	C104.239265,259.825592 103.803085,257.734100 100.581223,255.209610 
	C59.131287,222.731644 61.202530,160.717072 104.727585,130.649185 
	C107.707451,128.590652 108.138618,126.704460 106.637939,123.607559 
	C102.353592,114.766068 98.126976,105.891296 94.146461,96.910477 
	C92.530960,93.265594 90.638847,91.900467 86.309532,92.169533 
	C71.493683,93.090324 58.990116,85.001228 53.875160,71.964478 
	C48.888939,59.255844 52.255238,44.930492 62.356201,35.873158 
	C75.084488,24.459951 94.739578,24.923176 106.783669,36.920216 
	C119.103035,49.191444 119.867615,68.934822 107.936432,81.552170 
	C104.577209,85.104584 104.757774,87.638046 106.693756,91.460022 
	C111.132408,100.222679 115.345314,109.106987 119.375374,118.065392 
	C120.793686,121.218155 122.410530,121.590637 125.531891,120.606903 
	C158.478592,110.223389 195.476654,124.056396 213.253311,153.449509 
	C215.276611,156.794937 217.015472,157.661514 220.785400,156.026398 
	C240.645462,147.412582 260.603790,139.023605 280.578064,130.676498 
	C283.938660,129.272141 285.314453,127.956764 284.290070,123.732887 
	C281.652466,112.856903 280.397644,101.762596 283.557678,90.679611 
	C284.763275,86.451462 283.691101,83.595657 279.049683,82.681839 
	C278.405945,82.555084 277.776367,82.270088 277.186829,81.967537 
	C270.142090,78.352310 264.703400,77.825066 257.962341,84.672493 
	C247.670181,95.126991 231.160110,94.972519 219.270035,86.691322 
	C207.184341,78.273888 202.245117,63.024097 207.080399,49.055988 
	C211.776199,35.490788 224.848999,26.960876 239.799744,27.706799 
	C253.929321,28.411749 265.870667,38.582619 269.231506,52.788521 
	C269.461334,53.759930 269.882996,54.791122 269.748108,55.727158 
	C268.573822,63.875866 273.598267,66.339455 280.225067,68.353821 
	C288.877563,70.983940 288.628448,71.290642 293.681488,63.848949 
	C310.885895,38.511673 334.687988,25.943310 365.456512,27.779163 
	C400.730286,29.883829 430.187775,58.154789 435.515564,93.630379 
	C441.355103,132.513214 416.918091,168.183853 381.093079,178.941040 
	C369.648529,182.377502 357.862427,183.472610 346.078735,180.652405 
	C341.167633,179.477020 338.883972,181.027725 337.234558,185.706543 
	C328.379181,210.826141 319.310760,235.871323 310.163391,260.886414 
	C309.009766,264.041199 309.554413,265.865753 312.482483,267.333099 
	C320.787506,271.494995 327.841888,277.291565 333.878479,284.303894 
	C335.907623,286.661011 337.706177,286.818420 340.292297,285.111603 
	C350.302917,278.504730 360.427521,272.070770 370.499817,265.557159 
	C372.193420,264.461945 373.870392,263.464447 372.964966,260.821716 
	C370.530212,253.715454 371.412354,246.710297 374.149780,239.458862 
M296.100037,149.339432 
	C295.544189,148.508423 294.814850,147.744888 294.461151,146.835266 
	C292.477936,141.735291 289.542358,141.699783 284.797607,143.788071 
	C265.445953,152.305267 245.914093,160.416351 226.388382,168.532120 
	C222.754471,170.042542 221.943573,171.914963 222.886185,175.821823 
	C228.908569,200.783600 223.607285,223.338272 207.530991,243.283325 
	C205.350555,245.988495 205.512741,247.634628 207.759796,250.008484 
	C213.828613,256.419800 219.858231,262.882935 225.582642,269.598907 
	C228.207367,272.678284 229.995819,273.265778 233.699753,270.815948 
	C250.660614,259.597992 269.288940,255.390762 289.395142,259.384491 
	C294.144226,260.327789 296.350311,258.886017 297.916809,254.459900 
	C306.748749,229.505478 315.724945,204.601318 324.827789,179.744431 
	C326.127808,176.194580 325.431396,174.275543 322.175690,172.517395 
	C311.907135,166.972198 303.305969,159.459717 296.100037,149.339432 
M85.385078,183.919159 
	C82.241188,202.719879 87.307762,219.222870 99.374802,235.083328 
	C104.723785,223.274765 112.712753,215.362854 123.381836,210.346008 
	C112.205894,189.084137 113.285126,175.185547 126.730698,163.504105 
	C137.853851,153.840363 154.603348,152.906433 166.527435,161.378082 
	C172.859451,165.876785 177.061752,171.940704 179.161240,179.432343 
	C182.327896,190.731964 179.050140,200.713516 172.136215,210.174255 
	C183.236481,215.601410 191.106201,223.625656 196.023392,234.242325 
	C198.544952,233.135544 199.427582,231.479324 200.408676,229.961517 
	C209.509064,215.882889 213.422333,200.736908 210.684631,183.910324 
	C204.003265,142.845001 157.943817,118.900238 120.667282,137.254639 
	C101.386703,146.748123 90.087418,162.329590 85.385078,183.919159 
M306.690857,354.741150 
	C314.781311,359.539001 319.859467,367.079926 324.429047,375.165161 
	C345.855225,351.610474 344.833740,311.062134 317.638153,287.444183 
	C290.118042,263.544342 247.937073,267.853668 225.757965,296.455048 
	C205.285706,322.855347 211.438477,360.182312 227.935471,374.877136 
	C232.562592,363.729370 241.196976,356.433960 251.363144,350.887329 
	C240.610962,330.731445 241.655228,315.465820 254.191696,304.690735 
	C266.219360,294.352966 282.740845,293.550079 295.163208,302.712982 
	C301.444794,307.346313 305.345062,313.544556 307.322449,321.059021 
	C310.220245,332.071259 306.733521,341.650055 300.250000,350.753937 
	C302.463043,352.131989 304.265930,353.254639 306.690857,354.741150 
M327.456299,49.969677 
	C286.181091,74.687668 290.939667,125.764839 310.981445,144.158676 
	C316.214142,133.676392 324.097504,125.825371 334.502106,120.785568 
	C324.122681,98.860733 325.160187,84.639732 337.617859,74.146889 
	C349.602051,64.052849 365.867859,63.226414 378.253601,72.086380 
	C384.011475,76.205200 388.006714,81.691605 389.995453,88.422920 
	C393.420837,100.016945 391.104614,110.704994 383.307739,120.637894 
	C394.548767,125.796890 402.119354,133.921463 407.300293,144.062195 
	C409.695648,143.477402 410.511749,141.924576 411.402496,140.578979 
	C424.349182,121.021233 426.681641,100.115623 416.977020,78.876312 
	C401.173523,44.289070 362.264862,31.822428 327.456299,49.969677 
M131.778214,255.737106 
	C149.420288,259.830994 166.083191,257.858032 181.604233,248.011154 
	C184.452744,246.203995 184.916672,244.357834 183.716827,241.406738 
	C179.394806,230.776520 171.885391,223.777496 160.584335,221.427933 
	C152.551666,219.757904 144.387268,219.779907 136.275482,221.198929 
	C124.609970,223.239609 116.956360,230.151230 112.323250,240.839279 
	C110.890121,244.145340 111.342018,246.349976 114.606873,248.300491 
	C119.790855,251.397522 125.205421,253.850143 131.778214,255.737106 
M283.143280,361.333374 
	C278.321075,361.333527 273.495789,361.222748 268.677216,361.355347 
	C255.948105,361.705627 244.239532,370.398071 240.189941,382.095825 
	C239.075912,385.313812 239.533127,387.293549 242.618698,389.058929 
	C264.878448,401.794952 286.997559,402.178345 309.241547,388.946045 
	C312.402008,387.065948 312.891541,385.177551 311.616821,382.088196 
	C306.512634,369.717773 297.242035,362.945038 283.143280,361.333374 
M364.263519,167.816238 
	C374.657928,167.302429 384.098785,163.945267 392.862701,158.416031 
	C395.401611,156.814163 396.070526,154.991486 395.062805,152.142273 
	C392.382111,144.563080 387.437256,139.017929 380.566986,134.985199 
	C371.306091,129.549225 361.152496,131.207703 351.267334,131.358505 
	C338.672913,131.550659 327.881012,139.856430 323.521484,151.560196 
	C322.214539,155.068939 322.990845,156.939392 326.097565,158.820374 
	C337.583557,165.774597 349.949280,168.807785 364.263519,167.816238 
M385.395874,254.096237 
	C385.916382,255.839813 386.277588,257.650970 386.984039,259.315674 
	C390.767517,268.231873 400.647827,272.729614 409.609283,269.698792 
	C419.174316,266.463837 424.317719,257.318817 421.993561,247.679474 
	C419.837219,238.736145 411.299133,232.523529 402.433136,233.446564 
	C392.260468,234.505646 385.622437,242.217682 385.395874,254.096237 
M101.005043,52.616852 
	C97.645042,45.062431 91.489082,41.470779 83.564117,41.506565 
	C76.165726,41.539963 70.441200,45.252605 67.300018,52.070770 
	C64.101639,59.013084 64.981018,65.715248 69.719948,71.767700 
	C75.076424,78.608879 84.816734,80.526756 92.718620,76.394524 
	C100.889442,72.121651 104.286072,63.017876 101.005043,52.616852 
M157.924515,172.458069 
	C150.602524,168.089935 143.324707,168.101959 136.584152,173.402924 
	C130.470901,178.210541 127.947487,184.695129 129.880920,192.412811 
	C131.925400,200.573746 138.963516,206.228378 147.089264,206.611099 
	C155.229004,206.994461 162.344315,201.932449 165.639862,193.413742 
	C168.336166,186.444107 165.669250,178.738235 157.924515,172.458069 
M150.684021,383.314850 
	C160.319748,376.768005 163.040359,366.286926 157.420731,357.361755 
	C152.113174,348.932190 141.107529,346.161163 132.442993,351.072784 
	C124.018143,355.848541 120.644005,366.800354 124.960579,375.359344 
	C129.727493,384.811249 139.794403,388.154694 150.684021,383.314850 
M254.056641,68.443367 
	C254.515366,67.373199 255.092041,66.337273 255.414169,65.227448 
	C258.064301,56.096870 253.615997,46.724689 244.913589,43.008003 
	C236.044937,39.220322 225.930634,42.713760 221.279160,51.171246 
	C216.718750,59.463139 219.109177,69.551590 226.959808,75.145630 
	C235.930801,81.538002 246.488327,79.154388 254.056641,68.443367 
M65.482292,307.897614 
	C65.081772,310.272247 65.660400,312.542847 66.294853,314.785278 
	C69.180824,324.985443 79.919601,330.611328 89.932472,327.200470 
	C99.844093,323.824036 105.107750,312.612671 101.321091,302.943085 
	C98.236412,295.066040 90.772469,290.589233 81.846199,291.262207 
	C73.756493,291.872131 67.812584,297.689087 65.482292,307.897614 
M285.467041,312.872772 
	C284.249664,312.345886 283.060913,311.735626 281.810211,311.305603 
	C273.713135,308.521637 264.486145,311.839233 260.115906,319.067383 
	C255.591278,326.550903 256.700684,335.859558 262.851227,342.019165 
	C268.650177,347.826660 278.848541,348.857452 285.870483,344.345947 
	C297.342712,336.975128 297.442169,322.497772 285.467041,312.872772 
M348.911987,113.721748 
	C357.643280,118.418236 366.389923,117.600677 372.286987,111.536865 
	C378.162323,105.495399 379.468719,95.923492 375.174316,89.027367 
	C370.881165,82.133194 364.503387,79.230125 356.516052,80.244263 
	C348.831146,81.219994 343.813995,85.670197 341.591980,93.042076 
	C339.105072,101.292770 341.702454,107.994453 348.911987,113.721748 
z"/>
</svg>