<svg version="1.1" id="Layer_1" xmlns="http://www.w3.org/2000/svg" xmlns:xlink="http://www.w3.org/1999/xlink" x="0px" y="0px"
	 width="100%" viewBox="0 0 432 320" enable-background="new 0 0 432 320" xml:space="preserve">
<path fill="#000000" opacity="1.000000" stroke="none" 
	d="
M76.090668,172.818512 
	C96.397491,167.171677 115.436150,169.742874 133.572128,179.237274 
	C136.935638,180.998093 138.886520,180.299194 141.388809,177.976471 
	C162.580887,158.305130 187.924210,149.056412 216.587967,149.892075 
	C241.155304,150.608292 263.113556,159.239746 281.830383,175.374207 
	C284.737946,177.880615 286.662354,177.960373 289.960724,176.061966 
	C331.064270,152.404663 382.663513,169.756470 400.122620,213.014069 
	C403.900177,222.373627 405.696014,232.131516 405.381592,242.277466 
	C405.201050,248.103714 405.361633,253.940170 405.345703,259.771973 
	C405.314331,271.269043 398.669525,278.095398 387.065277,278.152679 
	C366.071198,278.256317 345.075195,278.279968 324.082397,278.081329 
	C319.729248,278.040131 317.856537,279.316467 317.397308,283.788452 
	C316.212219,295.328949 308.673370,302.261932 296.953430,303.013702 
	C293.965790,303.205322 290.957123,303.083038 287.958130,303.083221 
	C236.971191,303.086304 185.984253,303.087128 134.997314,303.085754 
	C118.458427,303.085327 114.156090,300.150909 108.504517,284.736420 
	C107.435921,281.821869 105.141731,282.454742 103.108643,282.450409 
	C81.947502,282.405151 60.786213,282.430359 39.624985,282.416840 
	C26.623884,282.408539 20.552330,276.489899 20.696848,263.590302 
	C20.836332,251.139847 19.381590,238.546021 22.967480,226.335129 
	C30.960199,199.117813 48.825081,181.548218 76.090668,172.818512 
M216.336899,163.343460 
	C199.689224,162.985031 183.790527,166.165787 169.296387,174.498260 
	C140.367264,191.129211 123.755211,215.753998 122.126244,249.561432 
	C121.677605,258.872406 122.177803,268.225281 121.942993,277.551422 
	C121.694725,287.411987 123.620956,289.601501 133.650528,289.604553 
	C186.814285,289.620667 239.978058,289.619781 293.141815,289.595825 
	C294.957062,289.595001 296.841217,289.539490 298.572296,289.066620 
	C301.728455,288.204437 303.873474,286.163422 303.911407,282.668945 
	C304.065155,268.507874 305.229126,254.229721 303.356720,240.213181 
	C297.773193,198.415375 259.810455,164.883789 216.336899,163.343460 
M369.281891,193.206665 
	C343.589752,171.595657 307.126495,178.210281 295.492035,189.608063 
	C300.482483,195.970825 304.747925,202.875290 308.282776,210.233139 
	C315.730072,225.734833 318.051666,242.248383 317.917877,259.208588 
	C317.886139,263.232727 319.082886,264.772400 323.321136,264.736267 
	C343.962006,264.560272 364.605194,264.677765 385.247498,264.647949 
	C391.014374,264.639618 391.775299,263.831116 391.826477,257.904053 
	C391.873932,252.410980 391.780182,246.916687 391.831390,241.423691 
	C392.012115,222.032639 384.302368,206.292465 369.281891,193.206665 
M108.419373,251.024628 
	C108.537888,230.937744 114.700523,212.735840 125.782036,196.143417 
	C128.099304,192.673767 127.207787,191.125122 123.698128,189.420380 
	C94.392807,175.185745 57.509186,187.276764 41.593014,215.957672 
	C32.816032,231.773773 34.103069,248.727966 34.329243,265.671875 
	C34.363899,268.268433 36.399673,268.843109 38.578594,268.844482 
	C60.407486,268.858124 82.236404,268.846191 104.065269,268.875519 
	C106.791786,268.879181 107.978966,267.632019 107.997971,264.936279 
	C108.028488,260.607208 108.187698,256.279114 108.419373,251.024628 
z"/>
<path fill="#000000" opacity="1.000000" stroke="none" 
	d="
M263.742310,63.441925 
	C279.574677,99.719452 255.425095,142.537979 211.823532,143.714340 
	C177.988510,144.627213 155.870651,118.021576 153.427795,91.931206 
	C150.364014,59.209625 174.928345,30.150711 209.768127,29.145262 
	C232.270477,28.495863 253.690872,41.034203 263.742310,63.441925 
M254.987320,84.620163 
	C253.915131,60.258564 233.614944,41.602161 209.286453,42.683048 
	C181.525009,43.916466 163.247055,66.674583 167.471313,94.181313 
	C170.573944,114.384247 188.848404,131.205704 211.954132,130.235718 
	C240.318283,129.044983 255.702606,106.447937 254.987320,84.620163 
z"/>
<path fill="#000000" opacity="1.000000" stroke="none" 
	d="
M368.144501,134.979874 
	C357.850922,150.900146 343.498108,158.826859 324.957550,157.103287 
	C306.914581,155.425964 294.096924,145.649475 287.059296,128.774780 
	C276.410339,103.240921 292.440857,74.459686 320.908508,68.831993 
	C338.445557,65.365143 353.309113,71.392693 364.349854,85.139687 
	C375.331696,98.813240 377.221375,114.307007 370.319000,130.633713 
	C369.737274,132.009689 368.988983,133.315201 368.144501,134.979874 
M357.555695,125.985786 
	C357.814850,125.372726 358.082764,124.763206 358.331879,124.146088 
	C363.727722,110.780151 359.241119,95.701500 347.417725,87.458855 
	C334.865875,78.708366 319.050385,79.634209 307.868774,89.774063 
	C297.009003,99.622131 294.314575,114.894104 301.420288,127.480423 
	C307.181854,137.685852 316.020660,143.271271 327.779633,143.642487 
	C341.006744,144.060059 350.722626,138.057877 357.555695,125.985786 
z"/>
<path fill="#000000" opacity="1.000000" stroke="none" 
	d="
M118.051971,155.259216 
	C86.110352,170.031052 51.485031,148.997711 51.759354,115.355560 
	C51.948242,92.191208 70.535629,72.424980 94.293625,71.052963 
	C114.690231,69.875053 136.722900,82.683662 141.264130,108.070847 
	C144.687729,127.210114 136.138885,144.603699 118.051971,155.259216 
M66.432831,123.928833 
	C66.908859,125.170502 67.351074,126.426384 67.866035,127.651695 
	C74.345200,143.068405 91.778534,150.660294 107.683311,145.033432 
	C123.410011,139.469543 132.229019,121.480873 126.964935,106.320328 
	C121.606606,90.888367 104.909996,81.288139 89.249557,85.533325 
	C72.299011,90.128235 62.304893,106.487617 66.432831,123.928833 
z"/>
</svg>