<svg version="1.1" id="Layer_1" xmlns="http://www.w3.org/2000/svg" xmlns:xlink="http://www.w3.org/1999/xlink" x="0px" y="0px"
	 width="100%" viewBox="0 0 512 448" enable-background="new 0 0 512 448" xml:space="preserve">
<path fill="#000000" opacity="1.000000" stroke="none" 
	d="
M441.474182,376.527344 
	C443.606049,378.665253 445.603485,380.454651 447.331421,382.474609 
	C451.492035,387.338226 451.345490,394.775940 447.136536,399.405029 
	C443.177368,403.759399 435.709656,404.757690 430.648468,401.376709 
	C428.592560,400.003296 426.793884,398.205414 425.017487,396.458893 
	C394.363251,366.320770 363.686432,336.205261 333.163727,305.934326 
	C330.185364,302.980530 328.277985,302.737274 324.873657,305.259003 
	C293.275055,328.665833 257.614746,339.107971 218.483551,337.198090 
	C149.972641,333.854309 90.729210,286.809662 72.434853,223.398834 
	C56.805721,169.226074 67.011177,119.646385 102.801102,76.275024 
	C129.049347,44.466557 163.518173,24.802721 204.531296,20.208761 
	C275.202606,12.292727 330.696564,38.569729 368.443756,99.409485 
	C382.550079,122.145599 388.972229,147.544220 389.416199,174.476059 
	C390.079529,214.711197 377.128601,249.924606 351.274445,280.509888 
	C348.574707,283.703644 348.990479,285.533905 351.796387,288.282837 
	C381.669098,317.549347 411.427429,346.932526 441.474182,376.527344 
M359.512573,144.933167 
	C349.110077,107.122330 326.892181,78.240410 292.114471,60.341324 
	C246.684814,36.960033 200.733612,37.729454 156.769119,63.990818 
	C114.006310,89.534370 92.501762,128.627350 91.545547,178.298019 
	C91.062012,203.415710 98.257408,226.895416 111.805054,248.292542 
	C141.035126,294.458466 193.692673,318.416077 248.421234,310.370331 
	C275.952667,306.322906 300.432434,294.784332 320.561340,275.415802 
	C357.754547,239.627533 370.992981,196.310059 359.512573,144.933167 
z"/>
</svg>