<svg version="1.1" id="Layer_1" xmlns="http://www.w3.org/2000/svg" xmlns:xlink="http://www.w3.org/1999/xlink" x="0px" y="0px"
	 width="100%" viewBox="0 0 544 416" enable-background="new 0 0 544 416" xml:space="preserve">
<path fill="#000000" opacity="1.000000" stroke="none" 
	d="
M277.940948,15.684439 
	C323.318451,17.546230 362.943481,33.031372 396.951416,62.301956 
	C427.373688,88.486320 447.579987,121.288857 457.529297,160.173630 
	C463.818298,184.752838 465.504181,209.716843 461.470734,234.901611 
	C449.947357,306.853210 410.283600,357.181915 343.834534,386.188812 
	C315.270905,398.657715 285.013062,402.286987 253.884323,399.550934 
	C208.444901,395.557037 169.690109,377.317352 136.800156,346.038696 
	C129.777359,339.359985 128.902359,330.933228 134.714279,324.870270 
	C140.464081,318.872131 149.026001,319.311005 155.933960,325.997223 
	C179.937210,349.230011 208.310318,364.569305 241.167236,370.144867 
	C292.906281,378.924652 339.344055,366.405701 379.318726,332.013794 
	C406.023163,309.038818 423.771820,280.175842 431.476990,245.844788 
	C443.382416,192.799133 432.120483,144.655823 397.619141,102.532143 
	C372.367371,71.701508 339.524384,52.557003 300.408142,45.835014 
	C248.877762,36.979713 202.725861,49.920921 162.708389,83.921730 
	C152.222031,92.831459 143.304260,103.121315 135.460510,114.378136 
	C134.340866,115.984955 132.899826,117.458366 132.659561,119.596733 
	C134.287918,121.392723 136.423340,120.708466 138.314514,120.717140 
	C152.312881,120.781364 166.313126,120.626991 180.309921,120.788292 
	C191.435150,120.916489 198.123886,129.964355 194.415802,139.521667 
	C192.256775,145.086411 188.068054,148.205795 182.205856,148.239120 
	C157.375793,148.380310 132.544067,148.377258 107.713867,148.249420 
	C101.056122,148.215149 96.079765,143.744598 94.670143,137.249252 
	C94.353783,135.791473 94.126152,134.280563 94.123520,132.793655 
	C94.082497,109.629425 94.030014,86.464890 94.123611,63.300999 
	C94.142746,58.564610 95.098114,53.929073 99.160553,50.752247 
	C103.546844,47.322170 108.336838,46.279144 113.659508,48.575890 
	C119.403748,51.054546 121.949478,55.693344 122.140137,61.592068 
	C122.381706,69.065735 122.198524,76.553123 122.198524,85.249023 
	C124.364830,82.977554 125.835175,81.509995 127.223831,79.968857 
	C157.038040,46.881100 193.755676,26.317148 237.686066,18.469582 
	C250.894638,16.110046 264.121521,15.546258 277.940948,15.684439 
z"/>
<path fill="#000000" opacity="1.000000" stroke="none" 
	d="
M209.749817,254.255096 
	C210.508392,249.722763 212.788742,246.594543 215.718048,243.695236 
	C228.268600,231.273239 240.654083,218.684158 253.238480,206.296967 
	C255.941254,203.636566 257.080627,200.854309 257.071075,197.050934 
	C256.975098,158.895584 257.018280,120.739830 257.069977,82.584259 
	C257.073792,79.765663 257.246490,76.915779 257.687897,74.135567 
	C258.756104,67.407265 264.166595,62.788555 270.795105,62.699429 
	C277.806152,62.605160 283.255554,67.098854 284.387756,74.111076 
	C284.810150,76.726974 285.014435,79.406799 285.015839,82.057640 
	C285.037415,122.212692 284.920502,162.368088 285.067841,202.522568 
	C285.096558,210.347122 282.736115,216.452957 276.967224,221.983475 
	C262.538605,235.815887 248.623230,250.182556 234.436783,264.269257 
	C228.587646,270.077271 221.798019,271.035004 215.914032,267.065430 
	C211.540192,264.114655 209.720337,259.835663 209.749817,254.255096 
z"/>
</svg>