<svg version="1.1" id="Layer_1" xmlns="http://www.w3.org/2000/svg" xmlns:xlink="http://www.w3.org/1999/xlink" x="0px" y="0px"
	 width="100%" viewBox="0 0 496 416" enable-background="new 0 0 496 416" xml:space="preserve">
<path fill="#000000" opacity="1.000000" stroke="none" 
	d="
M366.937195,372.067963 
	C339.714417,344.820160 312.728729,317.838623 285.824432,290.776123 
	C283.461731,288.399475 281.895416,288.260986 279.214050,290.507111 
	C247.443024,317.120850 210.562881,329.722748 169.479721,325.962067 
	C110.500008,320.563202 67.185181,290.481873 42.276466,236.596146 
	C21.843292,192.392502 23.253361,147.398880 45.584362,104.136040 
	C67.553909,61.573467 102.737648,34.827972 149.707687,24.836149 
	C214.437164,11.066404 279.297668,40.213905 312.890289,97.339439 
	C313.809662,98.902908 314.800385,100.424416 316.298462,102.835663 
	C338.580231,81.589882 360.515564,60.674442 382.719086,39.503265 
	C379.279633,37.941727 376.292053,38.520748 373.358276,38.548546 
	C363.529846,38.641655 353.701599,38.766010 343.872986,38.813683 
	C342.385559,38.820900 340.864990,38.619144 339.413971,38.281239 
	C334.879669,37.225300 332.317078,33.650414 332.719910,29.124945 
	C333.099823,24.857019 336.074005,21.760458 340.692017,21.734932 
	C362.356720,21.615187 384.022858,21.618000 405.687561,21.740856 
	C410.298157,21.767000 413.246490,24.735767 413.270416,29.338015 
	C413.382965,51.002827 413.391388,72.669029 413.257202,94.333626 
	C413.226868,99.232330 409.531555,102.396400 404.827148,102.319473 
	C400.034576,102.241119 396.744629,98.881233 396.678223,93.462051 
	C396.539398,82.130829 396.612091,70.796997 396.599274,59.464241 
	C396.596283,56.815998 396.598846,54.167744 396.598846,50.265530 
	C394.117310,52.395695 392.378052,53.749825 390.795959,55.267773 
	C369.393860,75.801949 348.051971,96.399170 326.577576,116.857338 
	C324.000244,119.312721 324.238342,121.600952 325.231598,124.475533 
	C331.330078,142.124649 333.962463,160.300064 333.339539,178.958313 
	C332.175842,213.815262 320.310852,244.646606 298.141693,271.456482 
	C295.342194,274.842010 295.420532,276.529175 298.453949,279.543365 
	C335.213043,316.069550 371.839447,352.729279 408.496918,389.357697 
	C409.321838,390.181915 410.153503,391.006958 410.901825,391.898895 
	C414.215668,395.848877 414.189606,400.849854 410.872223,404.052521 
	C407.572113,407.238525 402.461151,407.297607 398.723663,403.699249 
	C391.402740,396.650909 384.304108,389.371735 377.110779,382.190765 
	C373.809113,378.894775 370.501129,375.605133 366.937195,372.067963 
M272.425568,144.924484 
	C281.563141,136.166412 290.638947,127.342346 299.879303,118.694099 
	C302.358124,116.374138 302.719849,114.452660 301.087250,111.370140 
	C269.395660,51.532600 200.677734,24.235384 137.170547,45.916374 
	C74.242706,67.399574 37.012604,130.325287 47.386494,196.120926 
	C48.724327,204.606033 50.750999,212.969086 54.235699,220.898376 
	C56.768787,220.415573 57.973995,218.667007 59.412350,217.388290 
	C89.032654,191.054764 118.617928,164.681808 148.180359,138.283295 
	C155.362167,131.870102 158.885178,131.877609 165.585510,138.576492 
	C182.428772,155.416031 199.263611,172.264023 216.140335,189.069977 
	C217.737671,190.660629 219.047394,192.724243 221.788971,193.315643 
	C238.465530,177.379868 255.190872,161.397507 272.425568,144.924484 
M190.757370,187.742599 
	C180.739014,177.735458 170.571030,167.871460 160.786087,157.641068 
	C157.503525,154.209091 155.438858,154.692307 152.246521,157.560791 
	C123.510559,183.381607 94.726227,209.149902 65.760124,234.711548 
	C62.240646,237.817368 62.470253,240.000214 64.741722,243.440979 
	C96.872528,292.111938 141.543213,315.003174 199.924713,307.722900 
	C240.842484,302.620361 272.319183,281.268250 294.805603,247.011124 
	C312.325256,220.320663 319.061066,190.762009 315.593414,158.967850 
	C314.662109,150.428955 313.093689,142.021027 309.883270,133.272476 
	C308.011108,134.950211 306.643677,136.113785 305.344421,137.349075 
	C279.754456,161.679977 254.179077,186.026230 228.583527,210.351273 
	C222.833969,215.815445 218.809204,215.763916 213.162079,210.157516 
	C205.832458,202.880783 198.554703,195.551819 190.757370,187.742599 
z"/>
</svg>