<?xml version="1.0"?>
<svg width="402" height="446" xmlns="http://www.w3.org/2000/svg" xmlns:svg="http://www.w3.org/2000/svg" enable-background="new 0 0 402 446" version="1.1" xml:space="preserve">
 <g class="layer">
  <title>Layer 1</title>
  <path d="m307.94,399.09c-32.36,-27.54 -64.44,-54.85 -96.53,-82.17c-9.97,-8.48 -19.23,-8.56 -29.07,-0.21c-31.88,27.04 -63.76,54.09 -95.61,81.17c-5.73,4.87 -11.82,8.92 -19.75,7.94c-8.77,-1.09 -14.99,-8.82 -15.85,-19.19c-0.15,-1.83 -0.09,-3.67 -0.09,-5.5c0,-107.65 0.22,-215.31 -0.2,-322.96c-0.08,-20.43 15.9,-36.32 36.08,-36.26c73.16,0.22 146.32,0.07 219.47,0.11c20.45,0.01 34.56,14.14 34.56,34.58c0.02,108.65 0.02,217.3 -0.02,325.96c0,2.64 -0.19,5.34 -0.74,7.91c-3.21,14.84 -15.56,19.82 -28.36,11.52c-1.26,-0.81 -2.41,-1.78 -3.89,-2.9z" fill="#000000" id="svg_2" opacity="1"/>
 </g>
</svg>