<?xml version="1.0"?>
<svg width="448" height="379" xmlns="http://www.w3.org/2000/svg" xmlns:svg="http://www.w3.org/2000/svg" enable-background="new 0 0 448 379" version="1.1" xml:space="preserve">
 <g class="layer">
  <title>Layer 1</title>
  <path d="m320,29c17,0 33.5,-0.03 50,0.01c22.69,0.05 37.97,15.25 37.99,37.92c0.04,62.66 0.03,125.32 0,187.98c-0.01,22.95 -15.26,38.07 -38.34,38.08c-46,0.03 -92,0.04 -137.99,-0.05c-3.69,-0.01 -6.58,0.87 -9.51,3.23c-26.97,21.73 -53.98,43.41 -81.23,64.79c-2.95,2.31 -7.59,3.75 -11.32,3.51c-6.05,-0.38 -9.56,-5.75 -9.58,-12.6c-0.06,-17.84 -0.02,-35.67 -0.02,-53.5c0,-1.63 0,-3.26 0,-5.37c-10.93,0 -21.54,0 -32.15,0c-25.17,0 -39.85,-14.58 -39.85,-39.59c0,-61.66 0,-123.33 0,-184.99c0,-24.72 14.74,-39.42 39.52,-39.42c77.32,0 154.65,0 232.48,0m-188.5,24c-15.17,0 -30.33,-0.02 -45.5,0.01c-9.3,0.01 -13.99,4.56 -13.99,13.67c-0.02,62.83 -0.02,125.66 0,188.48c0,9.24 4.59,13.81 13.84,13.83c14.83,0.03 29.67,-0.02 44.5,0.02c8.92,0.03 13.6,4.66 13.64,13.53c0.05,13.5 0,27 0.02,40.5c0.01,1.38 0.18,2.76 0.32,4.76c22.81,-18.27 45.06,-36 67.18,-53.89c4.24,-3.43 8.64,-5.01 14.15,-4.99c47.66,0.14 95.32,0.08 142.98,0.08c11.25,0 15.36,-4.1 15.36,-15.34c0,-61.67 0,-123.33 0,-184.99c0,-11.66 -3.98,-15.67 -15.52,-15.67c-78.66,0 -157.32,0 -236.98,0z" fill="#010101" id="svg_2" opacity="1"/>
  <path d="m149,149c-5.33,0 -10.16,0.02 -14.99,0c-8.5,-0.04 -14.11,-4.94 -13.99,-12.18c0.11,-7.1 5.56,-11.81 13.82,-11.81c41.14,-0.02 82.28,-0.01 123.43,-0.01c21.98,0 43.97,-0.04 65.96,0.02c6.37,0.02 10.69,3.29 12.32,8.95c1.34,4.63 -0.34,10.26 -4.7,12.65c-2.75,1.51 -6.27,2.28 -9.45,2.28c-57.3,0.14 -114.6,0.1 -172.4,0.1z" fill="#000000" id="svg_4" opacity="1"/>
  <path d="m120.1,186.6c0.27,-9.16 4.68,-13.58 13.36,-13.59c31,-0.03 61.99,-0.03 92.98,0c8.09,0.01 13.63,5.04 13.54,12.12c-0.09,7.08 -5.58,11.86 -13.8,11.86c-30.83,0.03 -61.65,0.02 -92.48,0c-7.52,0 -10.99,-2.62 -13.6,-10.39z" fill="#010101" id="svg_5" opacity="1"/>
 </g>
</svg>