<svg version="1.1" id="Layer_1" xmlns="http://www.w3.org/2000/svg" xmlns:xlink="http://www.w3.org/1999/xlink" x="0px" y="0px"
	 width="100%" viewBox="0 0 480 400" enable-background="new 0 0 480 400" xml:space="preserve">
<path fill="#000000" opacity="1.000000" stroke="none" 
	d="
M414.881226,277.812866 
	C388.346619,315.992645 352.582794,340.586304 308.505646,353.477081 
	C284.117401,360.609619 259.216919,363.146240 233.935120,361.180389 
	C214.963776,359.705231 196.333618,356.112701 178.516830,349.236053 
	C173.760468,347.400238 170.054718,347.615479 165.445618,350.041504 
	C144.267151,361.188995 121.645004,368.558350 98.458572,374.231232 
	C87.797852,376.839508 77.096802,379.291962 66.171547,380.618469 
	C62.881451,381.017944 60.191368,380.432892 58.548283,377.306610 
	C56.957939,374.280609 57.511833,371.381836 59.649525,368.945221 
	C75.149727,351.277618 80.344612,329.437866 84.616478,307.258972 
	C85.903076,300.579102 86.535057,293.775482 87.589531,287.047729 
	C88.204147,283.126404 86.768082,279.977264 84.641876,276.828247 
	C71.685211,257.638794 63.167316,236.580002 59.633762,213.733276 
	C53.137058,171.727844 61.793457,132.876999 85.940132,97.876053 
	C113.882820,57.372692 152.734390,32.351425 200.213852,21.113220 
	C253.360535,8.533604 304.478180,14.881580 352.322266,41.735367 
	C390.570343,63.203144 418.322662,94.231865 433.391113,135.822342 
	C441.385986,157.888962 443.802124,180.666290 441.557312,204.100204 
	C438.988556,230.915268 429.770050,255.156158 414.881226,277.812866 
M216.451431,344.988708 
	C233.797302,347.580688 251.156586,348.517456 268.704163,346.892181 
	C297.383331,344.235962 324.302032,336.058563 348.772675,320.987854 
	C394.161743,293.034149 422.995239,253.951126 427.992798,199.512573 
	C430.629883,170.787140 424.808380,143.641083 410.543976,118.780090 
	C378.605438,63.115387 328.357483,35.963516 266.091125,29.634947 
	C237.327591,26.711506 208.813477,30.511894 181.693130,41.222118 
	C125.553978,63.392311 86.969849,101.488953 73.986954,162.105255 
	C69.336945,183.815872 70.836372,205.472977 76.684525,226.823120 
	C81.260559,243.529037 88.764626,258.868286 98.757637,273.008270 
	C100.588051,275.598267 102.486275,278.289703 102.076553,281.684784 
	C99.824905,300.342621 97.568993,319.001465 91.961761,337.051514 
	C89.207947,345.916290 85.571648,354.434143 81.211548,363.308838 
	C86.345383,363.243683 90.403397,361.692871 94.519157,360.706787 
	C117.744339,355.142334 140.404327,347.915192 161.448196,336.386658 
	C175.046158,328.937225 187.991135,320.410492 200.631302,311.434357 
	C204.155670,308.931580 207.575409,308.866882 210.430206,312.146179 
	C213.341782,315.490662 212.637466,318.996857 209.572662,321.913452 
	C207.774673,323.624481 205.698364,325.069702 203.636383,326.471436 
	C198.480652,329.976349 193.261673,333.388275 187.421326,337.266998 
	C197.062408,341.262787 206.389465,342.838013 216.451431,344.988708 
z"/>
<path fill="#000000" opacity="1.000000" stroke="none" 
	d="
M150.607605,164.192871 
	C163.105194,160.378952 174.668671,163.771805 181.392792,172.948669 
	C187.954559,181.903961 188.078171,194.308777 181.695724,203.350540 
	C175.663101,211.896729 164.635681,216.244370 154.932770,213.901978 
	C144.034119,211.270935 136.198715,202.915619 134.686462,192.312225 
	C133.130951,181.405518 138.126328,171.059021 147.556046,165.694443 
	C148.422958,165.201248 149.344391,164.803909 150.607605,164.192871 
M152.198044,197.321075 
	C158.530518,201.597412 163.028671,201.714035 168.121613,197.733871 
	C171.926651,194.760223 173.653732,189.206635 172.032486,184.776154 
	C170.221100,179.826065 166.731262,176.781540 161.404800,176.323669 
	C156.270264,175.882309 152.322830,178.152023 149.868439,182.588760 
	C147.064056,187.658173 147.833282,192.474899 152.198044,197.321075 
z"/>
<path fill="#000000" opacity="1.000000" stroke="none" 
	d="
M274.721375,196.380798 
	C269.943176,208.893158 259.516479,215.500671 246.898712,214.275757 
	C235.618317,213.180679 226.054596,203.718796 224.078445,191.698471 
	C222.317215,180.985352 229.178452,168.741730 240.056137,164.447037 
	C249.965317,160.534714 259.622284,161.839203 267.515839,169.188202 
	C275.273468,176.410690 278.067627,185.523743 274.721375,196.380798 
M256.292572,178.041229 
	C251.438690,175.227600 246.689545,175.493439 242.371597,178.989120 
	C238.782669,181.894623 237.140900,185.812286 238.061844,190.479630 
	C239.146255,195.975525 243.670197,200.089798 248.997406,200.620590 
	C253.840103,201.103119 259.221344,197.729538 261.305573,192.904434 
	C263.581146,187.636353 262.221497,183.149826 256.292572,178.041229 
z"/>
<path fill="#000000" opacity="1.000000" stroke="none" 
	d="
M316.859558,200.923920 
	C310.550201,187.499985 314.252838,173.496857 325.729492,166.401581 
	C337.001678,159.432739 351.309784,161.696716 359.596191,171.760406 
	C369.120300,183.327255 367.051453,200.620102 355.094757,209.386459 
	C342.546875,218.586258 325.963562,215.045776 316.859558,200.923920 
M327.777710,191.530304 
	C330.532928,197.893723 335.682983,201.396988 341.058472,200.564392 
	C346.660248,199.696747 351.226135,194.969574 351.669586,189.578445 
	C352.267761,182.306030 346.695831,176.234253 339.448425,176.260880 
	C331.946747,176.288437 327.064362,182.246338 327.777710,191.530304 
z"/>
</svg>