<?xml version="1.0"?>
<svg width="658" height="566" xmlns="http://www.w3.org/2000/svg" xmlns:svg="http://www.w3.org/2000/svg" enable-background="new 0 0 658 566" version="1.1" xml:space="preserve">
 <g class="layer">
  <title>Layer 1</title>
  <path d="m419.34,302.35c17.57,17.77 35.21,35.47 52.65,53.35c4.38,4.49 8.16,9.57 12.46,14.64c4.79,15.59 -6.45,26.65 -18.33,33.52c-7.72,4.45 -16.83,2.12 -23.71,-4.7c-11.34,-11.23 -22.58,-22.56 -34.31,-34.29c-27.21,-27.37 -53.95,-54.31 -80.8,-81.15c-1.68,-1.68 -4.02,-3.18 -6.29,-3.7c-4.66,-1.07 -8.53,0.73 -11,4.97c-2.35,4.03 -1.62,8.83 2.23,12.75c10.62,10.81 21.31,21.53 32.04,32.24c14.84,14.81 29.73,29.57 44.59,44.35c12.69,12.9 25.34,25.84 38.09,38.68c4.39,4.41 7.36,9.32 7.4,15.76c0.04,5.38 -1.39,10.2 -5.1,14.16c-3.18,3.39 -6.52,6.62 -10.02,10.19c-12.28,6.65 -20.33,5.71 -29.63,-4.3c-9.77,-10.53 -21.13,-16.93 -36.23,-16.54c-0.51,-1.81 -0.57,-3.61 -0.69,-6.11c-0.2,-1.22 -0.36,-1.73 -0.52,-2.24c-2.05,-5.86 -2.92,-12.55 -6.38,-17.4c-10.5,-14.73 -23.22,-26.72 -43.46,-26.12c-0.67,-4.38 -1.31,-8.57 -2.18,-13.09c-1.11,-2.79 -1.97,-5.27 -3.09,-8.34c-0.8,-1.4 -1.35,-2.22 -1.91,-3.04c-8.35,-11.42 -18.23,-20.86 -32.28,-24.87c-0.78,-0.22 -1.61,-0.38 -2.43,-0.38c-11.76,-0.03 -10.22,1.56 -11.04,-10.58c-1.28,-19.13 -28.41,-46.25 -52.06,-42.03c-9.15,1.63 -17.31,4.9 -23.9,11.47c-15,14.94 -30.11,29.76 -44.69,45.1c-4.53,4.77 -7.49,11.04 -11.43,17.03c-1.99,-2.1 -4.39,-4.71 -6.87,-7.25c-13.61,-13.94 -28.04,-27.19 -40.74,-41.92c-57.64,-66.82 -52.28,-167.63 11.64,-228.41c0.48,-0.45 0.92,-0.95 1.53,-1.73c5.92,-5.34 11.47,-10.69 17.57,-15.31c4.54,-3.45 9.65,-6.26 14.77,-8.84c19.57,-9.82 40.2,-16.48 62.02,-18.57c46.93,-4.5 88.59,8.41 124.69,38.88c0.49,0.41 0.87,0.96 1.72,1.92c-2.78,2.89 -5.45,5.77 -8.21,8.54c-35.15,35.3 -70.28,70.61 -105.46,105.86c-16.57,16.61 -15.21,37.28 3.49,51.48c25.11,19.05 58.59,17.35 81.2,-4.82c26.39,-25.89 52.31,-52.27 78.42,-78.45c7.22,-7.25 12.12,-7.28 19.48,0.08c15.54,15.55 31.07,31.12 47.05,47.12c5.23,5.29 9.98,10.18 14.81,14.99c15.88,15.84 31.79,31.65 47.69,47.47c15.45,15.63 30.89,31.28 46.36,46.89c10.77,10.86 10.66,19.06 4.73,28.6c-4.24,6.82 -10.48,13.44 -19.35,15.65c-9.41,2.33 -16.32,-1.79 -22.67,-8.23c-17.66,-17.92 -35.51,-35.66 -53.72,-53.92c-20.03,-20.17 -39.59,-39.92 -59.24,-59.58c-4.91,-4.92 -11.27,-5.01 -15.5,-0.61c-4.19,4.35 -3.91,10.12 0.81,15.1c2.52,2.66 5.13,5.22 7.73,7.81c16.02,15.98 32.05,31.95 48.07,47.92z" fill="#F3004A" id="svg_8" opacity="1" transform="matrix(1 0 0 1 0 0)"/>
  <path d="m240.06,469.34c-0.81,-9.02 3.02,-15.48 9.12,-21.39c13.14,-12.71 25.84,-25.87 38.78,-38.8c10.5,-10.5 22.2,-10.47 32.82,-0.15c6.12,5.97 12.41,11.83 11.17,21.52c-0.37,2.91 -1.37,5.75 -2.13,9.02c-15.9,16.44 -31.6,32.65 -47.68,48.47c-8,7.88 -19.54,7.97 -27.98,0.54c-5.94,-5.24 -12.18,-10.46 -14.1,-19.21z" fill="#F2004A" id="svg_9" opacity="1"/>
  <path d="m381.12,471.18c3.92,9.44 2.61,17.64 -4.36,24.68c-14.16,14.33 -28.26,28.71 -42.63,42.83c-9.42,9.26 -21.33,8.93 -30.63,-0.37c-2.47,-2.47 -4.98,-4.93 -7.2,-7.62c-7.14,-8.66 -7.18,-19.68 0.57,-27.69c14.7,-15.2 29.64,-30.18 44.78,-44.94c7.79,-7.6 19.69,-7.54 27.63,-0.15c4.23,3.93 7.8,8.59 11.84,13.26z" fill="#F2004A" id="svg_10" opacity="1"/>
  <path d="m198.08,396.39c11.33,-11.67 22.4,-23.16 33.77,-34.34c3.94,-3.88 8.25,-7.7 13.08,-10.27c6.19,-3.3 13.02,-2.86 18.9,1.36c7.61,5.45 14.78,11.42 17.35,21.52c0.5,8.9 -3.14,15.49 -9.23,21.39c-13.02,12.61 -25.64,25.61 -38.42,38.45c-10.98,11.03 -22.41,11.04 -33.43,0.03c-1.41,-1.41 -2.81,-2.83 -4.2,-4.25c-9.51,-9.7 -9.51,-21.56 -0.01,-31.41c0.69,-0.71 1.36,-1.44 2.19,-2.48z" fill="#F2004A" id="svg_11" opacity="1"/>
  <path d="m184.97,380.99c-0.59,0.48 -1.17,0.96 -2.16,1.83c-1.23,1.31 -2.06,2.23 -2.89,3.15c-0.32,0.04 -0.59,0.18 -0.89,0.65c-7.89,5.4 -15.95,6.28 -24.68,1.57c-4.1,-3.87 -7.97,-7.52 -11.58,-11.41c-8.97,-9.66 -6.61,-21.08 0.5,-28.26c14.71,-14.86 29.57,-29.58 44.66,-44.06c2.73,-2.61 6.86,-3.76 11.13,-5.71c2.51,-0.16 4.23,-0.2 5.95,-0.25c11.9,3.91 20.48,11.44 24.15,23.55c2.22,7.34 -0.09,14.02 -5.53,19.51c-11.46,11.6 -22.91,23.2 -34.8,35.23c-1.57,1.69 -2.72,2.94 -3.86,4.2z" fill="#F2004A" id="svg_12" opacity="1"/>
  <path d="m607.57,210.12c-0.18,1.68 -0.37,3.36 -0.7,5.75c-0.22,1.55 -0.3,2.4 -0.38,3.24c-6.32,37.25 -22.16,69.53 -51.09,97.22c-0.63,-1.42 -1.39,-2.57 -1.67,-3.82c-2.34,-10.79 -10.82,-17.23 -17.79,-24.55c-12.85,-13.49 -26.24,-26.46 -39.85,-40.09c-7.71,-7.75 -14.93,-15.1 -22.23,-22.36c-12.6,-12.54 -25.24,-25.02 -37.86,-37.52c-12.72,-12.95 -25.43,-25.9 -38.17,-38.83c-4.09,-4.15 -8.16,-8.34 -12.36,-12.38c-13.39,-12.88 -32.02,-13.03 -45.21,0.06c-26.25,26.06 -52.29,52.32 -78.39,78.53c-15.88,15.94 -40.09,17.41 -57.18,3.42c-7.05,-5.78 -7.47,-11.76 -1.05,-18.21c42.23,-42.38 83.83,-85.4 126.93,-126.87c36.5,-35.14 81.22,-49.23 131.62,-43.63c12.14,1.35 24,5.28 36.37,8.06c19.55,7.58 37.36,17.43 52.83,31.18c30.09,26.75 48.44,59.96 54.88,100.48c0.29,1.55 0.52,2.37 0.75,3.2c0.11,1.68 0.21,3.37 0.33,5.85c0.27,2.57 0.53,4.35 0.8,6.12c-0.02,6.04 -0.04,12.08 -0.18,18.93c-0.22,2.62 -0.31,4.42 -0.4,6.22z" fill="#F3004A" id="svg_19" opacity="1"/>
 </g>
</svg>