<svg version="1.1" id="Layer_1" xmlns="http://www.w3.org/2000/svg" xmlns:xlink="http://www.w3.org/1999/xlink" x="0px" y="0px"
	 width="100%" viewBox="0 0 432 368" enable-background="new 0 0 432 368" xml:space="preserve">
<path fill="#000000" opacity="1.000000" stroke="none" 
	d="
M42.432693,196.496216 
	C14.724262,149.481125 23.924461,89.562271 64.321869,51.829929 
	C101.841377,16.785624 168.261459,7.292077 219.055008,50.561871 
	C225.702759,45.268246 232.649796,40.204433 240.178436,35.947697 
	C301.331421,1.371484 381.795105,31.616093 404.373260,98.324028 
	C420.074463,144.713806 410.060394,185.865997 376.344879,221.269913 
	C370.025269,227.905991 363.326233,234.180344 356.993469,240.804413 
	C352.072937,245.951248 346.253571,249.287125 339.234436,250.126923 
	C336.206726,250.489151 335.491760,251.748611 335.241302,254.543060 
	C334.184662,266.332550 321.535675,279.586487 309.622620,281.331879 
	C305.747864,281.899628 303.915070,283.458771 303.299622,287.491302 
	C301.523712,299.126984 289.956238,311.150940 278.271515,313.206299 
	C273.902863,313.974731 272.032623,315.660065 271.516754,319.994141 
	C270.979034,324.512268 269.026031,328.704803 265.804749,332.000366 
	C256.140381,341.887573 246.605850,351.924500 236.530655,361.381012 
	C226.209122,371.068756 211.158829,370.496521 200.816910,360.917450 
	C194.289444,354.871490 188.900406,348.316254 188.608078,338.863495 
	C188.548309,336.930695 187.204788,336.608917 185.556061,336.329712 
	C170.282074,333.743500 160.030167,323.860474 156.902908,308.439972 
	C156.392578,305.923584 155.172348,305.274628 153.043060,304.766510 
	C138.055710,301.189972 128.390457,292.270477 125.510231,276.789886 
	C124.984726,273.965424 123.307640,272.840210 120.743492,272.616638 
	C113.872978,272.017609 108.631798,268.498596 103.919937,263.721893 
	C89.525429,249.129242 75.036751,234.629379 60.565479,220.112595 
	C53.584724,213.109894 47.650120,205.311005 42.432693,196.496216 
M181.112732,43.425236 
	C149.102020,30.633331 118.252731,33.102734 88.727737,50.791321 
	C45.854847,76.476700 28.515032,133.459564 48.952278,178.970398 
	C58.918289,201.163269 76.672165,216.538727 93.354675,232.987762 
	C93.537102,233.167633 93.979156,233.084198 94.645264,233.166138 
	C96.462692,229.981552 98.142731,226.496094 100.849693,223.767273 
	C110.117538,214.424500 119.295959,204.986511 128.778687,195.865753 
	C134.749329,190.123016 142.190140,187.841690 150.413925,189.251343 
	C163.319962,191.463623 173.987213,202.249191 176.810181,215.377716 
	C177.280869,217.566589 176.640594,220.282761 180.417480,220.941345 
	C196.541977,223.752945 205.863541,233.661011 209.028564,249.537369 
	C209.408508,251.443237 210.146973,252.330124 212.158920,252.687607 
	C227.979950,255.498764 238.110199,265.822937 240.295746,281.315613 
	C240.557373,283.170258 240.885986,284.603333 243.095215,284.649017 
	C251.747711,284.828064 258.110901,289.395844 263.785461,295.357452 
	C267.384399,299.138428 271.742188,300.900635 276.903625,299.292053 
	C290.017456,295.205292 293.500153,281.420013 283.933197,271.825226 
	C261.583923,249.410995 239.242676,226.988785 216.904373,204.563629 
	C211.403961,199.041809 210.712708,195.417511 214.424683,191.814407 
	C217.816696,188.521881 221.369354,189.385406 226.722778,194.758255 
	C249.183731,217.300781 271.653503,239.834549 294.113617,262.377899 
	C296.970459,265.245361 299.846191,267.866180 304.342804,267.848846 
	C310.507355,267.825073 317.825623,262.598175 320.701538,255.739029 
	C323.224854,249.720856 320.646027,245.190765 316.457703,241.008179 
	C299.835968,224.409164 283.264984,207.759262 266.703064,191.100540 
	C259.774567,184.131592 252.838898,177.166626 246.061249,170.052414 
	C243.167923,167.015442 242.688263,163.459396 245.943451,160.299973 
	C249.147888,157.189819 252.592728,157.779465 255.794235,160.458572 
	C257.322845,161.737778 258.697327,163.204910 260.109375,164.619141 
	C282.357208,186.901962 304.628876,209.161179 326.812225,231.508041 
	C330.123932,234.844147 333.849670,236.635452 338.460907,235.776855 
	C345.523438,234.461868 349.689148,229.405869 352.396179,223.358398 
	C354.919281,217.721817 352.082458,213.096649 348.079773,209.082565 
	C316.317017,177.229401 284.572418,145.358109 252.804962,113.509659 
	C247.212036,107.902481 244.916641,107.961006 239.157669,113.718788 
	C223.251450,129.621750 207.470169,145.651672 191.425613,161.413681 
	C177.051224,175.534927 154.253525,175.941620 139.213058,162.679352 
	C129.286743,153.926605 128.797974,141.451340 138.159912,131.990997 
	C155.734482,114.231705 173.394775,96.557251 190.994217,78.822502 
	C196.818481,72.953461 202.565277,67.007530 208.307404,61.137730 
	C203.278076,55.340038 193.072021,48.712193 181.112732,43.425236 
M161.888138,157.793045 
	C170.808807,158.667648 178.045227,155.530060 184.305542,149.152481 
	C199.354660,133.821503 214.617477,118.700325 229.792114,103.492531 
	C240.414703,92.846718 251.784363,92.818810 262.447815,103.485619 
	C281.522827,122.566628 300.796112,141.456711 319.555847,160.843384 
	C335.427734,177.245758 353.187836,191.889526 367.080566,211.038910 
	C367.837646,210.113724 368.603760,209.011963 369.530914,208.068512 
	C398.243988,178.850891 405.759674,132.076675 387.837860,94.013000 
	C359.987396,34.862152 284.383484,16.888826 233.174820,57.492916 
	C219.192627,68.579575 207.617508,82.299759 194.934631,94.806343 
	C179.517136,110.009552 164.300171,125.416588 149.044098,140.782745 
	C143.808090,146.056519 144.248169,149.362640 150.430832,153.599869 
	C153.650024,155.806122 157.121460,157.288589 161.888138,157.793045 
M170.429840,306.361328 
	C170.670151,307.323334 170.743286,308.368896 171.176086,309.234650 
	C176.783798,320.451691 187.685974,328.926300 199.496979,315.645660 
	C206.663483,307.587463 214.756729,300.361328 222.170258,292.512604 
	C228.647827,285.654785 228.206436,279.245697 221.321060,272.526672 
	C213.469925,264.865173 207.019333,264.211548 200.163635,270.886047 
	C191.594025,279.229156 183.290131,287.845764 174.899323,296.371674 
	C172.383713,298.927765 170.764221,301.963837 170.429840,306.361328 
M109.815857,249.551285 
	C111.520355,251.367355 113.134567,253.279510 114.946152,254.981628 
	C120.552040,260.248749 127.333649,260.518707 132.776840,255.238617 
	C141.841553,246.445511 150.817551,237.544739 159.478531,228.357132 
	C165.688904,221.769135 164.580994,215.316681 156.696274,207.667923 
	C150.255249,201.419708 143.578659,201.040924 137.457794,207.021103 
	C128.544403,215.729630 119.811325,224.625153 111.104645,233.541809 
	C106.546555,238.209808 106.139008,242.937790 109.815857,249.551285 
M165.625900,242.120453 
	C158.583542,249.184418 151.528732,256.236023 144.502243,263.315735 
	C137.083008,270.791229 137.135117,277.294830 144.637405,284.863281 
	C145.456558,285.689667 146.256409,286.541107 147.131027,287.305634 
	C152.381943,291.895844 158.787781,292.282227 163.791885,287.497040 
	C173.280075,278.423950 182.518799,269.080078 191.621048,259.617706 
	C195.791306,255.282486 196.274429,249.027832 192.859558,244.489883 
	C185.652817,234.913086 176.941711,229.001923 165.625900,242.120453 
M209.546494,349.987915 
	C216.197937,355.776123 221.632889,356.381927 227.223877,351.038208 
	C236.597992,342.078705 245.753067,332.874329 254.682358,323.471039 
	C259.940002,317.934357 259.614380,311.851776 254.544769,306.095276 
	C253.447342,304.849182 252.248550,303.687531 251.047043,302.538666 
	C244.896744,296.657837 238.176208,296.623230 232.160446,302.580109 
	C224.360657,310.303558 216.653931,318.120972 208.906815,325.897644 
	C200.062775,334.775391 200.100433,340.539124 209.546494,349.987915 
z"/>
</svg>