<svg version="1.1" id="Layer_1" xmlns="http://www.w3.org/2000/svg" xmlns:xlink="http://www.w3.org/1999/xlink" x="0px" y="0px"
	 width="100%" viewBox="0 0 224 416" enable-background="new 0 0 224 416" xml:space="preserve">
<path fill="#000000" opacity="1.000000" stroke="none" 
	d="
M133.928207,287.819153 
	C157.561554,295.727234 171.485931,315.967712 170.263916,340.173920 
	C169.150406,362.230621 152.583054,381.888672 130.899155,386.882294 
	C102.824646,393.347595 74.308151,375.546173 68.856308,348.152069 
	C62.938278,318.415466 81.405724,290.886139 110.830490,286.125183 
	C118.377235,284.904114 126.121201,285.024292 133.928207,287.819153 
M105.548676,361.019653 
	C111.296738,364.143677 117.313553,365.182343 123.820572,363.920837 
	C135.957672,361.567932 143.001495,354.034332 146.108658,342.445160 
	C148.632919,333.030121 144.235977,321.226227 135.836014,315.049042 
	C126.388893,308.101807 116.152267,307.065063 105.857452,312.655823 
	C87.744675,322.492249 85.483849,348.417358 105.548676,361.019653 
z"/>
<path fill="#000000" opacity="1.000000" stroke="none" 
	d="
M101.948013,28.651941 
	C129.663498,19.169037 159.125183,34.203117 167.974854,61.531315 
	C176.132446,86.722336 162.126694,116.443192 137.684509,124.983025 
	C109.671150,134.770569 80.433601,121.675850 70.993996,95.114113 
	C61.159336,67.440712 73.612656,40.420452 101.948013,28.651941 
M130.508270,102.161896 
	C131.809326,101.428070 133.161621,100.771523 134.403397,99.948280 
	C145.201889,92.789330 149.582245,78.791695 144.733475,67.041023 
	C139.437012,54.205402 126.946091,47.516552 113.286400,50.201233 
	C100.611717,52.692322 91.502304,63.872662 91.299484,76.828377 
	C91.015358,94.978310 110.156586,110.844620 130.508270,102.161896 
z"/>
<path fill="#000000" opacity="1.000000" stroke="none" 
	d="
M148.154388,164.729401 
	C173.732269,184.391953 178.025391,216.652283 157.772705,240.455643 
	C144.141144,256.477051 126.099007,261.802429 105.908836,256.487488 
	C85.454628,251.103043 72.478325,237.315002 68.768692,216.370117 
	C62.822384,182.796799 87.672066,154.652908 121.686264,155.743912 
	C131.221298,156.049728 139.898422,159.316208 148.154388,164.729401 
M146.565430,210.889648 
	C146.829727,206.892441 146.796509,202.938705 145.556915,199.050446 
	C141.278122,185.629044 127.308434,177.003494 114.035927,179.647568 
	C99.771553,182.489227 89.761162,196.087662 91.397461,210.400375 
	C92.973381,224.185013 105.557693,234.942368 119.813309,234.690887 
	C132.360489,234.469528 142.291763,225.891022 146.565430,210.889648 
z"/>
</svg>