<?xml version="1.0"?>
<svg width="433" height="455" xmlns="http://www.w3.org/2000/svg" xmlns:svg="http://www.w3.org/2000/svg" enable-background="new 0 0 433 455" version="1.1" xml:space="preserve">
 <g class="layer">
  <title>Layer 1</title>
  <path d="m242,28.99c21.49,0 42.49,-0.03 63.48,0.01c22.32,0.04 37.37,14.96 37.38,37.28c0.04,105.63 0.02,211.27 0.01,316.9c-0.01,13.33 -6.2,23.42 -17.48,27.66c-12.1,4.53 -22.82,2.01 -32.02,-7.21c-26.81,-26.87 -53.69,-53.69 -80.56,-80.52c-8.69,-8.68 -18.94,-8.65 -27.63,0.03c-26.98,26.95 -53.91,53.96 -80.95,80.85c-14.35,14.27 -37.23,11.18 -45.96,-6.38c-1.99,-4.02 -3.01,-8.95 -3.02,-13.46c-0.16,-106.3 -0.18,-212.59 -0.08,-318.89c0.02,-21.25 15.45,-36.23 36.88,-36.25c49.82,-0.05 99.63,-0.02 149.95,-0.02m-98.5,22.53c-16.33,0 -32.66,-0.01 -49,0c-12.66,0 -16.77,4.08 -16.77,16.68c0,104.15 0,208.31 0,312.46c0,1.34 -0.06,2.67 0.02,4c0.32,5.21 4.83,7.48 9.16,4.56c1.22,-0.83 2.22,-2 3.28,-3.06c26.76,-26.71 53.48,-53.47 80.28,-80.14c15.88,-15.81 41.09,-15.81 57.03,-0.04c12.91,12.76 25.72,25.64 38.56,38.48c14.37,14.37 28.63,28.85 43.21,43.01c1.76,1.71 5.46,2.64 7.83,2.1c1.47,-0.35 2.21,-4.13 3.12,-6.43c0.29,-0.72 0.05,-1.65 0.05,-2.49c0,-104.15 0,-208.31 0,-312.46c0,-12.58 -4.12,-16.67 -16.79,-16.67c-52.99,0 -105.99,0 -159.98,0z" fill="#040405" id="svg_2" opacity="1"/>
 </g>
</svg>