<svg version="1.1" id="Layer_1" xmlns="http://www.w3.org/2000/svg" xmlns:xlink="http://www.w3.org/1999/xlink" x="0px" y="0px"
	 width="100%" viewBox="0 0 544 448" enable-background="new 0 0 544 448" xml:space="preserve">
<path fill="#000000" opacity="1.000000" stroke="none" 
	d="
M304.387238,71.258331 
	C336.975891,60.387222 369.181519,49.624187 401.406403,38.919174 
	C409.667236,36.174953 418.062805,35.062317 426.213379,39.094559 
	C435.899841,43.886631 440.335571,54.326275 437.868988,66.351379 
	C435.453979,78.124855 430.840027,89.242813 427.092438,100.608658 
	C412.500854,144.862518 397.698151,189.046768 382.957550,233.251419 
	C364.795349,287.717010 346.618256,342.177643 328.437897,396.637177 
	C327.911163,398.214996 327.300873,399.766571 326.685089,401.312714 
	C322.311401,412.293915 315.066956,420.288727 302.731964,421.180023 
	C289.145721,422.161713 279.081757,416.131012 272.767761,403.834473 
	C250.783249,361.019592 228.666382,318.272614 206.721054,275.437714 
	C204.930771,271.943268 202.420792,269.789032 199.045654,268.055511 
	C156.379807,246.141983 113.768753,224.121735 71.107689,202.198822 
	C59.005974,195.979919 52.997227,185.986282 53.825668,172.650406 
	C54.633614,159.644363 63.087173,151.986404 74.744507,147.884338 
	C90.916534,142.193649 107.245392,136.948029 123.513496,131.531082 
	C158.573273,119.856888 193.640076,108.203835 228.698288,96.524956 
	C253.807449,88.160393 278.907318,79.767975 304.387238,71.258331 
M111.004234,160.603104 
	C101.546173,163.798187 92.074509,166.953934 82.639648,170.216125 
	C80.297562,171.025925 77.610695,171.903488 77.456863,174.941498 
	C77.292747,178.182480 79.527855,179.993057 82.188461,181.362091 
	C123.487846,202.613037 164.812485,223.815491 206.026443,245.230881 
	C209.657913,247.117859 211.635086,246.815414 214.493576,243.948471 
	C271.527435,186.745758 328.674957,129.656342 385.787537,72.532074 
	C386.866638,71.452744 388.296295,70.561798 388.833038,68.075150 
	C296.039276,98.975334 203.894836,129.659317 111.004234,160.603104 
M361.812805,221.467148 
	C373.184753,187.363663 384.554810,153.259537 395.929749,119.157051 
	C399.543610,108.322586 403.170410,97.492439 406.901062,86.331978 
	C404.592133,86.629463 403.772186,87.992340 402.768372,88.995644 
	C345.368896,146.365479 288.005127,203.771042 230.559189,261.094238 
	C228.113770,263.534454 227.916168,265.295441 229.516678,268.373352 
	C244.962158,298.075775 260.203461,327.884277 275.523224,357.652130 
	C281.544434,369.351990 287.629272,381.019043 293.654572,392.716827 
	C294.932037,395.196930 296.506348,397.476227 299.514954,397.514526 
	C302.816071,397.556488 303.681824,394.641418 304.773529,392.231842 
	C305.390289,390.870544 305.900726,389.454987 306.373871,388.035492 
	C324.794098,332.769318 343.204468,277.499878 361.812805,221.467148 
z"/>
</svg>