<svg version="1.1" id="Layer_1" xmlns="http://www.w3.org/2000/svg" xmlns:xlink="http://www.w3.org/1999/xlink" x="0px" y="0px"
	 width="100%" viewBox="0 0 496 320" enable-background="new 0 0 496 320" xml:space="preserve">
<path fill="#000000" opacity="1.000000" stroke="none" 
	d="
M221.000061,148.706421 
	C285.655823,148.706253 349.811554,148.699814 413.967316,148.713593 
	C423.466064,148.715637 429.553101,153.103134 431.420410,161.159729 
	C433.498718,170.126877 426.911652,179.329758 417.758911,180.188385 
	C416.270721,180.327988 414.761749,180.263947 413.262390,180.263977 
	C317.778656,180.266235 222.294907,180.265396 126.811172,180.264832 
	C124.713448,180.264816 122.615730,180.264816 120.518005,180.264816 
	C120.220360,180.778870 119.922714,181.292923 119.625076,181.806976 
	C121.753891,183.594833 124.029594,185.235596 125.989487,187.192642 
	C154.996307,216.157578 183.945038,245.180710 212.952682,274.144806 
	C217.586319,278.771515 219.525177,284.168427 217.909927,290.508636 
	C216.325272,296.728760 212.045532,300.513641 205.844986,301.860779 
	C199.524109,303.234009 194.575409,300.539368 190.199890,296.150055 
	C168.201263,274.082062 146.147964,252.068573 124.111427,230.038376 
	C107.024437,212.956314 89.936569,195.875107 72.843781,178.798843 
	C62.195782,168.161148 62.281673,160.646149 72.970879,149.958191 
	C111.614075,111.319481 150.231613,72.655037 188.816345,33.957935 
	C193.348862,29.412207 198.232529,25.800234 205.047729,26.982410 
	C211.226089,28.054117 215.752945,31.329239 217.628540,37.664703 
	C219.570007,44.222679 217.967468,49.799110 213.200867,54.568130 
	C198.475937,69.300491 183.747299,84.029144 169.020248,98.759377 
	C154.175369,113.607468 139.319550,128.444672 124.506073,143.324036 
	C123.268936,144.566681 121.491432,145.483551 121.157242,148.706680 
	C154.383652,148.706680 187.441849,148.706680 221.000061,148.706421 
z"/>
</svg>