<svg version="1.1" id="Layer_1" xmlns="http://www.w3.org/2000/svg" xmlns:xlink="http://www.w3.org/1999/xlink" x="0px" y="0px"
	 width="100%" viewBox="0 0 432 416" enable-background="new 0 0 432 416" xml:space="preserve">
<path fill="#000000" opacity="1.000000" stroke="none" 
	d="
M184.113953,228.213226 
	C185.816879,223.458420 187.134323,218.959885 189.008743,214.706802 
	C190.402435,211.544556 189.742645,209.815140 187.087372,207.630249 
	C163.818176,188.482971 168.337158,153.646881 195.850952,141.629700 
	C208.784393,135.980774 221.705505,137.301697 233.311844,145.628860 
	C244.986099,154.004730 250.443665,165.519485 249.603577,180.056686 
	C248.920181,191.882446 243.418137,200.959503 234.395493,208.090881 
	C232.136673,209.876236 231.777176,211.383179 232.709351,213.979202 
	C253.073074,270.690613 273.365814,327.427490 293.668335,384.160889 
	C294.173126,385.571442 294.667084,386.987518 295.109528,388.418549 
	C296.402008,392.598480 296.105469,396.524658 292.115387,399.029053 
	C287.943054,401.647949 284.188599,400.272888 280.891266,396.964386 
	C273.246277,389.293610 265.553619,381.670380 257.890503,374.017639 
	C243.625320,359.771851 229.371521,345.514618 215.098801,331.276398 
	C213.936966,330.117371 212.666412,329.067291 210.993591,327.558136 
	C202.803955,335.609222 194.705353,343.454590 186.736740,351.429840 
	C172.019073,366.159729 157.370850,380.959106 142.712601,395.748291 
	C140.805450,397.672424 138.749771,399.380585 136.101486,400.067169 
	C130.241806,401.586273 124.925644,396.476501 126.472343,390.434235 
	C127.870811,384.971069 129.938477,379.671570 131.840775,374.346222 
	C149.200195,325.750000 166.588013,277.163910 184.113953,228.213226 
M184.952988,274.931915 
	C183.758804,277.466125 185.940231,278.588806 187.218674,279.907928 
	C193.004150,285.877533 198.834976,291.807190 204.795898,297.600555 
	C206.757553,299.507080 208.218170,302.124786 211.718872,303.124695 
	C219.759888,294.979095 227.891525,286.675110 236.114349,278.462402 
	C237.990005,276.589081 237.058441,274.911774 236.383163,273.021149 
	C230.125137,255.499786 223.782684,238.006729 217.765884,220.402512 
	C216.401825,216.411469 213.904068,216.250015 210.524841,216.126785 
	C207.208282,216.005844 205.449829,216.897568 204.300644,220.229019 
	C198.071045,238.288361 191.601593,256.264984 184.952988,274.931915 
M220.076508,197.686447 
	C232.136703,191.161728 236.716400,178.604752 231.106323,167.444031 
	C225.680771,156.650406 212.736847,151.977356 201.718216,156.834274 
	C191.282303,161.434311 185.866577,174.843826 190.163956,185.442993 
	C194.863449,197.033997 207.258804,202.366714 220.076508,197.686447 
M233.760300,326.726105 
	C244.601669,337.485413 255.443039,348.244690 266.284393,359.003998 
	C266.518219,358.812744 266.752014,358.621460 266.985840,358.430176 
	C259.407806,337.309113 251.829773,316.188049 244.030243,294.449615 
	C236.569931,301.919434 229.431900,308.271942 222.342392,316.906616 
	C226.205231,320.205566 229.737106,323.221863 233.760300,326.726105 
M185.572815,301.935699 
	C183.053894,299.924530 181.398880,296.835999 177.603500,295.316376 
	C170.148178,316.277222 162.825287,336.865784 155.182999,358.352295 
	C170.110367,343.546143 184.225723,329.545349 199.340912,314.552887 
	C194.899017,310.486694 190.493378,306.453674 185.572815,301.935699 
z"/>
<path fill="#000000" opacity="1.000000" stroke="none" 
	d="
M323.711853,268.721832 
	C341.643524,246.676651 352.586609,221.703201 355.404388,193.994003 
	C361.995483,129.179153 329.044464,73.412659 274.622406,47.022465 
	C232.282150,26.490940 189.260345,26.433369 147.041718,47.236843 
	C104.817024,68.043312 77.934853,102.202110 68.980125,148.247818 
	C57.903908,205.202286 76.021805,252.911911 120.300812,290.546906 
	C121.189194,291.301971 122.168526,291.955292 123.019402,292.748383 
	C126.767067,296.241516 127.446411,301.338806 124.672318,304.842621 
	C121.920761,308.317932 116.774132,308.718872 112.560585,305.536072 
	C97.096977,293.855286 84.376366,279.656403 74.099220,263.249298 
	C54.576202,232.081451 46.532036,197.945145 49.973614,161.569717 
	C53.808613,121.036003 71.124001,86.619392 100.956810,58.748108 
	C124.611267,36.648945 152.496948,22.609898 184.445480,17.692753 
	C228.116028,10.971491 268.546631,19.660759 304.790955,45.622822 
	C330.656036,64.150162 349.664948,88.110962 361.395325,117.708397 
	C373.113617,147.275375 375.685120,177.744659 369.429810,208.884689 
	C361.533051,248.195969 341.544312,280.130188 310.111359,304.958221 
	C306.721344,307.635925 303.164581,309.061188 299.158203,306.379242 
	C296.012604,304.273499 295.176056,301.114868 295.914520,297.583771 
	C296.535797,294.613098 298.912567,292.851227 301.124481,291.088257 
	C309.366791,284.518768 316.816772,277.155060 323.711853,268.721832 
z"/>
<path fill="#000000" opacity="1.000000" stroke="none" 
	d="
M273.305878,98.637436 
	C300.307129,121.032166 312.948853,149.645370 311.108124,184.141708 
	C309.970917,205.453201 302.145691,224.633713 288.334167,241.140808 
	C284.821259,245.339325 280.160767,246.143784 276.447876,243.358902 
	C272.576996,240.455505 271.918945,235.453110 275.420898,230.981567 
	C281.848206,222.774750 287.031097,213.972992 290.468475,204.089432 
	C303.719238,165.988876 286.320221,122.033173 250.481735,103.335159 
	C203.644836,78.898941 147.565857,101.434669 131.320908,151.766953 
	C122.631721,178.688934 127.012047,204.046219 143.689880,227.092911 
	C144.764236,228.577484 145.967682,229.977142 146.946838,231.520508 
	C149.902725,236.179657 149.474091,240.200500 145.812454,243.119751 
	C142.016571,246.145996 137.569595,245.577942 133.917114,241.378586 
	C128.084122,234.672226 123.328072,227.231674 119.768440,219.095154 
	C101.728142,177.859116 110.789101,133.773819 143.561295,102.958557 
	C172.138214,76.088074 218.034546,69.211937 253.501190,86.398407 
	C260.429413,89.755692 266.964172,93.684700 273.305878,98.637436 
z"/>
</svg>