<svg version="1.1" id="Layer_1" xmlns="http://www.w3.org/2000/svg" xmlns:xlink="http://www.w3.org/1999/xlink" x="0px" y="0px"
	 width="100%" viewBox="0 0 464 448" enable-background="new 0 0 464 448" xml:space="preserve">
<path fill="#000000" opacity="1.000000" stroke="none" 
	d="
M290.654572,43.993092 
	C290.678589,40.167210 290.536896,36.823532 290.767365,33.505703 
	C291.084595,28.938267 294.585663,25.754013 298.966003,25.722027 
	C303.589050,25.688272 307.143494,28.982847 307.279297,33.854275 
	C307.455658,40.181419 307.433502,46.518703 307.306366,52.847801 
	C307.240326,56.134495 308.052032,57.469009 311.832733,57.432575 
	C327.151794,57.284935 342.484528,57.276466 357.794037,57.775295 
	C373.645355,58.291779 387.242706,72.567383 387.296570,88.798576 
	C387.463074,138.953842 387.560577,189.111267 387.212006,239.264572 
	C387.147522,248.541367 389.191986,255.347137 395.872620,262.563782 
	C419.187103,287.748962 425.480896,317.836578 414.678894,350.203400 
	C404.117157,381.850342 381.333862,401.861786 348.645386,408.555176 
	C317.866943,414.857452 290.542755,406.437317 268.168823,383.971710 
	C264.328247,380.115387 260.785431,378.539490 255.201904,378.663055 
	C233.716888,379.138336 212.215347,378.867950 190.719955,378.871155 
	C151.228363,378.877045 111.736778,378.875977 72.245186,378.885986 
	C59.679401,378.889191 48.496578,375.815430 40.733128,364.947479 
	C36.842300,359.500732 34.679592,353.489319 34.678829,346.771515 
	C34.669064,260.956512 34.618076,175.141434 34.714306,89.326546 
	C34.733204,72.472488 47.867455,58.742889 64.674561,57.687283 
	C84.977516,56.412109 105.312935,57.156677 125.630463,57.320374 
	C129.793854,57.353916 130.868576,56.205498 130.711700,52.339127 
	C130.475449,46.516842 130.576950,40.675945 130.687958,34.845879 
	C130.795441,29.199415 134.147339,25.665121 139.094254,25.721638 
	C144.061935,25.778393 147.264679,29.256424 147.364426,34.983475 
	C147.471756,41.146915 147.422791,47.313751 147.383667,53.478737 
	C147.367569,56.011906 147.987549,57.454121 151.048523,57.453144 
	C194.696777,57.439228 238.345093,57.529755 281.993378,57.592312 
	C290.640656,57.604706 290.641052,57.599346 290.655334,48.985382 
	C290.657837,47.485867 290.655121,45.986343 290.654572,43.993092 
M187.500122,154.390579 
	C144.853500,154.393005 102.206871,154.375320 59.560299,154.416748 
	C52.050392,154.424057 51.572517,152.861206 51.581600,161.992844 
	C51.641731,222.462021 51.456882,282.931396 51.461433,343.400726 
	C51.462330,355.274872 57.978249,361.625732 69.767975,361.632446 
	C128.407349,361.665833 187.046768,361.653992 245.686157,361.640259 
	C251.295212,361.638947 251.553619,361.225250 249.397339,355.926514 
	C241.385391,336.238525 240.183502,316.155487 246.507446,295.858673 
	C262.075287,245.893295 316.660217,220.450607 365.004395,240.424225 
	C366.612457,241.088608 368.098297,242.505081 370.119904,241.795929 
	C371.047119,240.030731 370.628235,238.165680 370.630463,236.373489 
	C370.661499,211.385162 370.654541,186.396759 370.651031,161.408386 
	C370.650055,154.398376 370.641510,154.381653 363.418793,154.381592 
	C305.112579,154.381027 246.806351,154.387238 187.500122,154.390579 
M216.499908,137.658020 
	C265.821716,137.657410 315.143677,137.600906 364.465057,137.745987 
	C369.198761,137.759903 370.865479,136.468597 370.753021,131.569611 
	C370.450989,118.412834 370.714264,105.244156 370.627441,92.081032 
	C370.556030,81.255180 364.070557,74.579819 353.183105,74.429329 
	C339.522186,74.240494 325.855652,74.478249 312.193695,74.331078 
	C308.434387,74.290588 307.256042,75.748039 307.322235,79.358635 
	C307.484131,88.186775 307.425018,97.020905 307.329590,105.851280 
	C307.233398,114.751862 301.359222,121.410461 293.031250,122.267044 
	C284.152222,123.180305 276.763245,117.897324 274.931610,109.326118 
	C273.140259,100.943436 277.829437,92.608177 286.307129,90.220856 
	C289.759216,89.248749 291.040192,87.786316 290.670990,84.385857 
	C290.474243,82.573776 290.518860,80.716606 290.642944,78.892616 
	C290.877472,75.446442 289.417175,74.299812 285.947784,74.307442 
	C241.291382,74.405655 196.634689,74.407875 151.978226,74.338089 
	C148.459305,74.332588 147.363998,75.605980 147.430054,79.056259 
	C147.598953,87.880310 147.505814,96.711617 147.388214,105.538300 
	C147.266159,114.699814 141.261734,121.520271 132.837204,122.275848 
	C123.926636,123.075027 116.429108,117.619049 114.822624,109.166611 
	C113.180138,100.524788 118.045204,92.513382 126.925003,90.012619 
	C129.747803,89.217651 130.869080,88.035561 130.666138,85.242210 
	C130.545731,83.584846 130.468353,81.887451 130.685043,80.249519 
	C131.301880,75.586906 129.313019,74.230881 124.751701,74.286110 
	C106.758362,74.503952 88.760826,74.351326 70.764977,74.392677 
	C57.294277,74.423622 51.437763,80.606880 51.545765,94.159492 
	C51.643864,106.470398 52.355827,118.779633 51.476379,131.098648 
	C51.015923,137.548599 51.269268,137.618988 58.035473,137.620789 
	C110.523613,137.634766 163.011749,137.645645 216.499908,137.658020 
M399.309570,342.840515 
	C402.857025,331.660797 403.415894,320.151978 401.209259,308.813202 
	C393.905518,271.282867 359.950104,246.757965 322.136902,251.209885 
	C283.316803,255.780319 255.065170,292.486389 260.128235,330.995636 
	C264.776825,366.352600 296.023987,393.136810 330.258301,393.291260 
	C361.734070,393.433319 390.190613,372.209351 399.309570,342.840515 
z"/>
<path fill="#000000" opacity="1.000000" stroke="none" 
	d="
M290.827759,323.626526 
	C291.039856,316.584503 293.726318,313.789429 300.207336,313.676636 
	C306.037292,313.575165 311.875458,313.505249 317.700134,313.706696 
	C321.322083,313.832001 322.839111,312.614532 322.704895,308.843842 
	C322.491699,302.853333 322.574738,296.847656 322.691132,290.851471 
	C322.801910,285.142120 326.059692,281.696472 331.070618,281.707092 
	C336.036652,281.717621 339.244629,285.173706 339.357330,290.912689 
	C339.478363,297.075439 339.499908,303.243225 339.397400,309.406036 
	C339.344055,312.611786 340.576355,313.815582 343.842773,313.706451 
	C349.834076,313.506287 355.838989,313.581421 361.835205,313.698242 
	C367.556824,313.809692 370.925598,316.617584 371.273010,321.290833 
	C371.637451,326.192871 368.451385,329.929810 362.766266,330.377747 
	C356.634521,330.860840 350.450867,330.967041 344.299835,330.820160 
	C340.468323,330.728668 339.347656,332.223083 339.518616,335.821106 
	C339.763367,340.971008 339.647278,346.138397 339.667023,351.298401 
	C339.670197,352.128357 339.616150,352.962769 339.524689,353.788086 
	C338.937805,359.085266 335.606018,362.349426 330.870056,362.290314 
	C326.047241,362.230133 322.871460,358.901398 322.702911,353.433929 
	C322.559204,348.772858 322.658966,344.104187 322.654297,339.438873 
	C322.645782,330.888855 322.646729,330.914215 313.844910,330.892487 
	C309.181976,330.880981 304.512390,330.896973 299.858551,330.655060 
	C295.512909,330.429138 292.204346,328.504883 290.827759,323.626526 
z"/>
</svg>