<svg version="1.1" id="Layer_1" xmlns="http://www.w3.org/2000/svg" xmlns:xlink="http://www.w3.org/1999/xlink" x="0px" y="0px"
	 width="100%" viewBox="0 0 448 416" enable-background="new 0 0 448 416" xml:space="preserve">
<path fill="#000000" opacity="1.000000" stroke="none" 
	d="
M200.591888,400.063843 
	C187.688477,397.036865 179.381958,389.390900 174.450043,377.669708 
	C171.868195,371.533691 168.613464,365.680115 166.050186,359.537231 
	C164.644974,356.169708 162.530762,355.286591 159.119980,355.299835 
	C132.954453,355.401337 106.788300,355.380463 80.622429,355.344086 
	C58.949093,355.313934 44.667698,340.970398 44.659706,319.279907 
	C44.649143,290.614044 44.652897,261.948181 44.681030,233.282349 
	C44.682812,231.464844 44.645954,229.556885 45.158142,227.850418 
	C46.035732,224.926514 48.392738,223.572891 51.347610,223.952194 
	C54.032444,224.296860 55.975204,225.879471 56.267197,228.799271 
	C56.432461,230.451828 56.387215,232.128357 56.387516,233.794083 
	C56.392651,261.959930 56.347351,290.125854 56.409203,318.291595 
	C56.435562,330.295319 62.994190,339.586670 73.170776,342.107758 
	C75.559929,342.699615 78.114693,342.814972 80.594055,342.820953 
	C104.426582,342.878448 128.259293,342.875397 152.091904,342.850525 
	C153.700119,342.848846 155.427689,343.248688 157.467834,341.659485 
	C153.748947,333.527527 149.986359,325.257385 146.186142,317.004578 
	C143.469101,311.104004 140.611832,305.266388 137.986755,299.325714 
	C136.089279,295.031677 137.204941,291.406738 140.782806,290.183319 
	C145.151901,288.689392 147.608566,291.005585 149.371017,294.796661 
	C161.447281,320.773224 173.677795,346.678497 185.650513,372.702484 
	C189.563873,381.208649 195.281860,386.929199 204.914398,388.101501 
	C209.583313,388.669708 213.840851,387.372314 217.931290,385.470825 
	C256.598816,367.495850 295.241058,349.466492 333.891663,331.455109 
	C356.839203,320.761475 379.713867,309.907043 402.770599,299.454224 
	C413.356781,294.654968 421.187836,281.896423 414.998901,268.832245 
	C404.589020,246.858124 394.494720,224.734741 384.216858,202.697830 
	C365.490112,162.545441 346.743713,122.402153 327.967468,82.272873 
	C322.015045,69.551155 310.020630,64.937012 297.194061,70.845306 
	C267.092682,84.710869 237.117889,98.851028 207.051559,112.793106 
	C204.179260,114.125023 203.252380,116.036079 203.287033,119.057198 
	C203.401688,129.055542 203.351593,139.056229 203.312943,149.055801 
	C203.258102,163.244781 193.207367,174.251846 179.561081,175.126190 
	C166.639954,175.954071 155.349457,166.287750 153.523392,152.636322 
	C152.936142,148.246140 152.816910,143.793350 152.419113,138.513748 
	C144.664169,142.069382 137.452759,145.354614 130.259933,148.680054 
	C123.910126,151.615738 117.546921,154.525711 111.249954,157.571732 
	C98.286095,163.842743 94.014992,175.860977 100.058777,188.851852 
	C112.142540,214.825394 124.233009,240.795822 136.319962,266.767883 
	C136.601044,267.371887 136.896835,267.970490 137.146088,268.587646 
	C138.960205,273.079590 138.085861,276.660492 134.594238,277.899506 
	C130.334305,279.411072 127.652069,277.425354 125.853752,273.555542 
	C113.360374,246.670914 100.595467,219.909805 88.370140,192.904221 
	C79.937218,174.276031 87.316711,155.304428 105.841316,146.500488 
	C119.981796,139.780136 134.161774,133.138062 148.426544,126.687569 
	C151.848953,125.139946 153.152786,123.074059 152.963196,119.410004 
	C152.765961,115.598221 152.904114,111.742287 153.246140,107.937164 
	C153.570358,104.330582 155.687805,101.929329 159.481400,102.189384 
	C163.181915,102.443047 165.032684,105.029381 165.247620,108.597816 
	C165.425766,111.555267 165.284058,114.531998 165.284058,118.741913 
	C173.915665,114.648903 181.818130,111.263939 189.328979,107.161957 
	C192.337036,105.519135 190.703934,101.616730 190.787964,98.751709 
	C191.004593,91.366493 190.883698,91.350204 183.512939,91.347908 
	C149.680573,91.337379 115.842468,91.692833 82.018639,91.152260 
	C68.536415,90.936790 56.343922,99.272430 56.391956,117.116524 
	C56.464630,144.115555 56.403912,171.114944 56.395432,198.114182 
	C56.394749,200.280594 56.403324,202.448471 56.330814,204.613083 
	C56.211750,208.167526 54.390690,210.305130 50.792759,210.373108 
	C47.234867,210.440308 45.308121,208.272736 44.767632,204.913986 
	C44.531807,203.448486 44.661095,201.920792 44.660896,200.421341 
	C44.657116,171.922150 44.646412,143.422943 44.663361,114.923752 
	C44.676010,93.651840 58.950775,79.122482 80.287773,78.845802 
	C92.785294,78.683739 105.286674,78.822624 117.786316,78.817963 
	C124.728493,78.815369 124.657089,78.806664 124.766022,72.056480 
	C124.907936,63.261452 124.173653,54.458656 126.550522,45.744125 
	C131.592041,27.260002 149.698151,15.473947 170.069778,17.788986 
	C187.704834,19.793039 203.030792,36.872421 203.291489,54.888824 
	C203.385513,61.387398 203.432877,67.890564 203.290115,74.386986 
	C203.219849,77.584717 204.367508,78.864571 207.634186,78.840012 
	C221.299637,78.737259 234.967667,78.908806 248.631805,78.740303 
	C253.972748,78.674423 258.282043,75.277527 262.956970,73.204613 
	C273.157684,68.681488 283.100616,63.568768 293.351166,59.168175 
	C311.332855,51.448559 330.453369,58.523159 338.783661,76.291367 
	C367.985016,138.576645 397.044159,200.929062 425.965668,263.344788 
	C434.605225,281.989838 427.162994,301.607758 408.592834,310.277588 
	C347.023315,339.022308 285.402832,367.657990 223.860886,396.461426 
	C216.492615,399.910004 208.971771,400.995575 200.591888,400.063843 
M141.835495,78.812950 
	C156.323257,78.815208 170.812180,78.717834 185.298035,78.885170 
	C189.244751,78.930763 191.123001,77.916649 190.898544,73.587898 
	C190.605759,67.941277 190.917892,62.266254 190.811508,56.606426 
	C190.534805,41.886997 181.079498,31.804596 165.790024,29.807030 
	C154.169693,28.288839 141.615829,37.236668 138.306213,49.874458 
	C136.042633,58.517944 137.592865,67.430244 137.406128,76.220039 
	C137.358337,78.470367 139.158157,78.748428 141.835495,78.812950 
M175.835922,127.404762 
	C166.856293,129.559540 163.661041,135.294937 165.286224,144.175949 
	C165.609802,145.944229 165.284195,147.823029 165.357559,149.646851 
	C165.653503,157.004211 171.476868,162.791748 178.395706,162.648758 
	C185.471115,162.502533 190.618774,157.300751 190.775757,149.759216 
	C190.948502,141.460022 190.853546,133.154999 190.843002,124.852547 
	C190.841568,123.722481 190.959442,122.481857 189.412781,121.540016 
	C184.993866,122.709450 180.894058,125.236031 175.835922,127.404762 
M203.976868,92.417519 
	C203.015259,94.952408 202.999756,97.457047 204.150864,100.651749 
	C210.159988,97.768272 215.832031,95.046555 221.504059,92.324837 
	C215.695206,91.554855 210.134827,90.781761 203.976868,92.417519 
z"/>
<path fill="#000000" opacity="1.000000" stroke="none" 
	d="
M212.421356,225.337860 
	C241.738876,211.662811 270.712372,198.144440 299.693481,184.642456 
	C312.675171,178.594421 325.672058,172.578979 338.662231,166.549210 
	C343.886261,164.124344 347.210938,164.711426 349.008270,168.374542 
	C350.767151,171.959229 349.088806,175.230087 343.967621,177.628784 
	C319.993652,188.857895 295.992126,200.028091 272.001648,211.221909 
	C241.071045,225.653946 210.142883,240.091278 179.208206,254.514603 
	C177.398758,255.358261 175.591324,256.261383 173.693802,256.848938 
	C170.188293,257.934418 166.927872,257.691223 165.367981,253.729675 
	C163.849487,249.873260 165.670273,247.350372 169.142670,245.715927 
	C179.689499,240.751617 190.234283,235.782944 200.780319,230.816940 
	C204.546341,229.043594 208.313705,227.273041 212.421356,225.337860 
z"/>
<path fill="#000000" opacity="1.000000" stroke="none" 
	d="
M198.087921,287.187592 
	C195.489532,288.405121 193.257904,289.527557 190.976227,290.536804 
	C186.301163,292.604675 182.643448,291.765015 181.240936,288.078857 
	C179.601013,283.768768 181.767899,281.177887 185.592682,279.408356 
	C196.313568,274.448242 206.992523,269.397552 217.700607,264.409668 
	C242.736084,252.748062 267.788757,241.123383 292.805450,229.421631 
	C295.718658,228.058975 298.434937,227.285934 301.127686,229.677887 
	C304.963867,233.085556 303.581299,237.942673 297.923035,240.615692 
	C287.696014,245.447037 277.436371,250.209351 267.185455,254.989944 
	C244.269272,265.677185 221.350052,276.357910 198.087921,287.187592 
z"/>
</svg>