<?xml version="1.0"?>
<svg width="455" height="465" xmlns="http://www.w3.org/2000/svg" xmlns:svg="http://www.w3.org/2000/svg" enable-background="new 0 0 455 465" version="1.1" xml:space="preserve">
 <g class="layer">
  <title>Layer 1</title>
  <path d="m42.63,51.73c8.77,-10.08 20.21,-10.35 29.76,-0.82c51.49,51.44 102.95,102.91 154.4,154.4c1.28,1.28 2.27,2.84 3.61,4.55c2.1,-2 3.54,-3.32 4.91,-4.7c51.48,-51.45 102.94,-102.93 154.43,-154.37c8.81,-8.8 20.67,-9.05 28.27,-0.77c7.12,7.76 6.64,18.78 -1.42,26.87c-21.62,21.72 -43.32,43.36 -64.99,65.02c-31.22,31.2 -62.44,62.39 -93.98,93.9c1.2,1.3 2.25,2.52 3.38,3.65c51.22,51.24 102.3,102.62 153.79,153.58c11.5,11.38 8.86,23.34 2.65,29.5c-8.29,8.21 -19.31,7.09 -29.35,-2.96c-51.11,-51.12 -102.23,-102.23 -153.35,-153.34c-1.15,-1.15 -2.35,-2.25 -4.01,-3.83c-10.34,10.47 -20.45,20.79 -30.66,31.01c-42.5,42.53 -85.02,85.05 -127.55,127.54c-8.55,8.55 -19.13,9.37 -27.2,2.27c-8.34,-7.34 -8.51,-19.42 -0.11,-27.89c17.59,-17.75 35.3,-35.36 52.97,-53.03c34.27,-34.27 68.54,-68.55 102.84,-102.79c1.04,-1.04 2.38,-1.79 3.84,-2.85c-1.88,-2.03 -3.05,-3.37 -4.31,-4.63c-51.46,-51.47 -102.94,-102.93 -154.4,-154.4c-8.16,-8.17 -9.29,-16.11 -3.52,-25.91z" fill="#020202" id="svg_2" opacity="1"/>
 </g>
</svg>