<svg version="1.1" id="Layer_1" xmlns="http://www.w3.org/2000/svg" xmlns:xlink="http://www.w3.org/1999/xlink" x="0px" y="0px"
	 width="100%" viewBox="0 0 448 384" enable-background="new 0 0 448 384" xml:space="preserve">
<path fill="#000000" opacity="1.000000" stroke="none" 
	d="
M224.013351,21.658308 
	C304.144897,20.126696 373.695557,72.280701 394.673401,149.252594 
	C417.914459,234.528809 371.220703,325.126038 288.301544,355.639709 
	C196.421005,389.451141 96.219124,341.791199 64.512733,248.947037 
	C55.667446,223.045853 52.896038,196.350082 57.559620,169.227814 
	C70.057167,96.545074 112.212166,49.740234 182.187668,27.718836 
	C195.535248,23.518333 209.446320,21.683878 224.013351,21.658308 
M155.864227,65.403999 
	C155.441833,65.670853 155.028809,65.954071 154.595673,66.202217 
	C100.644859,97.112000 69.993149,160.210464 83.634407,224.262405 
	C97.948097,291.471741 155.063599,339.338013 224.637009,341.505371 
	C252.689667,342.379303 279.169739,335.388611 303.172791,320.631439 
	C347.645844,293.289246 371.470764,253.042664 375.443848,201.264709 
	C376.933167,181.856201 373.444763,162.820938 366.845062,144.408890 
	C346.085602,86.493553 292.319885,47.961422 230.729721,46.510399 
	C204.435654,45.890923 179.615967,52.328587 155.864227,65.403999 
z"/>
<path fill="#000000" opacity="1.000000" stroke="none" 
	d="
M248.074646,131.724304 
	C246.795380,146.592606 245.558655,160.993317 244.309784,175.393005 
	C242.974991,190.783554 241.736816,206.183670 240.236679,221.558167 
	C239.596634,228.118057 234.515045,232.330292 228.011658,232.335388 
	C221.604294,232.340408 216.333801,227.971848 215.763596,221.530167 
	C213.946472,201.002167 212.365341,180.453369 210.658646,159.915451 
	C209.695724,148.327957 208.183273,136.762741 207.782181,125.157631 
	C207.228653,109.142014 219.873688,99.955147 235.151108,104.652405 
	C242.598358,106.942177 247.819565,113.655495 248.240463,121.771667 
	C248.403870,124.922501 248.166580,128.094116 248.074646,131.724304 
z"/>
<path fill="#000000" opacity="1.000000" stroke="none" 
	d="
M242.445389,259.926758 
	C245.624924,266.962585 245.140167,273.352570 240.360580,278.964691 
	C236.078568,283.992584 230.296844,285.275391 224.006607,283.919189 
	C217.473038,282.510498 212.483047,276.828369 211.708603,270.345093 
	C210.823334,262.934174 213.991043,256.769104 220.473831,253.286057 
	C226.274078,250.169724 234.010666,251.147766 239.086136,255.764191 
	C240.299667,256.867950 241.218246,258.296021 242.445389,259.926758 
z"/>
</svg>