<?xml version="1.0"?>
<svg width="512" height="431" xmlns="http://www.w3.org/2000/svg" xmlns:svg="http://www.w3.org/2000/svg" enable-background="new 0 0 512 431" version="1.1" xml:space="preserve">
 <g class="layer">
  <title>Layer 1</title>
  <path d="m241,52.76c63.16,0 125.82,0 188.49,0.01c8.86,0 15.2,4.18 17.45,11.38c3,9.65 -3.28,19.69 -13.35,21.22c-1.8,0.27 -3.66,0.23 -5.49,0.23c-114.82,0.01 -229.65,0.02 -344.47,0.01c-9.74,0 -16.21,-3.95 -18.6,-11.28c-3.42,-10.52 3.86,-21.11 14.98,-21.51c6.49,-0.22 13,-0.06 19.5,-0.06c47,0 93.99,0 141.49,0z" fill="#030404" id="svg_2" opacity="1"/>
  <path d="m338,348.61c-85.33,0 -170.16,0.01 -254.98,0c-9.96,0 -16.41,-4.56 -18.34,-12.85c-2.26,-9.72 4.52,-19.09 14.44,-19.93c1,-0.09 2,-0.07 3,-0.07c115.83,0 231.65,0 347.48,0.01c8.81,0 15.16,4.25 17.36,11.49c3.24,10.65 -4.42,21.04 -15.97,21.3c-9.82,0.22 -19.66,0.05 -29.49,0.05c-21,0.01 -42,0 -63.5,0z" fill="#030404" id="svg_3" opacity="1"/>
  <path d="m342,217.04c-86.79,0 -173.08,0 -259.36,-0.01c-9.39,0 -15.77,-4.38 -17.82,-12.14c-2.66,-10.06 4.22,-19.84 14.59,-20.71c1,-0.08 2,-0.06 3,-0.06c115.6,0 231.21,0 346.82,0.01c8.9,0 15.18,4.04 17.6,11.21c3.62,10.76 -4.17,21.58 -15.88,21.66c-20.99,0.14 -41.97,0.04 -62.96,0.04c-8.5,0 -16.99,0 -25.99,0z" fill="#020202" id="svg_4" opacity="1"/>
 </g>
</svg>