<svg version="1.1" id="Layer_1" xmlns="http://www.w3.org/2000/svg" xmlns:xlink="http://www.w3.org/1999/xlink" x="0px" y="0px"
	 width="100%" viewBox="0 0 496 432" enable-background="new 0 0 496 432" xml:space="preserve">
<path fill="#000000" opacity="1.000000" stroke="none" 
	d="
M284.000061,25.658436 
	C297.166534,25.659319 309.832977,25.645821 322.499329,25.679430 
	C324.152985,25.683819 325.871338,25.689409 327.445160,26.116552 
	C330.405304,26.919928 331.801392,29.124584 331.590210,32.142273 
	C331.395935,34.918549 329.935120,36.940598 327.066711,37.329933 
	C324.271912,37.709278 321.427338,37.870350 318.604462,37.872307 
	C269.272064,37.906483 219.939514,37.839890 170.607239,37.929070 
	C143.114380,37.978767 121.384033,52.456223 111.081108,77.260292 
	C96.037895,113.476517 118.599098,155.238083 157.162033,162.636856 
	C167.751358,164.668549 178.430298,163.397644 189.064804,163.714813 
	C194.559631,163.878677 200.064362,163.679214 205.563278,163.749496 
	C208.093140,163.781830 209.421921,163.155670 209.746109,160.203094 
	C210.941360,149.317368 217.641876,142.289978 227.545609,141.051895 
	C236.306137,139.956757 245.522034,146.184845 248.901657,155.764862 
	C252.161087,165.004288 251.317001,163.696808 260.491821,163.733536 
	C276.324615,163.796906 292.157959,163.727692 307.990875,163.771973 
	C315.980072,163.794312 318.022430,165.855637 318.113953,173.856873 
	C318.172852,179.004761 318.125000,184.153870 318.125000,189.788605 
	C320.962952,188.963043 322.205780,186.901978 323.771027,185.361450 
	C329.472076,179.750427 335.210571,174.168823 340.696716,168.351456 
	C343.930573,164.922348 347.607880,163.759308 352.255066,163.679413 
	C364.370026,163.471100 376.539459,164.894409 388.578156,161.948090 
	C413.585999,155.827774 433.079224,133.414825 435.796539,107.810341 
	C439.977112,68.417664 408.466766,37.561783 373.290497,37.886486 
	C365.629730,37.957199 357.964752,37.769680 350.304260,37.591740 
	C346.475037,37.502789 343.761261,35.745926 343.839874,31.584763 
	C343.917664,27.466534 346.655487,25.636969 350.474396,25.721333 
	C361.782562,25.971144 373.133148,24.716127 384.396606,26.600348 
	C413.774323,31.514818 434.177460,48.051155 444.071838,75.836227 
	C459.516174,119.206429 433.544159,164.676666 388.562561,174.638046 
	C378.234283,176.925293 367.665680,176.493164 357.190826,176.145203 
	C352.241150,175.980789 348.744598,177.551941 345.406860,181.095078 
	C338.553284,188.370438 331.286011,195.254410 324.267334,202.376663 
	C320.669128,206.027924 316.603668,207.750443 311.644684,205.710022 
	C306.778931,203.708038 305.475647,199.635345 305.615295,194.722321 
	C305.752533,189.893143 305.592346,185.056229 305.647583,180.223694 
	C305.673828,177.924026 305.158630,176.282593 302.410492,176.285858 
	C287.444641,176.303650 272.478760,176.294312 257.579834,176.294312 
	C256.718384,179.047424 258.072632,180.935028 258.784607,182.886398 
	C275.847748,229.652008 292.979919,276.392426 310.032806,323.161774 
	C313.793182,333.475067 310.141479,343.960846 301.404602,348.702240 
	C292.278351,353.654938 281.980255,351.317230 275.385162,342.239075 
	C271.918121,337.466736 266.799377,338.272003 262.313416,337.521362 
	C237.714752,333.405518 213.072983,329.533569 188.404877,325.853699 
	C179.901154,324.585144 171.031296,321.388733 162.777420,328.545074 
	C166.001923,337.451843 169.319916,346.658997 172.669662,355.854553 
	C174.835037,361.798828 177.067932,367.718445 179.230652,373.663635 
	C180.722504,377.764648 180.629639,381.771790 178.662628,385.771332 
	C176.163544,390.852753 173.708237,395.964447 171.482712,401.169403 
	C168.901169,407.207062 164.511856,410.373962 157.951279,410.303528 
	C151.398544,410.233246 146.905975,407.047455 144.638977,400.889801 
	C138.081680,383.078735 131.400681,365.310089 125.145050,347.393250 
	C123.583305,342.920227 121.820427,342.240356 117.628914,343.958344 
	C109.931374,347.113312 102.129547,350.211090 93.475800,347.288879 
	C85.545731,344.610992 79.926666,339.559113 76.979973,331.750458 
	C73.041687,321.314178 69.202179,310.838501 65.481239,300.322784 
	C59.739460,284.096008 68.051872,268.970917 84.787262,264.979034 
	C88.307106,264.139404 91.181053,265.053802 92.617355,268.532440 
	C94.118294,272.167603 92.235130,274.613556 89.165962,276.320618 
	C88.163681,276.878082 87.000374,277.166626 85.887703,277.501740 
	C78.340149,279.775024 73.530243,288.436401 76.934631,296.157043 
	C81.223114,305.882629 84.241165,316.162476 87.973495,326.141052 
	C91.242737,334.881531 97.908760,337.968842 106.790268,334.777313 
	C124.808441,328.302521 142.759613,321.641510 160.764481,315.129364 
	C163.185822,314.253571 165.053055,313.601624 163.825424,310.294403 
	C157.394394,292.969269 151.104904,275.591583 144.742310,258.240936 
	C144.585480,257.813293 144.151215,257.487396 143.497009,256.686249 
	C134.392929,259.958771 125.185936,263.270355 115.977013,266.576630 
	C114.253990,267.195251 112.513824,267.766998 110.798004,268.404633 
	C106.779320,269.898010 103.803581,268.570374 102.288879,264.735260 
	C100.679283,260.659882 103.292641,258.395538 106.643875,257.076904 
	C113.770134,254.272842 120.826149,251.089447 128.198120,249.156998 
	C139.707367,246.139984 148.029037,239.550125 155.451126,230.379120 
	C169.279343,213.292450 184.060440,196.976944 198.443542,180.339279 
	C199.298492,179.350327 200.397781,178.519958 200.627380,176.979538 
	C199.051392,175.673203 197.158661,176.348114 195.427139,176.284927 
	C183.784622,175.860168 172.108368,177.058960 160.486664,175.452988 
	C129.452698,171.164474 108.307877,154.010223 98.116829,124.799187 
	C83.378769,82.554848 109.074944,37.521587 152.662552,27.448612 
	C158.019424,26.210655 163.468292,25.627264 169.002884,25.634735 
	C207.168564,25.686260 245.334320,25.659967 284.000061,25.658436 
M174.123505,302.492188 
	C175.535507,308.349731 178.001221,312.101837 185.113647,313.060181 
	C207.180923,316.033447 229.094345,320.131897 251.126663,323.393829 
	C256.421509,324.177765 261.754364,325.689789 268.458496,325.304993 
	C250.663803,276.676331 233.152252,228.821365 215.642639,180.971725 
	C213.221161,181.575378 212.430389,183.175751 211.388428,184.373566 
	C193.351395,205.108109 175.386932,225.905823 157.328049,246.621246 
	C155.262100,248.991089 155.276688,251.204315 156.296829,253.951752 
	C162.206345,269.867188 168.008865,285.822388 174.123505,302.492188 
M292.798981,311.562531 
	C276.345184,266.574677 259.897858,221.584442 243.429886,176.601776 
	C241.199677,170.509888 239.057236,164.374191 236.512024,158.413406 
	C234.827072,154.467300 231.590256,152.489624 227.191010,153.991623 
	C222.781754,155.497040 221.696640,159.007919 222.457153,163.227020 
	C222.749115,164.846649 223.424942,166.404556 223.994522,167.965546 
	C236.650818,202.650986 249.304352,237.337448 261.985443,272.013824 
	C269.411713,292.320923 276.838470,312.628113 284.371063,332.895844 
	C286.142639,337.662598 290.152008,339.748505 294.116577,338.447144 
	C298.260254,337.087036 300.245300,332.667480 298.627869,327.798523 
	C296.897766,322.590363 294.914978,317.466156 292.798981,311.562531 
M166.398331,382.895386 
	C168.107681,380.026093 167.483948,377.206726 166.397766,374.292694 
	C162.510818,363.864685 158.914459,353.323883 154.828293,342.975739 
	C149.650497,329.863037 153.625183,331.308197 139.347534,336.066315 
	C135.723404,337.274078 134.860092,338.885895 136.288376,342.642944 
	C142.308945,358.479889 147.981766,374.448700 153.876251,390.334229 
	C154.819855,392.877258 155.298035,395.799194 158.456757,397.956329 
	C162.063187,393.587585 163.411606,388.199127 166.398331,382.895386 
z"/>
<path fill="#000000" opacity="1.000000" stroke="none" 
	d="
M280.718933,121.842354 
	C280.713745,109.699898 280.721466,98.037498 280.699493,86.375153 
	C280.692139,82.476791 280.414948,78.363060 285.264160,76.982964 
	C289.769073,75.700874 291.840576,78.974289 293.957703,82.084167 
	C299.257141,89.868584 304.619110,97.610413 310.830261,106.640366 
	C310.830261,98.460312 310.776794,91.850189 310.846375,85.241364 
	C310.907166,79.471100 312.915741,76.802383 317.049347,76.716164 
	C321.303802,76.627441 323.887268,79.588303 323.938721,85.292152 
	C324.051392,97.786163 323.994385,110.282372 323.913055,122.777077 
	C323.888123,126.604538 323.067322,130.220718 318.803680,131.586700 
	C314.309662,133.026474 312.081848,129.876114 309.942566,126.826935 
	C304.698547,119.352486 299.504272,111.843109 293.213928,104.519524 
	C293.213928,109.739067 293.226898,114.958656 293.207336,120.178131 
	C293.199860,122.175705 293.344025,124.210381 293.021179,126.162338 
	C292.422302,129.783234 290.608612,132.557846 286.458893,132.249542 
	C282.690308,131.969559 281.026581,129.405014 280.781586,125.819832 
	C280.702179,124.658058 280.737457,123.488449 280.718933,121.842354 
z"/>
<path fill="#000000" opacity="1.000000" stroke="none" 
	d="
M335.214050,87.311790 
	C345.105377,76.429390 358.761047,73.490379 370.209045,79.550316 
	C374.876465,82.020981 376.581696,85.487755 374.938629,89.165764 
	C373.482574,92.425171 369.893005,93.008492 364.922791,90.793434 
	C356.136383,86.877640 347.649475,89.434982 343.523468,97.241600 
	C339.668549,104.535278 342.454285,113.945457 349.705658,118.124992 
	C357.587463,122.667900 366.214020,119.531639 368.382141,111.278137 
	C366.835602,109.911324 364.910095,110.518600 363.159241,110.412468 
	C359.274231,110.176979 357.203430,107.922592 357.252319,104.345360 
	C357.302521,100.673897 359.652740,98.654404 363.470978,98.652107 
	C367.469238,98.649704 371.470032,98.544106 375.465149,98.651817 
	C380.343689,98.783356 382.200836,100.811974 382.329956,105.838280 
	C382.654694,118.476280 374.365906,129.544128 362.708038,132.038879 
	C350.214172,134.712555 336.378235,127.287834 331.712646,115.523285 
	C327.773621,105.590782 328.867401,96.313164 335.214050,87.311790 
z"/>
<path fill="#000000" opacity="1.000000" stroke="none" 
	d="
M143.637680,124.696350 
	C143.635056,111.066132 143.600677,97.903893 143.658981,84.742065 
	C143.683334,79.242378 145.702316,76.675377 149.671204,76.718147 
	C153.659866,76.761124 155.790787,79.398430 156.060196,84.661659 
	C156.111252,85.658974 155.976212,86.674110 156.105377,87.657608 
	C156.524673,90.850540 154.454010,95.501938 157.571869,96.939079 
	C161.834000,98.903671 167.058731,97.873360 171.843369,97.354935 
	C173.675491,97.156410 173.656036,95.221046 173.670593,93.702797 
	C173.702560,90.370918 173.625015,87.035950 173.741074,83.707436 
	C173.880386,79.712433 175.650970,76.817276 179.976913,76.794754 
	C184.308487,76.772209 186.201340,79.615189 186.220184,83.647186 
	C186.284836,97.475304 186.269989,111.304016 186.221054,125.132286 
	C186.206985,129.109146 184.520615,131.964371 180.198395,132.290131 
	C176.454010,132.572342 173.966339,129.739532 173.771866,125.001740 
	C173.621643,121.342163 173.648773,117.670517 173.736176,114.007553 
	C173.800949,111.292488 172.646545,109.952751 169.917313,110.002594 
	C169.584747,110.008667 169.251556,109.966431 168.918610,109.965759 
	C153.484131,109.934723 156.381256,108.606819 156.091400,122.017166 
	C156.073395,122.849930 156.094894,123.684059 156.058716,124.515839 
	C155.884689,128.514908 154.760849,132.005493 150.059555,132.260300 
	C145.299225,132.518311 143.782852,129.344437 143.637680,124.696350 
z"/>
<path fill="#000000" opacity="1.000000" stroke="none" 
	d="
M216.615463,104.999863 
	C216.617752,97.848083 216.574265,91.195869 216.636292,84.544640 
	C216.694199,78.334129 218.372635,76.746460 224.777893,76.668243 
	C227.770767,76.631691 230.764618,76.634071 233.757660,76.660561 
	C242.470459,76.737671 248.748611,81.013687 251.410919,88.656151 
	C253.915176,95.844841 251.400711,102.935104 244.428131,108.315323 
	C243.521805,109.014679 242.584274,109.673622 241.436066,110.516548 
	C243.182022,114.751122 246.853088,117.278526 249.404053,120.640923 
	C252.718979,125.010300 253.040787,128.095901 250.100800,130.729446 
	C247.071701,133.442795 243.578217,132.744843 239.827408,128.575394 
	C236.405350,124.771393 233.053757,120.904030 229.076736,116.389992 
	C227.901505,120.155838 228.498856,123.105370 228.359283,125.962357 
	C228.164841,129.942642 226.210251,132.328445 222.206970,132.255798 
	C218.349548,132.185760 216.677032,129.615356 216.649933,125.953758 
	C216.599503,119.136086 216.623001,112.317856 216.615463,104.999863 
M234.122299,98.875618 
	C237.552856,98.546326 240.077515,96.926308 239.502747,93.238068 
	C238.856552,89.091507 235.275818,88.711472 231.839203,88.563766 
	C227.910202,88.394928 228.548569,91.210045 228.341980,93.667595 
	C228.028870,97.392159 229.228912,99.447044 234.122299,98.875618 
z"/>
<path fill="#000000" opacity="1.000000" stroke="none" 
	d="
M195.647217,119.921860 
	C195.651917,107.629135 195.599731,95.823357 195.688782,84.018646 
	C195.726440,79.025902 197.964447,76.518959 201.869904,76.738167 
	C205.740265,76.955383 207.536270,79.364296 207.644806,82.947922 
	C207.856049,89.923714 207.871780,96.906136 207.912811,103.886147 
	C207.950928,110.370491 208.005249,116.856873 207.888702,123.339409 
	C207.775314,129.646988 205.786484,132.464920 201.765182,132.476013 
	C197.781387,132.487000 195.711227,129.417419 195.650940,123.402145 
	C195.640930,122.404602 195.648163,121.406883 195.647217,119.921860 
z"/>
<path fill="#000000" opacity="1.000000" stroke="none" 
	d="
M272.244446,82.499832 
	C272.290497,96.603035 272.326752,110.253616 272.296875,123.904053 
	C272.284851,129.408020 269.989471,132.384247 265.999542,132.328430 
	C262.155487,132.274628 259.849640,129.430374 259.824738,124.236954 
	C259.760864,110.919662 259.816193,97.601768 259.832642,84.284134 
	C259.837158,80.610451 261.032196,77.554543 265.014008,76.849915 
	C268.959106,76.151794 271.318207,78.223183 272.244446,82.499832 
z"/>
<path fill="#000000" opacity="1.000000" stroke="none" 
	d="
M388.827942,88.125923 
	C388.867432,85.988823 388.772675,84.315155 388.972504,82.677429 
	C389.409485,79.095573 391.367493,76.809578 395.116455,76.775749 
	C398.915863,76.741478 401.089478,79.074692 401.185608,82.656433 
	C401.407959,90.942566 401.395721,99.241226 401.215759,107.529099 
	C401.134247,111.283798 398.934509,114.038193 395.071533,114.035965 
	C391.200592,114.033737 389.065826,111.256088 388.935577,107.509850 
	C388.716736,101.214798 388.845001,94.907692 388.827942,88.125923 
z"/>
<path fill="#000000" opacity="1.000000" stroke="none" 
	d="
M134.162460,288.857025 
	C133.329010,292.277740 131.164581,293.906860 128.362900,294.911194 
	C121.659027,297.314423 114.976967,299.779510 108.255959,302.133545 
	C103.928047,303.649445 100.468048,302.294525 99.386681,298.564148 
	C98.158669,294.327942 100.516724,292.026886 104.189880,290.666504 
	C110.871124,288.191986 117.538071,285.675934 124.254578,283.300446 
	C129.923920,281.295349 132.344238,282.620148 134.162460,288.857025 
z"/>
<path fill="#000000" opacity="1.000000" stroke="none" 
	d="
M400.309265,129.137482 
	C396.308502,132.993835 392.900055,133.182755 390.376434,130.027222 
	C388.126221,127.213531 388.754730,123.550865 391.837341,121.365028 
	C393.808624,119.967186 395.906921,119.725250 397.849823,121.155281 
	C400.402344,123.033981 402.197571,125.350525 400.309265,129.137482 
z"/>
</svg>