<svg version="1.1" id="Layer_1" xmlns="http://www.w3.org/2000/svg" xmlns:xlink="http://www.w3.org/1999/xlink" x="0px" y="0px"
	 width="100%" viewBox="0 0 480 464" enable-background="new 0 0 480 464" xml:space="preserve">
<path fill="#000000" opacity="1.000000" stroke="none" 
	d="
M423.162506,416.839111 
	C411.247650,404.927490 399.549438,393.299194 387.941925,381.581146 
	C385.822479,379.441589 383.631287,378.288116 380.503387,378.318054 
	C366.507874,378.451996 352.509613,378.460297 338.514282,378.320587 
	C335.261139,378.288086 333.512848,379.440796 331.868195,382.291138 
	C314.036285,413.194672 287.049438,428.336029 251.555786,426.079315 
	C221.624512,424.176270 199.266449,408.803070 184.426514,382.797089 
	C182.468445,379.365723 180.347549,378.287323 176.572205,378.302826 
	C144.746765,378.433563 112.920326,378.313934 81.094780,378.430786 
	C75.026375,378.453064 69.628670,377.473297 66.812622,371.489929 
	C63.960182,365.429199 66.279518,360.270905 70.228371,355.423462 
	C78.435211,345.349121 86.421577,335.095337 94.613945,325.009003 
	C107.654510,308.953735 113.564568,290.443451 113.629601,269.959930 
	C113.717415,242.299927 113.760506,214.638870 113.615120,186.979355 
	C113.507545,166.513809 117.529633,146.957092 126.122826,128.428284 
	C128.182999,123.986099 127.836487,121.290924 124.199921,117.737137 
	C105.851273,99.806221 87.806953,81.562881 69.732841,63.352741 
	C65.172295,58.757881 64.380836,52.983955 67.166748,47.795387 
	C69.583565,43.294235 75.029358,40.839386 80.393066,41.838951 
	C84.028503,42.516438 86.592636,44.838291 89.099495,47.349178 
	C112.641121,70.928627 136.213745,94.477135 159.775696,118.036293 
	C254.848343,213.097687 349.921204,308.158844 444.986359,403.227753 
	C446.862610,405.104065 448.728882,406.943665 449.606171,409.631653 
	C451.358673,415.001434 449.818146,420.870361 445.585876,424.032562 
	C441.262909,427.262512 434.558960,427.236908 430.222656,423.695618 
	C427.781921,421.702362 425.670258,419.306213 423.162506,416.839111 
M109.906929,346.365662 
	C108.438248,348.646362 106.043587,350.357117 105.233208,353.222717 
	C189.672073,353.222717 273.701385,353.222717 357.446899,353.222717 
	C287.192078,283.088043 217.014236,213.030167 146.887421,143.023270 
	C146.939163,142.913589 146.554306,143.624237 146.259354,144.370407 
	C140.994781,157.688766 138.573853,171.629410 138.433441,185.833069 
	C138.138565,215.663208 138.315384,245.498352 138.364166,275.331329 
	C138.373474,281.024414 137.652847,286.624268 136.648743,292.189331 
	C132.974823,312.551392 123.692436,330.184326 109.906929,346.365662 
M299.283569,384.789917 
	C300.736481,383.075104 302.822998,381.776917 303.076447,379.230255 
	C298.142914,377.827759 216.337601,378.073303 212.886322,379.467743 
	C227.516083,401.433472 268.749725,412.712189 299.283569,384.789917 
z"/>
<path fill="#000000" opacity="1.000000" stroke="none" 
	d="
M254.040924,41.673332 
	C305.492920,41.343307 346.105042,61.864040 376.092621,102.882347 
	C390.599396,122.725395 399.114532,145.201370 401.332611,169.799622 
	C403.670349,195.724884 401.803955,221.726257 402.329285,247.687943 
	C402.608307,261.477844 401.382294,275.343353 404.330261,288.992157 
	C405.240540,293.206818 406.688721,297.309540 407.517883,301.536621 
	C408.821594,308.183197 405.185242,314.072388 398.951813,315.946777 
	C393.069000,317.715790 386.636383,314.867004 384.178192,308.782593 
	C379.902893,298.200409 377.731201,287.093994 377.689423,275.680359 
	C377.583374,246.695541 377.848358,217.708450 377.605408,188.725281 
	C377.233093,144.301865 358.902710,109.205719 321.475067,84.998917 
	C297.111450,69.241440 270.083405,63.799564 241.225723,67.776237 
	C219.906158,70.714134 200.996826,79.134407 184.187378,92.433487 
	C179.417572,96.207191 174.261597,97.288795 168.903030,94.204948 
	C164.352112,91.585884 162.225861,87.349892 162.802063,81.992119 
	C163.198654,78.304596 165.091461,75.456566 167.955215,73.191223 
	C189.766968,55.937168 214.315277,45.356236 242.118881,42.568130 
	C245.927826,42.186180 249.704681,41.561863 254.040924,41.673332 
z"/>
</svg>