<svg version="1.1" id="Layer_1" xmlns="http://www.w3.org/2000/svg" xmlns:xlink="http://www.w3.org/1999/xlink" x="0px" y="0px"
	 width="100%" viewBox="0 0 432 384" enable-background="new 0 0 432 384" xml:space="preserve">
<path fill="#000000" opacity="1.000000" stroke="none" 
	d="
M153.000366,363.328247 
	C135.832733,365.213684 119.276108,364.233459 102.963577,360.248413 
	C85.863754,356.071045 70.048035,349.246796 57.988239,335.829895 
	C42.685379,318.804993 43.157883,297.133545 58.921940,280.523560 
	C66.634743,272.396820 75.915359,266.627655 86.261726,262.541870 
	C92.467262,260.091248 97.615059,262.012756 99.628853,267.233917 
	C101.553833,272.224823 99.220505,276.854004 93.277824,279.474274 
	C85.452469,282.924683 77.987305,286.841248 72.179306,293.381378 
	C63.493721,303.161865 63.545921,314.109467 72.511818,323.715088 
	C78.803482,330.455658 86.645767,334.880219 95.205963,337.864075 
	C125.879959,348.556122 156.271667,348.251770 186.043869,334.540314 
	C193.023697,331.325806 199.382904,327.006195 204.140594,320.706451 
	C210.753296,311.950439 210.563446,302.647430 203.435013,294.292389 
	C200.277313,290.591309 196.587173,287.487518 192.385681,285.007538 
	C178.475906,276.797119 163.332809,272.881409 147.386246,271.877808 
	C145.695267,273.507477 146.332581,275.451599 146.319641,277.183075 
	C146.247345,286.849030 146.345505,296.516327 146.258560,306.182037 
	C146.192047,313.577179 142.965637,317.355408 137.003967,317.335205 
	C131.201233,317.315552 127.733566,313.275330 127.730827,306.102692 
	C127.696030,215.104568 127.692116,124.106453 127.709740,33.108334 
	C127.711082,26.166265 130.935837,22.154898 136.482178,21.814356 
	C141.650391,21.497030 145.115219,24.788403 146.216202,31.630783 
	C146.589249,33.949112 147.678101,34.671715 149.687790,35.052891 
	C176.749435,40.185726 203.905365,43.324951 231.566956,41.173359 
	C242.035965,40.359043 252.268127,37.792374 262.788361,37.709694 
	C282.351318,37.555954 295.847107,50.075386 296.066193,69.729080 
	C296.430328,102.391006 296.223877,135.059952 296.144867,167.725662 
	C296.126831,175.175751 293.339447,178.149155 285.815491,179.345566 
	C271.359772,181.644226 256.906311,183.970352 242.413574,186.013031 
	C239.198303,186.466202 238.308914,187.674850 238.245514,190.753891 
	C237.961121,204.568695 241.558716,208.643036 255.352905,210.861023 
	C271.979431,213.534424 288.677002,215.487869 305.505768,215.460983 
	C325.017517,215.429810 344.313904,212.803070 363.492706,209.313309 
	C370.775726,207.988113 370.769409,208.039993 370.767151,200.696823 
	C370.757446,169.030838 370.689087,137.364532 370.831329,105.699188 
	C370.851837,101.139633 369.758820,100.254990 365.070984,100.917099 
	C351.411499,102.846352 337.902161,106.079399 324.027496,106.306877 
	C317.527557,106.413452 313.453552,103.201096 312.986389,97.930504 
	C312.545959,92.961388 315.891724,88.848412 322.251160,88.214348 
	C340.809845,86.363937 359.089508,82.804054 377.479126,79.905907 
	C384.724274,78.764091 389.112122,82.853264 389.231476,90.553467 
	C389.378693,100.051010 389.274261,109.552483 389.274170,119.052261 
	C389.273895,150.218277 389.276917,181.384308 389.266632,212.550323 
	C389.263641,221.592529 387.266296,224.366592 378.633148,225.809006 
	C351.386047,230.361435 324.176575,235.386307 296.336639,234.216324 
	C279.006165,233.487991 261.832001,231.272491 244.869797,227.852539 
	C230.868805,225.029617 220.849564,211.778824 220.669662,197.300629 
	C220.531860,186.209305 221.937531,187.291138 210.758331,187.465439 
	C189.985626,187.789276 169.671082,184.057541 149.258072,181.110626 
	C148.615067,181.017807 147.961639,180.997070 147.397385,180.949799 
	C145.732285,182.385132 146.358932,184.173523 146.355255,185.734604 
	C146.306198,206.567398 146.408478,227.401031 146.242401,248.232620 
	C146.210541,252.228409 147.358643,253.492752 151.488007,253.943008 
	C172.451492,256.228668 192.432312,261.589752 209.292847,275.103363 
	C217.951157,282.042969 224.287521,290.554932 226.480804,301.819672 
	C228.979355,314.652283 225.015579,325.524200 216.760742,335.034637 
	C204.669952,348.964508 188.583679,355.929901 171.138412,360.212250 
	C165.335159,361.636810 159.487762,363.049957 153.000366,363.328247 
M146.893219,150.421677 
	C146.874207,152.919144 147.025970,155.432755 146.791779,157.909882 
	C146.515884,160.828110 147.662613,162.237762 150.528595,162.626083 
	C165.011841,164.588516 179.434204,167.221695 193.976517,168.479263 
	C221.027985,170.818558 247.758881,167.241440 274.346802,162.502747 
	C277.092468,162.013382 278.710602,160.765808 278.701752,157.527740 
	C278.621674,128.220474 278.759491,98.912376 278.613129,69.605629 
	C278.573395,61.648228 272.849182,56.313427 264.878387,56.146488 
	C262.231750,56.091057 259.538971,56.279850 256.929199,56.722263 
	C227.453918,61.718987 197.994904,61.403622 168.505844,56.800503 
	C161.548248,55.714447 154.657684,53.650661 147.096298,54.313290 
	C146.665421,86.277847 146.420883,117.865944 146.893219,150.421677 
z"/>
</svg>