<svg version="1.1" id="Layer_1" xmlns="http://www.w3.org/2000/svg" xmlns:xlink="http://www.w3.org/1999/xlink" x="0px" y="0px"
	 width="100%" viewBox="0 0 464 288" enable-background="new 0 0 464 288" xml:space="preserve">
<path fill="#000000" opacity="1.000000" stroke="none" 
	d="
M371.211975,170.171661 
	C355.239227,196.325699 339.437500,222.162582 323.311737,248.529251 
	C331.219696,253.247925 338.687347,257.829559 346.290375,262.174286 
	C349.051147,263.751923 350.009399,260.973938 351.260223,259.358887 
	C354.800476,254.787735 360.024963,253.896240 363.741058,257.450134 
	C366.616699,260.200256 367.086334,263.582642 365.187073,267.034821 
	C363.021729,270.970734 360.755249,274.873444 358.224060,278.579773 
	C355.381958,282.741486 351.285980,283.838165 346.845703,281.265228 
	C334.020721,273.833740 321.282440,266.245605 308.657501,258.479401 
	C303.636871,255.390976 303.053528,251.353683 305.934204,246.031647 
	C307.970459,242.269684 310.993042,239.027435 312.265961,234.242401 
	C307.117310,231.181091 301.981262,228.155106 296.876373,225.077484 
	C294.999695,223.946091 293.273407,224.799957 291.619141,225.447968 
	C272.999329,232.741547 254.286285,233.000046 235.495911,226.222153 
	C233.414032,225.471207 231.715942,225.793839 229.788239,226.665604 
	C207.604645,236.697861 185.164627,237.895721 162.525116,228.262665 
	C159.764938,227.088226 157.446350,227.314835 154.984924,228.805130 
	C150.719711,231.387497 144.657059,232.901321 142.563843,236.655991 
	C140.305008,240.707718 146.096390,244.855743 147.888107,249.192734 
	C149.936951,254.152115 149.161118,258.073303 144.455795,260.734100 
	C131.552933,268.030457 118.583122,275.214874 105.509506,282.199677 
	C100.364357,284.948547 96.397102,283.356293 93.158417,277.621674 
	C76.449158,248.035004 59.812664,218.407242 43.150429,188.794022 
	C41.598667,186.036133 40.067924,183.266083 38.487080,180.524948 
	C33.734161,172.283554 34.700909,168.790192 43.194057,164.146820 
	C60.147648,154.877945 77.101822,145.609497 94.112770,136.446732 
	C96.966125,134.909805 98.442490,133.189224 98.891441,129.665924 
	C99.965454,121.237328 104.630264,114.812325 112.162636,110.802170 
	C116.121918,108.694298 117.758965,105.984909 117.841644,101.323822 
	C118.025757,90.944099 123.291611,83.282974 132.543427,78.706787 
	C135.884445,77.054237 137.090073,75.565765 137.070190,71.417366 
	C137.017776,60.482647 141.772552,51.685898 152.108734,46.974808 
	C155.523438,45.418438 156.967392,43.625435 156.666168,39.888962 
	C154.993057,19.135338 178.776291,5.326471 197.613937,16.624241 
	C208.756119,23.306702 220.094025,29.663733 231.209000,36.390030 
	C234.164398,38.178516 236.485474,38.186447 239.460724,36.531601 
	C248.484451,31.512568 257.609955,26.669708 266.785187,21.931292 
	C284.063934,13.007947 302.960785,22.184010 306.423737,41.228531 
	C307.091797,44.902706 308.425812,46.785210 312.365875,47.862125 
	C327.101379,51.889694 334.494110,64.529289 331.407715,79.799309 
	C330.880798,82.406258 331.504364,83.614799 333.759125,84.926697 
	C343.132538,90.380470 347.253387,98.933197 347.069000,109.525436 
	C347.007141,113.079361 347.841278,116.271210 349.694092,118.972404 
	C354.400940,125.834564 358.141052,133.308594 366.075836,137.738480 
	C382.503265,146.909653 398.522217,156.814438 414.675507,166.473755 
	C420.893646,170.192032 421.975494,174.107208 418.375580,180.140472 
	C412.743256,189.579987 407.011658,198.961243 401.231628,208.311234 
	C398.150360,213.295563 393.562073,214.775955 389.454315,212.339584 
	C385.339691,209.899170 384.435608,205.260742 387.440704,200.075302 
	C391.197968,193.592041 395.187866,187.242157 399.150238,180.880127 
	C400.441101,178.807617 401.147644,177.018799 398.478760,175.471481 
	C391.161987,171.229431 383.869354,166.945709 376.610565,162.703857 
	C373.976654,164.845032 373.001495,167.585403 371.211975,170.171661 
M215.325409,83.647263 
	C215.821396,95.586205 210.535080,104.067535 199.929688,109.351669 
	C197.928268,110.348885 196.468277,111.229019 196.723801,114.157471 
	C198.088394,129.796143 188.173492,141.878738 172.239258,143.726852 
	C167.982117,144.220612 165.562073,145.288345 164.913101,149.847107 
	C164.418076,153.324341 162.298935,156.243683 160.061905,159.012955 
	C155.329636,164.871078 148.876434,167.564133 141.482239,169.033966 
	C142.054153,170.473495 142.360855,171.586060 142.906067,172.565918 
	C149.382568,184.205460 156.003601,195.766418 162.327972,207.487595 
	C164.122498,210.813477 166.564514,212.861130 169.962692,214.170609 
	C187.121140,220.782486 204.397141,221.060089 220.859482,212.865402 
	C249.772064,198.473175 278.287506,183.282578 306.956329,168.401398 
	C317.449738,162.954529 327.995178,157.597885 338.346466,151.890991 
	C344.609619,148.438004 346.103912,141.904404 342.376434,136.689423 
	C339.191406,132.233337 333.575439,130.969009 328.053284,133.748337 
	C314.817169,140.410156 301.667908,147.244629 288.427521,153.897842 
	C282.973175,156.638626 278.617767,155.552536 276.319000,151.223206 
	C273.957916,146.776443 275.767700,142.497482 281.365295,139.583160 
	C295.249420,132.354538 309.169586,125.195076 323.049347,117.958138 
	C330.302979,114.176071 332.726776,108.634880 329.703094,103.050797 
	C326.555084,97.237221 320.372986,95.818451 313.264557,99.515045 
	C307.061188,102.740967 300.986847,106.214417 294.842041,109.553711 
	C286.358917,114.163757 277.948700,118.919632 269.337494,123.277618 
	C264.870514,125.538292 260.822144,123.963249 258.729034,119.923912 
	C256.640717,115.893845 257.834564,111.940056 262.036652,109.265366 
	C263.719757,108.194016 265.495300,107.264961 267.247467,106.305344 
	C281.123596,98.705940 295.003784,91.113907 308.883820,83.521683 
	C312.200958,81.707222 315.035522,79.450996 315.724487,75.451035 
	C316.456543,71.201050 315.636200,67.389839 311.783691,64.911163 
	C307.593414,62.215179 303.281464,62.591290 299.019531,64.921089 
	C283.532959,73.386856 268.074280,81.904594 252.532166,90.267151 
	C247.260712,93.103493 242.686264,91.948242 240.503616,87.686111 
	C238.231705,83.249741 239.824478,78.930672 244.938126,76.054131 
	C249.726715,73.360435 254.585953,70.792358 259.413544,68.167984 
	C267.605682,63.714584 275.855194,59.362770 283.971893,54.775894 
	C291.191498,50.695992 292.869598,43.542698 288.110718,38.165634 
	C284.587250,34.184460 279.308350,33.433990 273.545837,36.520729 
	C253.880463,47.054672 234.293411,57.734783 214.633820,68.279579 
	C212.139038,69.617706 211.167267,70.912987 212.697266,73.717621 
	C214.202057,76.476051 215.413818,79.451263 215.325409,83.647263 
M95.145256,248.430145 
	C98.125870,253.714767 101.106476,258.999390 104.219551,264.518829 
	C113.102272,259.533630 121.645988,255.525772 129.512146,250.288177 
	C128.174301,245.984482 125.804527,242.736740 123.859123,239.280777 
	C110.467110,215.490005 96.965645,191.760239 83.713127,167.892166 
	C81.355919,163.646790 79.196373,162.464935 74.823402,165.224350 
	C69.625885,168.504089 64.110062,171.302124 58.617931,174.083298 
	C55.547943,175.637909 55.022709,177.306931 56.758900,180.359619 
	C69.515778,202.789719 82.147842,225.290787 95.145256,248.430145 
M130.404327,218.006119 
	C131.406860,219.278168 131.621948,221.139404 133.760986,222.152222 
	C138.150909,219.533569 143.295685,217.696991 147.589355,213.865265 
	C140.517456,201.307175 133.223099,189.193253 126.777611,176.643372 
	C121.599602,166.561371 115.310760,157.903427 105.532265,151.767456 
	C101.624420,149.315277 99.638145,152.117737 97.066353,153.341232 
	C93.972794,154.812958 95.933334,156.950485 96.944229,158.745605 
	C107.960190,178.307587 119.001999,197.854996 130.404327,218.006119 
M355.534241,157.952560 
	C350.908783,164.814880 343.311310,167.409760 336.542389,171.202179 
	C333.672607,172.810028 330.233856,173.719986 328.384674,176.698761 
	C321.725311,187.426315 315.180786,198.225128 308.590363,208.995453 
	C307.357391,211.010452 307.356934,212.644379 309.710022,213.936890 
	C313.465607,215.999756 317.139496,218.211395 321.400940,220.680542 
	C321.835052,219.930450 322.158295,219.345016 322.506256,218.774673 
	C335.141388,198.065720 347.787445,177.363419 360.390442,156.634933 
	C361.019043,155.601013 362.135345,154.283859 360.398773,153.205963 
	C358.614136,152.098251 358.126953,153.734482 357.438446,154.785034 
	C356.893036,155.617264 356.437531,156.508408 355.534241,157.952560 
M162.079727,100.485146 
	C157.766205,98.000771 153.589005,95.228294 149.104126,93.106010 
	C143.676712,90.537704 137.763260,92.491646 135.206085,97.153435 
	C132.605347,101.894646 134.062683,107.904419 139.104858,111.060875 
	C147.544678,116.344315 156.108078,121.444084 164.775894,126.344505 
	C170.183655,129.401825 176.559952,127.446457 179.479034,122.323044 
	C182.246307,117.466072 180.772568,111.982033 175.507828,108.561005 
	C171.335602,105.849907 166.972977,103.431839 162.079727,100.485146 
M168.115814,61.186897 
	C161.175995,59.280384 156.306854,61.192745 153.979263,66.739044 
	C151.819656,71.885124 153.596619,76.512787 159.468765,80.111702 
	C166.984924,84.718208 174.571884,89.215401 182.226501,93.587860 
	C188.321899,97.069656 194.963531,95.626656 197.956863,90.435440 
	C200.872147,85.379578 198.875046,79.298569 192.895264,75.690468 
	C184.920059,70.878326 176.853439,66.217720 168.115814,61.186897 
M204.406082,54.945824 
	C209.706329,48.812366 209.213776,42.937172 202.659042,38.519409 
	C198.130768,35.467442 193.378601,32.701012 188.533096,30.178465 
	C182.764816,27.175524 176.680801,28.891441 173.898651,33.901279 
	C170.925232,39.255535 172.477188,44.509640 178.391220,48.323547 
	C182.290512,50.838165 186.406586,53.014359 190.343842,55.472996 
	C194.888519,58.310947 199.334763,58.573723 204.406082,54.945824 
M132.271011,150.274094 
	C139.472733,153.872177 145.599258,152.686188 148.711990,147.091339 
	C151.817841,141.508835 149.687881,136.274658 142.547729,132.023514 
	C138.552994,129.645111 134.592407,127.200462 130.512817,124.975647 
	C125.139931,122.045525 119.060081,123.595955 116.144592,128.452484 
	C112.984245,133.716904 114.181961,138.898392 119.727692,142.629044 
	C123.580315,145.220718 127.666397,147.465347 132.271011,150.274094 
M289.142151,208.734146 
	C293.688080,203.462509 296.635010,197.231613 299.443085,190.544815 
	C284.749359,198.212570 270.055634,205.880325 254.118851,214.196747 
	C267.142090,215.815063 278.069977,214.054123 289.142151,208.734146 
z"/>
<path fill="#000000" opacity="1.000000" stroke="none" 
	d="
M383.078552,231.087189 
	C383.985077,234.871124 383.945282,238.079529 380.856934,240.486053 
	C378.441681,242.368057 375.768341,242.975861 372.935181,241.672089 
	C369.831085,240.243622 367.789368,237.742722 367.920868,234.290054 
	C368.048218,230.946335 369.780121,228.065826 373.126587,227.071121 
	C377.109619,225.887222 380.729858,226.664825 383.078552,231.087189 
z"/>
</svg>