<?xml version="1.0"?>
<svg width="493" height="404" xmlns="http://www.w3.org/2000/svg" xmlns:svg="http://www.w3.org/2000/svg" enable-background="new 0 0 493 404" version="1.1" xml:space="preserve">
 <g class="layer">
  <title>Layer 1</title>
  <path d="m42.99,309c0,-38.67 0,-76.83 0,-115c0,-11.28 1.07,-12.37 12.14,-12.37c24.33,0 48.67,0 73,0c1.82,0 3.64,0 6.12,0c0,-4.21 0.32,-8.18 -0.08,-12.09c-0.61,-6 2,-9.42 7.16,-12.26c27.53,-15.19 54.87,-30.72 82.37,-45.96c3.31,-1.83 4.67,-3.72 4.63,-7.67c-0.22,-23.99 -0.11,-47.99 -0.11,-71.99c0,-1.17 -0.04,-2.34 0.01,-3.5c0.26,-5.17 2.89,-8.23 6.93,-8.12c3.85,0.1 6.34,3.04 6.59,7.94c0.11,2.11 0.02,4.24 0.02,6.69c14.36,0 28.16,0 41.96,0c10.81,0 12.06,1.23 12.14,11.97c0.01,1.29 0,2.57 0,4.31c7.88,0 15.34,-0.06 22.79,0.02c7.04,0.07 10.36,4.14 7.16,10.39c-4.83,9.45 -4.1,18.06 0.05,27.36c2.79,6.28 -0.47,10.37 -7.37,10.39c-16.84,0.07 -33.67,0.06 -50.5,0.01c-6.05,-0.02 -8.12,-2.1 -8.3,-8.06c-0.08,-2.62 -0.01,-5.25 -0.01,-8.12c-6.06,0 -11.67,0 -17.88,0c0,8.07 -0.13,16.18 0.14,24.27c0.04,1.15 1.86,2.55 3.16,3.29c27.09,15.3 54.09,30.76 81.43,45.6c6.95,3.77 10.43,8.11 9.28,16.04c-0.42,2.92 -0.07,5.96 -0.07,9.59c2.1,0 3.87,0 5.64,0c25,0 50,0 75,0c8.83,0.01 10.62,1.75 10.62,10.37c0,55.16 0,110.33 0,165.49c0,8.65 -1.82,10.44 -10.56,10.45c-121,0 -241.99,0 -362.99,-0.01c-8.66,0 -10.46,-1.82 -10.47,-10.53c0,-16 0,-32 0,-48.5m267.49,45.83c4.08,0 8.16,0 12.08,0c0.19,-1.15 0.3,-1.48 0.29,-1.81c-0.06,-59.81 -0.16,-119.63 -0.13,-179.44c0,-3.33 -1.19,-5.01 -3.99,-6.57c-27.03,-15.06 -53.96,-30.29 -81.02,-45.28c-1.46,-0.81 -4.2,-0.69 -5.7,0.15c-27.04,15.04 -53.95,30.31 -80.98,45.35c-3.04,1.69 -3.99,3.55 -3.98,6.94c0.1,58.48 0.07,116.96 0.08,175.45c0,1.61 0.15,3.21 0.23,4.9c11.1,0 21.83,0 32.87,0c0,-2.13 0,-3.94 0,-5.76c0,-24.33 -0.02,-48.65 0.01,-72.98c0.01,-7.62 2.21,-9.79 9.82,-9.79c29.83,-0.01 59.65,-0.01 89.48,0c8.21,0 10.22,2.04 10.23,10.39c0.01,24.32 0,48.65 0,72.98c0,1.74 0,3.48 0,5.47c7.1,0 13.41,0 20.71,0m-176.22,-17.33c0,-47.4 0,-94.8 0,-142.09c-26.41,0 -52.11,0 -77.67,0c0,53.31 0,106.2 0,159.18c25.96,0 51.55,0 77.67,0c0,-5.52 0,-10.81 0,-17.09m276.83,17.33c4.16,0.04 2.62,-3.16 2.63,-5.07c0.07,-49.99 0.06,-99.98 0.05,-149.97c0,-1.46 -0.16,-2.91 -0.24,-4.48c-26.03,0 -51.76,0 -77.51,0c0,53.22 0,106.14 0,159.53c24.89,0 49.52,0 75.07,-0.01m-217.32,-29.33c0,9.62 0,19.23 0,29.02c11.71,0 22.93,0 34.11,0c0,-25.2 0,-50.08 0,-75.07c-11.43,0 -22.51,0 -34.11,0c0,15.17 0,30.11 0,46.05m67.72,-46.29c-6.44,0 -12.89,0 -19.42,0c0,25.45 0,50.33 0,75.25c11.51,0 22.71,0 33.75,0c0,-25.25 0,-50.13 0,-75.25c-4.71,0 -9.02,0 -14.33,0m-4.99,-209.83c8.45,0 16.89,0 25.52,0c0,-7.33 0,-14.2 0,-21.1c-13.54,0 -26.76,0 -39.87,0c0,7.2 0,14.09 0,21.1c4.7,0 9.03,0 14.35,0m38.02,10.09c-2.47,1.06 -4.87,2.69 -7.44,3.05c-3.76,0.52 -7.65,0.02 -11.47,0.22c-0.95,0.05 -1.84,1.15 -2.75,1.76c0.88,0.48 1.76,1.37 2.64,1.38c11.65,0.09 23.3,0.06 36,0.06c-4.9,-7.16 -4.16,-14.21 -0.99,-21.39c-5.31,0 -10,0 -14.73,0c-0.29,4.96 -0.55,9.56 -1.26,14.92z" fill="#050505" id="svg_2" opacity="1"/>
  <path d="m214.45,186.53c-11.02,-13.89 -8.7,-32.09 5.02,-41.42c13.51,-9.19 31.99,-4.57 39.95,9.98c6.51,11.9 3.11,26.85 -8.02,35.22c-11.13,8.38 -26.01,6.95 -36.95,-3.78m6.54,-15.56c2.16,7.17 6.67,11.09 13.28,11.53c5.59,0.37 11.38,-3.04 13.79,-8.13c2.44,-5.15 1.32,-12.08 -2.62,-16.26c-3.92,-4.16 -10.39,-5.64 -15.57,-3.56c-6.31,2.53 -9.18,7.53 -8.88,16.42z" fill="#060607" id="svg_10" opacity="1"/>
  <path d="m244.53,253.62c-7.72,0 -14.98,0 -22.52,0c0,-4.46 0,-8.53 0,-12.98c8.52,0 17.03,0 26.25,0c0,3.44 0.22,7.04 -0.15,10.57c-0.09,0.9 -2.04,1.61 -3.58,2.41z" fill="#101010" id="svg_11" opacity="1"/>
  <path d="m167.33,243.38c1.03,-1.34 2.03,-2.98 3.09,-3.01c7.61,-0.22 15.22,-0.12 23.22,-0.12c0,4.49 0,8.67 0,13.12c-8.63,0 -17.18,0 -26.31,0c0,-3.33 0,-6.43 0,-9.99z" fill="#131313" id="svg_12" opacity="1"/>
  <path d="m294.88,240.25c2.63,0 4.78,0 7.36,0c0,4.4 0,8.57 0,13.07c-8.57,0 -17.1,0 -25.95,0c0,-4.17 0,-8.23 0,-13.07c5.98,0 12.04,0 18.59,0z" fill="#131313" id="svg_13" opacity="1"/>
  <path d="m302.65,213.37c0,3.24 0,6.04 0,9.12c-9.04,0 -17.59,0 -26.4,0c0,-4.3 0,-8.38 0,-12.93c8.1,0 16.07,-0.1 24.03,0.14c0.82,0.03 1.58,2.1 2.37,3.67z" fill="#0B0B0B" id="svg_14" opacity="1"/>
  <path d="m185.91,222.79c-6.28,0 -12.08,0 -18.21,0c0,-4.44 0,-8.51 0,-12.92c8.56,0 17.12,0 26,0c0,4.11 0,8.17 0,12.92c-2.44,0 -4.87,0 -7.79,0z" fill="#0B0B0B" id="svg_15" opacity="1"/>
  <path d="m248.24,215.09c0,2.61 0,4.75 0,7.28c-8.76,0 -17.25,0 -26.11,0c0,-3.98 0,-8.02 0,-12.44c8.42,0 16.92,0 25.89,0c0.07,1.53 0.14,3.11 0.22,5.16z" fill="#080808" id="svg_16" opacity="1"/>
  <path d="m72.06,279.94c0,-6.28 0,-12.07 0,-18.1c4.45,0 8.55,0 13.06,0c0,8.48 0,17 0,25.9c-4.11,0 -8.3,0 -13.06,0c0,-2.44 0,-4.87 0,-7.8z" fill="#0C0C0C" id="svg_17" opacity="1"/>
  <path d="m84.51,235.88c-4.25,0.11 -8.05,0.11 -12.15,0.11c0,-8.8 0,-17.35 0,-26.17c4.13,0 8.24,0 12.6,0c0,8.61 0,17.28 -0.45,26.06z" fill="#0B0B0B" id="svg_18" opacity="1"/>
  <path d="m72.1,338.74c-0.03,-8.4 -0.03,-16.33 -0.03,-24.59c4.45,0 8.66,0 13.17,0c0,8.49 0,17.02 0,26.32c-4.51,-0.43 -8.81,-0.84 -13.14,-1.73z" fill="#0C0C0C" id="svg_19" opacity="1"/>
  <path d="m104.84,267.04c0,-1.96 0,-3.42 0,-5.14c4.5,0 8.57,0 12.93,0c0,8.51 0,17.08 0,25.92c-4.14,0 -8.2,0 -12.93,0c0,-6.78 0,-13.53 0,-20.78z" fill="#030303" id="svg_20" opacity="1"/>
  <path d="m118.04,223.99c0,4.13 0,7.77 0,11.7c-4.43,0 -8.63,0 -13.01,0c0,-8.61 0,-17.02 0,-25.77c4.2,0 8.29,0 13.01,0c0,4.38 0,8.98 0,14.07z" fill="#020202" id="svg_21" opacity="1"/>
  <path d="m104.85,319.07c0,-1.94 0,-3.38 0,-5.02c4.54,0 8.61,0 12.93,0c0,8.61 0,17.13 0,25.85c-4.24,0 -8.31,0 -12.93,0c0,-6.87 0,-13.61 0,-20.83z" fill="#020202" id="svg_22" opacity="1"/>
  <path d="m388.4,209.55c3.25,0 6.06,0 9.2,0c0,8.85 0,17.37 0,26.18c-4.21,0 -8.44,0 -13.12,0c0,-7.89 -0.12,-15.68 0.15,-23.45c0.03,-0.95 2.17,-1.82 3.77,-2.73z" fill="#0B0B0B" id="svg_23" opacity="1"/>
  <path d="m397.81,262.6c0.1,8.57 0.1,16.69 0.1,25.16c-4.46,0 -8.68,0 -13.17,0c0,-8.58 0,-17.14 0,-26.38c4.5,0.27 8.73,0.53 13.07,1.22z" fill="#0C0C0C" id="svg_24" opacity="1"/>
  <path d="m397.94,336.82c-0.76,1.42 -1.45,3.09 -2.27,3.16c-3.58,0.3 -7.19,0.13 -10.99,0.13c0,-8.86 0,-17.25 0,-25.98c4.32,0 8.52,0 13.26,0c0,7.41 0,14.8 0,22.69z" fill="#0C0C0C" id="svg_25" opacity="1"/>
  <path d="m357.02,261.62c2.81,0 5.13,0 7.79,0c0,8.77 0,17.31 0,26.16c-4.07,0 -8.14,0 -12.53,0c0,-8.47 0,-17.02 0,-26.16c1.4,0 2.82,0 4.74,0z" fill="#030303" id="svg_26" opacity="1"/>
  <path d="m365.15,217.02c0,6.46 0,12.43 0,18.68c-4.33,0 -8.42,0 -12.85,0c0,-8.4 0,-16.94 0,-25.8c3.99,0 8.05,0 12.85,0c0,2.12 0,4.37 0,7.12z" fill="#020202" id="svg_27" opacity="1"/>
  <path d="m351.96,323.03c0,-3.27 0,-6.05 0,-9.01c4.51,0 8.58,0 12.92,0c0,8.55 0,16.94 0,25.7c-4.03,0 -8.22,0 -12.92,0c0,-5.35 0,-10.78 0,-16.69z" fill="#020202" id="svg_28" opacity="1"/>
 </g>
</svg>