<?xml version="1.0"?>
<svg width="449" height="407" xmlns="http://www.w3.org/2000/svg" xmlns:svg="http://www.w3.org/2000/svg" enable-background="new 0 0 449 407" version="1.1" xml:space="preserve">
 <g class="layer">
  <title>Layer 1</title>
  <path d="m404,204c0,48.99 0.01,97.48 0,145.97c0,14.32 -6.77,21.03 -21.2,21.03c-105.81,0 -211.63,0 -317.44,0c-14.7,0 -21.36,-6.66 -21.36,-21.37c0,-97.81 0,-195.63 0,-293.44c0,-14.43 6.71,-21.18 21.04,-21.19c4.8,-0.01 9.61,0 14.95,0c-0.35,-7.84 0.05,-15.62 7.22,-20.11c3.46,-2.17 8.02,-3.71 12.04,-3.64c10.92,0.19 16.14,7.81 16.94,23.46c15.73,0 31.47,0 47.76,0c-0.28,-7.48 0.06,-15.28 7.21,-19.79c3.46,-2.17 8.01,-3.73 12.04,-3.67c10.97,0.15 16.34,7.96 16.95,23.44c15.72,0 31.47,0 47.81,0c-0.33,-7.6 0.15,-15.54 7.55,-20.03c3.49,-2.12 8.1,-3.54 12.12,-3.38c10.84,0.44 16.06,8.26 16.47,23.39c15.73,0 31.48,0 47.86,0c-0.32,-7.52 0.1,-15.48 7.5,-19.98c3.49,-2.12 8.09,-3.56 12.11,-3.42c10.88,0.41 16.18,8.3 16.52,23.73c5.04,0 10.13,-0.01 15.21,0c13.75,0.02 20.69,6.88 20.7,20.53c0.01,49.32 0,98.65 0,148.47m-145.5,155c41.49,0 82.97,0 124.46,-0.01c7.31,0 9.03,-1.74 9.03,-9.12c0.01,-79.47 0.01,-158.95 0,-238.42c0,-1.43 -0.15,-2.86 -0.22,-4.17c-112.1,0 -223.81,0 -335.77,0c0,1.75 0,3.22 0,4.7c0,79.14 0,158.28 0,237.42c0,8.04 1.56,9.6 9.56,9.6c63.98,0 127.96,0 192.94,0m71,-264c20.76,0 41.52,0 62.49,0c0,-14.21 0.02,-27.85 -0.01,-41.49c-0.01,-3.44 -1.76,-6.1 -5.14,-6.31c-6.24,-0.39 -12.51,-0.11 -18.74,-0.11c-0.39,15.33 -5.64,23.18 -16.48,23.63c-4.02,0.16 -8.63,-1.29 -12.12,-3.39c-7.43,-4.49 -7.83,-12.45 -7.55,-20.02c-16.34,0 -32.08,0 -47.81,0c-0.58,15.44 -5.98,23.28 -16.96,23.44c-4.02,0.06 -8.57,-1.51 -12.03,-3.69c-7.16,-4.5 -7.44,-12.32 -7.23,-19.77c-16.27,0 -32.01,0 -47.73,0c-0.78,15.6 -6.03,23.27 -16.95,23.46c-4.03,0.07 -8.58,-1.49 -12.04,-3.65c-7.19,-4.49 -7.5,-12.3 -7.27,-20.1c-8.29,0 -16.1,0 -23.91,0c-7.94,0 -15.88,0 -23.77,0c-1,16.21 -6.39,23.85 -17.45,23.76c-4.03,-0.03 -8.53,-1.69 -11.95,-3.93c-6.89,-4.52 -7.15,-12.16 -6.91,-19.83c-5.92,0 -11.39,-0.08 -16.86,0.03c-4.86,0.09 -6.98,2.19 -7.05,7.04c-0.11,7.17 -0.03,14.33 -0.03,21.5c0,6.42 0,12.85 0,19.43c91.25,0 181.88,0 273.5,0m-61.56,-71.63c-5.55,-0.37 -7.84,1.47 -7.92,6.74c-0.1,7.29 -0.03,14.59 -0.02,21.89c0,4.09 1.88,6.9 6.11,6.87c3.94,-0.04 5.85,-2.71 5.88,-6.59c0.04,-7.46 0.25,-14.94 -0.14,-22.38c-0.12,-2.1 -2.1,-4.1 -3.91,-6.53m88.06,23.03c-0.01,-5.83 0.12,-11.66 -0.07,-17.48c-0.12,-3.44 -2.21,-5.65 -5.66,-5.82c-3.47,-0.17 -6,1.89 -6.11,5.27c-0.29,8.48 -0.43,17 0.19,25.45c0.13,1.84 3.67,4.77 5.64,4.77c1.97,0 4.51,-2.71 5.74,-4.84c0.94,-1.63 0.24,-4.22 0.27,-7.35m-169,9.73c0.33,-1.26 0.94,-2.52 0.95,-3.78c0.09,-7.46 0.07,-14.93 0.05,-22.39c-0.01,-4.08 -1.91,-6.92 -6.14,-6.83c-4.23,0.1 -5.89,3.05 -5.87,7.1c0.03,7.13 -0.26,14.28 0.16,21.38c0.14,2.27 1.59,5.44 3.38,6.34c1.71,0.87 4.64,-0.65 7.47,-1.82m-83,-19.56c0,-2.33 0.05,-4.67 -0.02,-7c-0.12,-3.9 -2.07,-6.49 -6.05,-6.45c-3.97,0.05 -5.89,2.68 -5.92,6.58c-0.04,7.5 -0.02,14.99 -0.01,22.48c0.01,3.9 1.87,6.61 5.82,6.69c4.25,0.08 6.16,-2.73 6.18,-6.84c0.02,-4.83 0,-9.66 0,-15.46z" fill="#010101" id="svg_2" opacity="1"/>
  <path d="m238,125c22.66,0 44.82,-0.01 66.99,0c7.29,0.01 9.01,1.75 9.01,9.15c0,65.99 0,131.97 0,197.96c0,7.05 -1.81,8.88 -8.78,8.89c-54.15,0 -108.31,0 -162.46,0c-6.97,-0.01 -8.76,-1.83 -8.76,-8.91c0,-66.15 0,-132.3 0.01,-198.45c0,-6.75 1.85,-8.63 8.51,-8.63c31.66,-0.02 63.32,-0.01 95.48,-0.01m64,45.5c0,-11.1 0,-22.19 0,-33.21c-52.31,0 -104.05,0 -155.71,0c0,64.02 0,127.76 0,191.42c52.02,0 103.76,0 155.71,0c0,-52.6 0,-104.9 0,-158.21z" fill="#000000" id="svg_9" opacity="1"/>
  <path d="m187.05,221.01c-1.92,-0.07 -3.38,-0.14 -4.99,-0.21c0,-1.92 0,-3.55 0,-5.79c-5.42,0 -10.69,0.03 -15.96,-0.01c-7.27,-0.07 -10.33,-4.19 -6.5,-10.18c5.09,-7.97 4.34,-16.45 4.4,-25.02c0.05,-8.56 3.25,-15.59 10.38,-20.47c7.63,-5.23 15.89,-5.83 24.15,-1.83c8.3,4.01 12.63,11.03 13.4,20.2c0.2,2.31 0.21,4.66 0.05,6.98c-0.49,6.94 0.64,13.33 4.19,19.56c3.9,6.87 1.22,10.71 -6.66,10.76c-4.98,0.03 -9.95,0.01 -15.25,0.01c-0.14,1.94 -0.27,3.68 -0.45,6c-2.07,0 -4.17,0 -6.76,0m-9.2,-48.37c-0.62,2.88 -1.61,5.74 -1.77,8.64c-0.42,7.16 -0.45,14.35 -0.64,21.43c8.14,0 17.17,0 25.17,0c-0.21,-7.48 -0.55,-14.7 -0.57,-21.92c-0.02,-5.86 -1.91,-10.47 -7.57,-12.79c-5.69,-2.34 -10.37,-0.53 -14.62,4.64z" fill="#030303" id="svg_11" opacity="1"/>
  <path d="m281.95,191c-17.46,0 -34.43,0 -51.67,0c0,-3.98 0,-7.71 0,-11.73c19.7,0 39.44,0 59.45,0c0,3.71 0,7.45 0,11.73c-2.41,0 -4.85,0 -7.78,0z" fill="#000000" id="svg_13" opacity="1"/>
  <path d="m269,203c7.14,0 13.78,0 20.71,0c0,3.95 0,7.69 0,11.72c-19.66,0 -39.4,0 -59.42,0c0,-3.67 0,-7.41 0,-11.72c12.69,0 25.45,0 38.71,0z" fill="#000000" id="svg_14" opacity="1"/>
  <path d="m260.99,155c3.8,0 7.11,0 10.72,0c0,3.94 0,7.68 0,11.71c-7.65,0 -15.39,0 -23.42,0c0,-3.65 0,-7.39 0,-11.71c4,0 8.1,0 12.7,0z" fill="#000000" id="svg_17" opacity="1"/>
 </g>
</svg>