<svg version="1.1" id="Layer_1" xmlns="http://www.w3.org/2000/svg" xmlns:xlink="http://www.w3.org/1999/xlink" x="0px" y="0px"
	 width="100%" viewBox="0 0 512 432" enable-background="new 0 0 512 432" xml:space="preserve">
<path fill="#000000" opacity="1.000000" stroke="none" 
	d="
M340.066528,7.668148 
	C377.771576,6.589260 408.753143,32.412842 416.556732,65.689171 
	C422.853271,92.539116 416.619873,116.432648 398.000427,136.948196 
	C397.330017,137.686905 396.647766,138.417419 396.023346,139.193802 
	C395.834747,139.428375 395.822845,139.805084 395.713043,140.173599 
	C396.334473,142.007629 398.137268,142.256149 399.606140,142.881500 
	C407.917847,146.420074 415.707275,150.902710 423.113556,156.033524 
	C430.299377,161.011581 432.271912,170.138168 427.882355,177.212219 
	C423.393768,184.445862 413.969604,186.843781 406.432251,182.030243 
	C393.537292,173.795135 380.026581,167.005768 364.907959,164.251801 
	C327.734375,157.480362 294.544861,165.805328 266.062195,191.188309 
	C264.637482,192.457962 263.611908,193.849533 263.390656,195.807785 
	C261.452606,212.959396 254.249207,227.649155 242.565765,240.237991 
	C241.901337,240.953903 241.047165,241.572815 241.066757,243.223160 
	C246.384689,246.024429 251.974625,248.858582 257.452759,251.894516 
	C260.945099,253.829926 264.343445,255.957657 267.658325,258.186005 
	C275.352997,263.358643 277.465210,272.128052 272.926788,279.551147 
	C268.340912,287.051849 258.934052,289.394836 251.102661,284.369110 
	C238.795990,276.471497 225.853210,270.324310 211.516449,267.046448 
	C157.066223,254.597397 98.014549,284.991577 78.690071,339.003174 
	C74.137032,351.728821 80.459717,360.677887 93.867172,360.683197 
	C135.533081,360.699738 177.198990,360.699615 218.864868,360.672394 
	C225.000977,360.668396 230.481598,362.101257 234.189667,367.405823 
	C241.039124,377.204254 235.340866,389.982971 223.467056,391.505737 
	C221.161652,391.801422 218.819565,391.932373 216.494278,391.933594 
	C176.495026,391.954926 136.495560,391.866486 96.496628,391.980682 
	C81.942924,392.022217 68.631432,388.989380 58.422577,377.799072 
	C46.588894,364.827698 42.594429,349.531067 48.013626,332.870239 
	C61.419891,291.653839 89.022102,263.108612 128.240005,245.382797 
	C129.878784,244.642105 131.778870,244.348923 133.244247,242.394516 
	C130.158676,237.880447 126.122116,233.946762 123.083397,229.242645 
	C93.160889,182.920761 118.210770,122.240356 172.290527,111.436760 
	C206.012772,104.700005 239.471695,120.460892 255.488937,151.905045 
	C257.577545,156.005310 259.252319,156.935196 263.235718,154.132812 
	C270.992706,148.675705 279.623474,144.682007 288.669342,140.603256 
	C262.552979,110.461830 256.783112,77.950783 277.333313,43.428532 
	C291.067291,20.356886 312.692535,8.909642 340.066528,7.668148 
M151.216141,215.265350 
	C159.922485,225.847412 171.119186,231.962585 184.777527,232.585663 
	C213.365280,233.889801 233.942154,209.497314 232.921890,184.702545 
	C231.663605,154.123657 198.525742,132.211288 170.456161,144.236816 
	C141.427124,156.673370 132.574844,188.378479 151.216141,215.265350 
M328.222504,40.634418 
	C308.943695,47.904110 296.901581,63.704559 296.331696,82.478378 
	C295.448944,111.558388 320.496643,133.829285 349.270874,129.548721 
	C375.672394,125.621140 393.224396,98.456871 386.419800,72.706818 
	C380.533936,50.433521 356.349548,32.581665 328.222504,40.634418 
z"/>
<path fill="#000000" opacity="1.000000" stroke="none" 
	d="
M400.024200,311.989258 
	C384.984802,333.001801 370.153748,353.724884 355.329102,374.452545 
	C340.090637,395.758759 313.725555,398.814331 294.575012,381.070953 
	C278.936096,366.581146 263.647125,351.707764 248.403275,336.799622 
	C239.229095,327.827454 241.817780,314.112976 253.230301,309.967377 
	C260.285645,307.404541 265.866852,310.323517 270.845581,315.101624 
	C285.267761,328.942719 299.697815,342.775696 314.107758,356.629578 
	C321.356110,363.598267 324.966187,363.256927 330.889587,354.988861 
	C354.265717,322.359528 377.650787,289.736633 401.019562,257.102020 
	C405.131775,251.359268 410.426331,248.063339 417.663879,249.652924 
	C424.502533,251.154861 428.748474,255.521744 429.946198,262.517853 
	C430.753632,267.234131 429.103912,271.333008 426.387512,275.121185 
	C417.652832,287.302338 408.950287,299.506531 400.024200,311.989258 
z"/>
</svg>