<svg version="1.1" id="Layer_1" xmlns="http://www.w3.org/2000/svg" xmlns:xlink="http://www.w3.org/1999/xlink" x="0px" y="0px"
	 width="100%" viewBox="0 0 528 448" enable-background="new 0 0 528 448" xml:space="preserve">
<path fill="#000000" opacity="1.000000" stroke="none" 
	d="
M232.668610,420.356201 
	C187.383789,420.360748 142.548843,419.758911 97.742996,420.638855 
	C77.511040,421.036194 55.191071,401.772125 54.650364,377.944183 
	C54.285957,361.885773 61.064442,348.116699 68.758034,334.848907 
	C85.005936,306.828979 108.517891,286.839386 138.185410,273.995148 
	C139.517731,273.418304 141.124603,273.250519 142.164322,271.342194 
	C124.267708,251.923798 115.529564,229.276108 120.273415,202.514862 
	C123.968346,181.670837 134.529327,164.880035 151.885361,152.883194 
	C171.905548,139.044846 193.981461,135.082169 217.536163,141.967041 
	C240.798019,148.766327 256.898712,164.099854 267.444214,186.068771 
	C277.387909,179.694672 286.952362,174.065140 298.227844,169.594055 
	C276.432220,146.525238 269.283325,120.059380 277.914948,90.126884 
	C282.776794,73.267128 293.029297,59.871082 307.508698,49.820316 
	C337.332794,29.118153 378.395691,32.407326 404.551575,57.672047 
	C420.342346,72.924805 428.231262,91.733253 428.225983,113.548630 
	C428.220703,135.188461 419.749817,153.616470 404.134735,169.417084 
	C408.028839,171.342407 411.222321,172.973145 414.459991,174.510818 
	C420.344360,177.305481 425.925354,180.633881 431.330566,184.239044 
	C439.474457,189.670898 441.851288,198.995712 437.127563,206.372360 
	C432.288361,213.929474 422.562469,215.808441 414.274780,210.258621 
	C391.330444,194.893967 366.038422,188.684723 338.773865,191.484146 
	C314.576660,193.968628 293.259186,203.558731 275.330475,220.251831 
	C274.089203,221.407547 272.841278,222.623856 272.626678,224.343491 
	C270.339111,242.673523 262.551361,258.331970 249.720245,271.249146 
	C250.153290,273.757935 252.157745,273.760498 253.564011,274.381134 
	C261.667664,277.957672 269.406281,282.188141 276.619385,287.319153 
	C284.618439,293.009247 286.587952,302.066986 281.638641,309.574219 
	C276.966675,316.660797 267.572235,318.437378 259.527313,313.264374 
	C245.930695,304.521545 231.507690,298.109741 215.475052,295.257965 
	C186.055008,290.024902 158.854721,295.926361 133.699921,311.454926 
	C111.703629,325.033691 96.551857,344.277985 87.222580,368.481079 
	C82.472549,380.804108 91.035934,390.347626 102.589798,390.226654 
	C142.742844,389.806152 182.903061,390.053314 223.060486,390.095764 
	C226.550079,390.099426 230.065369,390.260498 233.523178,390.703796 
	C240.621582,391.613831 246.227463,398.460571 246.179199,405.853790 
	C246.130310,413.342255 240.572861,419.517883 232.668610,420.356201 
M230.973511,245.453720 
	C240.432831,234.130981 243.867798,221.060898 241.021790,206.730148 
	C236.601334,184.471420 216.066086,169.106415 193.485535,170.081314 
	C166.561035,171.243774 144.944855,198.343689 150.984344,224.621017 
	C155.232162,243.102966 166.460526,255.545120 184.838898,260.273224 
	C202.659210,264.857819 217.984116,259.401459 230.973511,245.453720 
M353.228638,67.394592 
	C326.497772,67.234619 305.863007,86.741234 305.336914,112.667946 
	C304.836884,137.313004 325.199738,158.395767 350.107544,159.021286 
	C380.794556,159.791946 403.883545,130.683533 395.397766,101.207443 
	C389.516876,80.779739 375.109619,69.852776 353.228638,67.394592 
z"/>
<path fill="#000000" opacity="1.000000" stroke="none" 
	d="
M437.850281,356.379761 
	C434.288666,362.698029 428.993927,365.189148 422.324066,365.189087 
	C411.163147,365.188965 399.997864,365.373444 388.843414,365.105743 
	C384.363434,364.998260 383.158417,366.578949 383.252258,370.889191 
	C383.505981,382.544098 383.439148,394.210175 383.270477,405.868530 
	C383.167908,412.954437 378.173920,419.208496 372.289795,420.228851 
	C363.201141,421.804901 357.065918,419.094879 353.753418,412.145081 
	C352.706543,409.948608 352.619690,407.662140 352.620026,405.320770 
	C352.621582,394.326416 352.625183,383.332031 352.592896,372.337769 
	C352.572876,365.523743 352.252838,365.202057 345.623657,365.186615 
	C334.462830,365.160583 323.300140,365.283783 312.141785,365.113190 
	C305.650024,365.013947 300.706818,362.013214 297.622314,356.148621 
	C294.749023,350.685577 295.509277,345.470612 298.843079,340.588440 
	C302.227234,335.632507 307.252258,333.776154 313.092743,333.778503 
	C324.253662,333.783020 335.418213,333.614960 346.573761,333.859436 
	C351.046967,333.957489 352.804108,332.673584 352.687012,327.941040 
	C352.406921,316.620758 353.001404,305.271790 352.513062,293.965881 
	C352.075470,283.834045 360.480560,277.728973 367.766022,277.716797 
	C376.567902,277.702087 383.193939,284.482452 383.302399,293.884064 
	C383.433014,305.210144 383.540344,316.543793 383.251038,327.863770 
	C383.134491,332.422699 384.461151,333.982086 389.129120,333.856689 
	C400.115265,333.561554 411.116028,333.693787 422.109283,333.807007 
	C435.340149,333.943268 442.113312,343.475677 437.850281,356.379761 
z"/>
</svg>