<svg version="1.1" id="Layer_1" xmlns="http://www.w3.org/2000/svg" xmlns:xlink="http://www.w3.org/1999/xlink" x="0px" y="0px"
	 width="100%" viewBox="0 0 640 576" enable-background="new 0 0 640 576" xml:space="preserve">
<path fill="#000000" opacity="1.000000" stroke="none" 
	d="
M160.513596,281.133118 
	C164.745071,280.818665 168.593216,280.950623 172.388840,280.565247 
	C176.662369,280.131378 177.954483,281.969574 177.930695,285.975281 
	C177.837662,301.639526 177.926682,317.304840 177.947296,332.969757 
	C177.957581,340.797241 177.956863,340.788361 185.993118,340.787994 
	C208.324112,340.786957 230.655151,340.771790 252.986099,340.805084 
	C269.917725,340.830322 281.115234,352.053833 281.151581,369.024292 
	C281.188354,386.189087 281.293854,403.355469 281.091858,420.517883 
	C281.037933,425.098724 282.114227,426.923950 287.165466,426.888153 
	C317.827332,426.670746 348.492004,426.718048 379.154602,426.883026 
	C383.426025,426.906006 385.041199,425.576141 386.187866,421.329895 
	C398.302460,376.468933 427.428284,349.959259 473.153137,341.780670 
	C476.608246,341.162628 477.921021,339.747467 477.912079,336.216705 
	C477.819641,299.554108 477.759064,262.890717 477.945190,226.228897 
	C477.969788,221.380402 475.263641,220.887115 471.799316,220.353287 
	C451.498016,217.224808 433.612305,208.874710 418.298859,195.191742 
	C399.851044,178.708191 388.568512,158.177429 384.740387,133.752975 
	C383.940552,128.649811 382.272644,126.744896 376.896210,126.915512 
	C364.076904,127.322289 351.234558,127.180428 338.405334,126.994400 
	C334.238434,126.933975 332.483185,128.463043 332.999451,132.534164 
	C333.716553,138.188736 331.808502,141.688293 326.123077,144.023010 
	C317.980530,147.366776 310.337036,151.909286 302.382263,155.735809 
	C299.443359,157.149521 298.195343,159.028488 298.255066,162.326340 
	C298.424042,171.655731 298.170441,180.993973 298.409973,190.320328 
	C298.517517,194.507629 296.835388,195.958191 292.858215,195.940964 
	C274.860535,195.862976 256.862274,195.887558 238.864319,195.922592 
	C235.910538,195.928360 233.380844,194.812180 230.818130,193.542068 
	C215.607712,186.003555 200.768280,177.581268 183.945694,173.866547 
	C177.596710,172.464584 171.255478,171.177032 164.721466,170.864899 
	C161.829926,170.726776 160.323563,171.234741 160.369263,174.497574 
	C160.544296,186.991547 160.703522,199.488419 160.595108,211.981842 
	C160.566269,215.303848 162.778839,216.085938 164.865448,217.366776 
	C178.911179,225.988602 182.036575,243.401352 171.643768,255.655762 
	C166.747528,261.429016 160.237564,264.394196 152.786148,264.678833 
	C140.302246,265.155701 127.772903,265.542755 115.320312,264.519714 
	C100.179344,263.275848 90.083534,252.015976 89.994812,236.830078 
	C89.870201,215.499664 89.846443,194.167236 90.021523,172.837677 
	C90.055817,168.659576 88.871513,166.334351 84.966988,164.351807 
	C62.397427,152.891922 51.349968,128.963242 57.164429,104.947525 
	C62.884018,81.323654 84.247887,64.896935 109.335724,64.859451 
	C123.834183,64.837784 138.332687,64.854500 152.831177,64.849770 
	C174.212234,64.842789 194.724243,60.453705 213.293137,49.934410 
	C228.296356,41.435081 243.622437,37.290546 260.865814,38.790108 
	C271.286041,39.696297 281.851288,39.085369 292.346985,38.902637 
	C296.874725,38.823811 298.536896,40.504723 298.404419,45.085491 
	C298.139648,54.243225 298.447510,63.416252 298.289093,72.578995 
	C298.232635,75.843468 299.329437,77.772003 302.328278,79.194199 
	C310.454132,83.047821 318.331726,87.440331 326.538757,91.101326 
	C331.297180,93.223961 333.811981,96.032188 333.018188,101.367393 
	C332.294250,106.232971 334.129456,108.149536 339.358093,108.000267 
	C351.679871,107.648529 364.027618,107.630409 376.346863,108.030762 
	C381.701477,108.204788 383.791748,106.717140 384.701141,101.194504 
	C389.702820,70.820778 405.252533,47.077801 430.895905,30.020267 
	C488.232361,-8.119036 568.938049,22.053860 587.315308,88.475594 
	C603.325989,146.343704 569.999268,204.051254 512.165955,218.535141 
	C508.944794,219.341873 505.654205,219.983337 502.356812,220.345261 
	C498.257568,220.795212 496.829102,222.702118 496.860596,226.901428 
	C497.041992,251.064240 496.960327,275.229034 496.969482,299.393158 
	C496.974091,311.558533 497.074860,323.724945 496.935120,335.888641 
	C496.890015,339.815796 498.279449,341.408813 502.312500,341.911194 
	C546.279846,347.387512 584.224792,385.017700 590.288879,428.837891 
	C594.836853,461.702545 586.484131,490.999603 564.043579,515.248352 
	C517.401672,565.648315 440.975616,558.105347 402.962372,505.759796 
	C391.273407,489.663696 385.111176,471.574677 383.339142,451.992218 
	C382.862335,446.723541 380.762390,445.800964 376.169891,445.832550 
	C353.340088,445.989532 330.508423,445.923706 307.677643,445.859406 
	C301.183289,445.841125 294.690430,445.498871 288.195496,445.424072 
	C281.181061,445.343292 281.163208,445.404053 281.160370,452.272034 
	C281.151123,474.769684 281.164398,497.267303 281.151794,519.764954 
	C281.141602,538.002808 270.130341,549.090820 251.968033,549.098450 
	C196.140518,549.122009 140.313019,549.131958 84.485512,549.121765 
	C66.758018,549.118469 55.717941,538.112793 55.714485,520.480896 
	C55.704586,469.986176 55.706062,419.491425 55.720936,368.996704 
	C55.725941,351.999268 66.866592,340.823761 83.859840,340.798828 
	C106.690735,340.765350 129.521729,340.797577 152.352676,340.788544 
	C158.873428,340.785950 158.887543,340.765228 158.892838,334.052460 
	C158.905045,318.554077 158.885742,303.055695 158.924576,287.557404 
	C158.929886,285.438751 158.501236,283.186523 160.513596,281.133118 
M74.216682,471.500000 
	C74.235039,487.491669 74.206802,503.483551 74.291634,519.474854 
	C74.333366,527.341919 77.024147,529.996582 84.819054,530.001221 
	C140.457870,530.034424 196.096680,530.049377 251.735504,530.045227 
	C260.218811,530.044556 262.684265,527.532410 262.688202,518.974060 
	C262.711029,469.498810 262.718842,420.023590 262.717529,370.548340 
	C262.717316,362.340546 259.842255,359.396301 251.643921,359.346954 
	C240.316650,359.278748 228.984146,359.505493 217.663269,359.225830 
	C213.120407,359.113586 212.004013,360.846924 212.071838,365.070068 
	C212.283188,378.226746 212.164139,391.388947 212.145370,404.548981 
	C212.136505,410.764771 211.827728,411.112244 205.686691,411.116394 
	C180.699219,411.133179 155.711273,411.031830 130.724609,411.169525 
	C126.252495,411.194153 124.547897,409.857056 124.636391,405.168304 
	C124.894089,391.513397 124.622520,377.849213 124.781738,364.191315 
	C124.824921,360.486542 123.564056,359.217499 119.871689,359.276062 
	C108.879936,359.450439 97.883698,359.336884 86.889206,359.343994 
	C76.746735,359.350555 74.241814,361.821838 74.233673,372.049316 
	C74.207558,404.866211 74.219025,437.683105 74.216682,471.500000 
M478.039001,529.572266 
	C485.025970,530.149902 491.957092,529.986877 498.953003,529.125916 
	C550.050903,522.837280 586.640442,469.751343 567.702820,416.041626 
	C553.517456,375.810059 512.731628,353.273468 469.833832,361.336304 
	C422.114868,370.305237 390.427765,422.780487 405.453064,468.915436 
	C416.758881,503.629730 440.892212,523.895020 478.039001,529.572266 
M556.259338,158.206314 
	C557.161072,159.527359 557.351196,161.391846 559.127563,162.064499 
	C577.791016,138.681381 580.394470,87.720123 545.825317,55.256981 
	C510.698700,22.270391 454.971252,25.006918 422.987244,61.536594 
	C392.953705,95.838493 399.489899,142.549835 416.130249,162.509567 
	C424.459473,144.270859 438.340393,131.635880 455.848999,122.953522 
	C438.840118,95.135925 440.041595,75.189255 459.148163,58.207863 
	C474.387482,44.663567 497.697662,44.236835 514.398071,57.216515 
	C523.209534,64.064812 528.548706,73.110657 530.536438,83.991226 
	C533.233521,98.754723 528.270386,111.431763 518.596069,122.822861 
	C526.470825,127.148361 533.882080,131.243286 540.074341,137.157852 
	C546.381958,143.182632 551.952698,149.751266 556.259338,158.206314 
M167.485001,151.879608 
	C188.491486,154.204422 208.280594,160.580261 227.300400,170.946136 
	C227.300400,134.872879 227.300400,99.922089 227.300400,64.696388 
	C226.069443,65.029472 225.380661,65.089470 224.816849,65.386597 
	C200.612549,78.142006 174.904861,84.632431 147.481491,83.949654 
	C144.157471,83.866882 143.212479,85.576591 143.220566,88.611771 
	C143.272034,107.936089 143.275116,127.260803 143.190308,146.584930 
	C143.176102,149.816605 144.452789,151.074738 147.640884,150.986191 
	C153.968216,150.810501 160.299118,150.854828 167.485001,151.879608 
M541.762878,183.245941 
	C545.020447,181.245224 544.593689,178.582397 543.529114,175.447372 
	C535.519226,151.858444 513.354126,136.046555 487.442963,135.579681 
	C463.089844,135.140869 439.996643,151.288834 431.526764,174.312637 
	C429.767853,179.093796 430.952026,181.869110 434.839081,184.840073 
	C466.779602,209.253067 508.724701,208.872696 541.762878,183.245941 
M279.742401,150.500031 
	C279.740082,121.536156 279.675964,92.571999 279.807068,63.608734 
	C279.825165,59.609486 278.767242,57.889091 274.508759,58.016911 
	C266.526215,58.256516 258.530457,58.118946 250.541245,58.035316 
	C247.866470,58.007320 246.774887,58.789665 246.782883,61.772820 
	C246.882370,98.879532 246.875031,135.986725 246.771667,173.093445 
	C246.763626,175.979904 247.659943,176.934158 250.440460,176.903580 
	C258.762329,176.812057 267.086945,176.801468 275.408295,176.916855 
	C278.628448,176.961517 279.848969,175.683578 279.783844,172.472977 
	C279.642181,165.484589 279.741028,158.491302 279.742401,150.500031 
M89.207039,89.669136 
	C78.346855,97.357018 73.183655,108.061317 74.639175,121.080666 
	C76.241669,135.414597 84.459946,145.123474 98.392311,149.606506 
	C106.036308,152.066101 113.922676,150.643738 121.702164,150.892914 
	C124.121750,150.970413 124.710876,149.311203 124.709213,147.226181 
	C124.693481,127.422623 124.693932,107.619072 124.687683,87.815514 
	C124.687126,86.047333 124.447884,84.219223 122.224876,84.185394 
	C111.139473,84.016693 99.807617,82.417252 89.207039,89.669136 
M124.503052,170.050339 
	C121.007446,170.045120 117.505371,170.170868 114.018044,169.998367 
	C110.439919,169.821396 108.903961,171.189423 108.919945,174.894394 
	C109.008972,195.534714 108.900330,216.175888 108.996582,236.816132 
	C109.026451,243.221024 111.729294,245.712357 118.299278,245.847565 
	C123.457451,245.953735 128.619308,245.899673 133.779434,245.885910 
	C139.771530,245.869934 145.767395,245.937134 151.753952,245.737747 
	C154.925720,245.632095 157.756302,244.334686 158.594040,240.944778 
	C159.467072,237.412125 157.830429,234.805756 154.679077,233.141586 
	C152.619064,232.053726 150.625198,230.725983 148.435852,230.020126 
	C142.897690,228.234573 141.516617,224.591782 141.667755,218.983383 
	C142.062210,204.345642 141.729767,189.689651 141.860626,175.042496 
	C141.892776,171.444962 140.720398,169.825958 136.983215,170.015396 
	C133.164688,170.208954 129.328369,170.051407 124.503052,170.050339 
M496.775757,68.565758 
	C491.858063,66.650208 486.885986,66.202164 481.653809,67.329216 
	C468.437500,70.176102 460.111908,83.533302 463.103394,97.395287 
	C465.910583,110.403282 479.282745,118.988518 492.188690,116.068756 
	C503.480286,113.514214 511.208130,105.028267 512.564392,93.694283 
	C513.706482,84.149872 507.512115,73.968033 496.775757,68.565758 
M193.132095,360.526276 
	C192.570374,360.195831 192.010574,359.580292 191.446671,359.576508 
	C176.454514,359.475342 161.461929,359.422852 146.469391,359.401520 
	C143.766571,359.397675 143.248352,361.283295 143.246994,363.492065 
	C143.241913,371.823547 143.290359,380.155518 143.206009,388.486206 
	C143.175766,391.471283 144.473312,392.682343 147.402786,392.670959 
	C161.566223,392.615967 175.730057,392.595093 189.893387,392.653503 
	C192.684738,392.665039 193.766373,391.535583 193.724457,388.782043 
	C193.585007,379.622345 193.561584,370.460938 193.132095,360.526276 
M298.334351,103.955498 
	C298.334351,114.458961 298.334351,124.962425 298.334351,136.176117 
	C300.886475,135.223801 302.084045,134.697464 303.327789,134.325668 
	C311.664215,131.833710 314.597626,126.960999 314.532745,117.675285 
	C314.466766,108.238548 311.550507,103.034027 302.932861,100.473022 
	C302.774902,100.426079 302.624481,100.347038 302.478119,100.268745 
	C299.282715,98.559509 298.243378,99.983818 298.334351,103.955498 
z"/>
<path fill="#000000" opacity="1.000000" stroke="none" 
	d="
M245.229095,461.838745 
	C248.116302,467.107758 246.829788,472.438385 246.514648,477.668854 
	C246.388458,479.763367 244.417450,480.047668 242.694473,480.050842 
	C227.704865,480.078247 212.715179,480.073669 197.725525,480.076141 
	C195.116409,480.076569 193.639938,478.913269 193.733032,476.155426 
	C193.738647,475.989227 193.721039,475.822357 193.722977,475.655914 
	C193.920975,458.616211 191.398331,461.893127 206.969086,461.635345 
	C219.596024,461.426300 232.229721,461.627106 245.229095,461.838745 
z"/>
<path fill="#000000" opacity="1.000000" stroke="none" 
	d="
M230.503723,496.007141 
	C234.449951,495.869751 237.948608,495.829590 241.447357,495.803009 
	C242.113083,495.797943 242.847305,495.670258 243.434708,495.897278 
	C250.162979,498.497559 245.981201,504.195923 246.781418,508.430450 
	C247.284622,511.093109 247.170761,514.420532 242.812607,514.353455 
	C240.979843,514.325195 239.105087,514.596497 237.322159,514.297607 
	C234.269409,513.786011 229.358124,516.361694 228.544052,512.203674 
	C227.529388,507.020996 225.873779,501.092255 230.503723,496.007141 
z"/>
<path fill="#000000" opacity="1.000000" stroke="none" 
	d="
M212.153381,503.089966 
	C212.101532,515.754456 213.167801,514.303467 201.552139,514.352295 
	C193.739395,514.385132 193.675186,514.340149 193.716522,506.784943 
	C193.784271,494.398682 192.105652,495.897278 205.045639,495.787689 
	C212.019699,495.728638 212.020218,495.790741 212.153381,503.089966 
z"/>
<path fill="#000000" opacity="1.000000" stroke="none" 
	d="
M472.688721,488.723633 
	C463.311523,493.357849 454.264160,497.817261 444.297058,502.729980 
	C444.297058,463.863647 444.297058,426.082153 444.297058,387.036041 
	C482.511749,406.123413 520.266235,424.980927 558.020752,443.838440 
	C558.100403,444.499054 558.180115,445.159668 558.259766,445.820282 
	C529.846008,460.063110 501.432281,474.305939 472.688721,488.723633 
M473.885834,422.726196 
	C470.180695,421.172058 466.877655,418.571045 462.727570,418.048340 
	C462.727570,436.038574 462.727570,453.664886 462.727570,472.494202 
	C481.298035,463.195496 498.910095,454.376678 517.797791,444.919159 
	C502.362152,437.117981 488.457855,430.090729 473.885834,422.726196 
z"/>
</svg>