<?xml version="1.0"?>
<svg width="820" height="652" xmlns="http://www.w3.org/2000/svg" xmlns:svg="http://www.w3.org/2000/svg" enable-background="new 0 0 820 652" version="1.1" xml:space="preserve">
 <g class="layer">
  <title>Layer 1</title>
  <path d="m77.45,333c0,-12.5 -0.01,-24.5 0.02,-36.5c0.02,-4.53 1.83,-8.02 6.03,-10.12c3.68,-1.84 7.59,-1.73 10.24,1.05c2.21,2.3 4.03,5.79 4.35,8.93c0.66,6.41 0.2,12.94 0.2,19.82c41.69,0 83.07,0 124.7,0c0,-3.19 0,-6.29 0,-10.06c-7.86,0 -15.64,0 -23.41,0c-2.17,0 -4.34,-0.04 -6.5,0c-5.25,0.08 -9.02,-2.13 -10.85,-7.14c-1.63,-4.43 -0.07,-8.86 4.45,-12.17c11.15,-8.17 22.4,-16.22 33.61,-24.32c4.19,-3.02 8.5,-5.9 12.46,-9.2c1.06,-0.9 1.37,-3.13 1.38,-4.75c0.02,-2.46 -0.8,-4.92 -0.81,-7.38c-0.08,-15.49 -0.17,-31 0.05,-46.49c0.05,-3.91 -0.95,-5.84 -4.87,-7.22c-47.14,-16.59 -94.21,-33.32 -141.23,-50.24c-3.2,-1.15 -6.68,-3.45 -8.47,-6.23c-3.6,-5.58 -0.16,-12.28 7,-14.79c21.37,-7.5 42.78,-14.89 64.16,-22.36c67.93,-23.72 135.84,-47.45 203.76,-71.18c3.78,-1.32 7.73,-2.26 11.3,-4c9.46,-4.61 18.38,-3.76 28.25,-0.25c57.13,20.28 114.47,39.95 171.69,59.96c3.06,1.07 4.63,0.5 6.77,-1.75c12.88,-13.58 28.68,-17.2 46.19,-11.7c17.29,5.43 28.4,17.25 31.13,35.49c0.9,6.01 3.21,8.99 8.95,10.39c5.15,1.26 10.07,3.45 15.14,5.11c4.9,1.61 8.07,4.66 8.42,9.98c0.33,4.79 -2.51,8.51 -8.06,10.79c-6.62,2.73 -13.35,5.22 -19.84,8.22c-1.5,0.7 -3.01,3 -3.16,4.68c-0.42,4.97 -0.39,10 -0.07,14.98c0.14,2.18 1.21,4.39 2.22,6.41c6.23,12.48 13.39,24.57 18.63,37.45c5.29,13.01 1.42,25.14 -8.74,34.58c-10.03,9.33 -22.11,11.55 -34.85,6.5c-12.95,-5.13 -20.38,-15.23 -20.89,-29.08c-0.22,-6.23 1.59,-12.99 4.13,-18.78c4.35,-9.87 9.52,-19.47 15.3,-28.58c3.68,-5.81 3.29,-11.47 2.95,-18.36c-8.35,3.34 -16.18,6.44 -23.99,9.59c-24.86,10.05 -49.67,20.22 -74.6,30.1c-4.07,1.61 -5.43,3.71 -5.33,8.06c0.31,12.83 0.12,25.66 0.11,38.49c0,1.5 0.44,3.26 -0.18,4.46c-2.84,5.44 0.52,7.71 4.41,10.45c14.03,9.88 27.87,20.03 41.74,30.14c5.35,3.9 7.12,8.04 5.69,12.68c-1.57,5.06 -5.37,7.43 -12.15,7.45c-9.46,0.03 -18.92,0.01 -28.71,0.01c0,3.55 0,6.61 0,10.08c41.36,0 82.72,0 124.6,0c0,-6.36 -0.04,-12.48 0.01,-18.6c0.07,-7.42 4.07,-12.19 10.24,-12.32c6.32,-0.13 10.62,4.8 10.62,12.46c0.02,95.82 0.02,191.65 0,287.47c0,8.87 -3.9,12.68 -12.9,12.68c-42.17,0.02 -84.33,0.01 -126.49,0.01c-1.95,0 -3.9,0 -6.43,0c0,3.35 0.04,6.13 -0.01,8.91c-0.13,7.7 -4.09,11.92 -11.66,11.92c-96.32,0.04 -192.65,0.04 -288.97,0c-7.84,0 -11.81,-4.2 -11.93,-12.18c-0.04,-2.65 0,-5.29 0,-8.65c-2.28,0 -4.21,0 -6.14,0c-40.83,0 -81.66,0 -122.49,0c-15.06,0 -17.17,-2.14 -17.17,-17.43c0,-82.32 0,-164.65 0,-247.47m437.47,100.5c0,-42.27 0,-84.54 0,-126.97c-90.56,0 -180.56,0 -270.43,0c0,97.28 0,194.14 0,291.03c17.34,0 34.26,0 51.32,0c0,-38.18 0,-76.06 0,-114.43c-3.78,0 -7.26,0.19 -10.71,-0.05c-5.46,-0.37 -9.38,-4.45 -9.67,-9.69c-0.29,-5.32 3.55,-10.03 9.04,-10.83c1.97,-0.29 3.99,-0.18 5.99,-0.18c59.49,-0.01 118.97,0 178.45,0c1.34,0 2.67,-0.05 4,0.02c6.45,0.35 10.95,4.87 10.76,10.77c-0.18,5.76 -4.55,9.8 -10.94,9.99c-3.11,0.1 -6.23,0.02 -9.47,0.02c0,38.49 0,76.35 0,114.39c17.27,0 34.17,0 51.66,0c0,-54.55 0,-108.81 0,-164.07m-100.91,-314.24c-27.64,-2.65 -55.24,-2.19 -82.77,1.38c-24.88,3.23 -49.11,8.95 -72.43,18.38c-3.44,1.39 -4.76,3.13 -4.73,6.95c0.17,26.99 0.08,53.98 0.1,80.97c0,1.56 0.2,3.12 0.34,5.1c10.17,-1.57 19.71,-2.93 29.21,-4.51c30.97,-5.14 61.68,-5 92.03,4.17c2.23,0.68 5,0.58 7.28,-0.04c28.55,-7.73 57.46,-9.26 86.71,-5.27c11.35,1.55 22.69,3.27 34.3,4.95c0.16,-1.23 0.44,-2.34 0.45,-3.46c0.02,-27.66 -0.05,-55.31 0.1,-82.97c0.02,-3.43 -1.62,-4.54 -4.34,-5.62c-27.46,-10.89 -55.99,-17.12 -86.25,-20.03m-86.52,-65.29c-68.71,23.98 -137.42,47.96 -206.13,71.95c0.03,0.47 0.05,0.95 0.08,1.43c37.02,13.13 74.05,26.25 111.86,39.66c0,-11.09 0.09,-21.06 -0.04,-31.03c-0.08,-5.9 2.44,-9.81 7.9,-11.99c5.72,-2.29 11.31,-4.9 17.09,-7.03c40.87,-15.05 83.29,-20.69 126.62,-19.99c45.54,0.74 89.79,8.24 131.84,26.64c6.23,2.73 8.88,6.8 8.71,13.5c-0.26,10.49 -0.08,20.99 -0.05,31.48c0,1.56 0.2,3.12 0.33,5.08c1.95,-0.67 3.21,-1.05 4.43,-1.54c31.64,-12.79 63.26,-25.67 94.97,-38.3c3.65,-1.46 4.45,-3.43 4.53,-7.04c0.08,-3.85 -2.12,-4.7 -4.92,-5.67c-18.26,-6.28 -36.51,-12.62 -54.75,-18.95c-62.14,-21.58 -124.26,-43.19 -186.44,-64.62c-2.57,-0.88 -5.95,-0.83 -8.54,0.03c-15.65,5.18 -31.17,10.72 -47.49,16.39m-229.21,474.53c0,16.07 0,32.14 0,48.15c42.12,0 83.37,0 124.77,0c0,-79.8 0,-159.24 0,-238.91c-41.6,0 -82.98,0 -124.77,0c0,63.5 0,126.63 0,190.76m437.53,-32c0,26.73 0,53.46 0,80.12c42.1,0 83.32,0 124.54,0c0,-79.89 0,-159.41 0,-238.88c-41.68,0 -82.91,0 -124.54,0c0,52.83 0,105.29 0,158.76m-241.31,-211.27c79.37,0 158.75,0 238.86,0c-0.91,-1.25 -1.11,-1.71 -1.46,-1.97c-14.98,-10.85 -29.96,-21.71 -44.99,-32.49c-1.16,-0.83 -2.68,-1.38 -4.11,-1.62c-32.93,-5.58 -65.62,-5.9 -98.05,3.56c-3.86,1.13 -8.49,0.42 -12.61,-0.33c-10.47,-1.89 -20.77,-4.87 -31.28,-6.35c-22.23,-3.13 -44.21,0.24 -66.09,3.98c-1.7,0.29 -3.38,1.35 -4.83,2.39c-13.54,9.71 -27.03,19.49 -40.52,29.27c-1.11,0.8 -2.08,1.78 -4.13,3.56c23.65,0 45.93,0 69.21,0m70.75,312.64c4.34,0.68 3.82,-2.29 3.81,-4.99c-0.01,-34.98 -0.01,-69.96 -0.02,-104.94c0,-1.44 -0.18,-2.88 -0.27,-4.36c-17.39,0 -34.43,0 -51.32,0c0,38.26 0,76.12 0,114.29c15.9,0 31.37,0 47.8,0m39.26,-114.69c-4.77,0 -9.53,0 -14.14,0c0,38.64 0,76.5 0,114.37c17.33,0 34.23,0 51.3,0c0,-38.18 0,-76.03 0,-114.37c-12.27,0 -24.22,0 -37.16,0m241.32,-282.5c-1.81,-3.2 -3.63,-6.39 -5.45,-9.59c-0.55,0.03 -1.1,0.05 -1.66,0.08c-3.57,7.81 -7.52,15.48 -10.6,23.48c-2.14,5.57 0.13,10.99 4.59,14.09c4.41,3.08 10.09,3.08 14.49,0c4.44,-3.1 6.46,-8.51 4.6,-14.12c-1.5,-4.55 -3.71,-8.87 -5.97,-13.94m-52.46,-112.33c11.06,3.81 22.13,7.63 33.68,11.61c-3.08,-13.83 -23.57,-21.72 -34,-13.96c-0.38,0.28 -0.22,1.29 0.32,2.35z" fill="#070707" id="svg_2" opacity="1"/>
  <path d="m305,420.81c-6.33,0 -12.16,0.08 -17.99,-0.03c-7.38,-0.13 -11.58,-4.16 -11.61,-11.45c-0.1,-20 -0.09,-39.99 -0.01,-59.98c0.03,-7.34 4.07,-11.54 11.49,-11.6c20.16,-0.15 40.32,-0.15 60.48,0.01c7.41,0.06 11.33,4.27 11.36,11.71c0.09,19.83 0.08,39.65 0.01,59.48c-0.04,7.88 -4.15,11.8 -12.24,11.84c-13.67,0.06 -27.33,0.02 -41.49,0.02m17.49,-20.88c4.95,0 9.9,0 15.12,0c0,-14 0,-27.4 0,-41.13c-13.81,0 -27.36,0 -41.02,0c0,13.83 0,27.35 0,41.13c8.6,0 16.75,0 25.9,0z" fill="#070707" id="svg_13" opacity="1"/>
  <path d="m400.34,392c0,-14.16 -0.03,-27.83 0.01,-41.49c0.03,-8.86 3.9,-12.77 12.85,-12.8c19.33,-0.07 38.66,-0.08 57.99,0c8.64,0.04 12.52,4 12.54,12.59c0.05,19.33 0.05,38.66 0,57.98c-0.02,8.6 -3.95,12.49 -12.59,12.51c-19.49,0.04 -38.98,0.05 -58.48,0c-8.26,-0.03 -12.22,-4.04 -12.31,-12.3c-0.05,-5.33 -0.01,-10.66 -0.01,-16.49m62.55,-21.47c0,-3.9 0,-7.8 0,-11.75c-14.34,0 -27.77,0 -41.32,0c0,13.83 0,27.36 0,40.68c13.98,0 27.53,0 41.32,0c0,-9.63 0,-18.78 0,-28.93z" fill="#070707" id="svg_14" opacity="1"/>
  <path d="m119.07,401c0,-7.5 -0.06,-14.5 0.02,-21.5c0.09,-7.34 4.06,-11.69 11.36,-11.76c16.83,-0.18 33.66,-0.19 50.49,0c7.14,0.09 11.01,4.29 11.04,11.46c0.08,20 0.08,40 0.01,60c-0.03,7.37 -4.11,11.47 -11.5,11.51c-16.5,0.1 -33,0.1 -49.5,0.01c-7.8,-0.04 -11.86,-4.27 -11.9,-12.22c-0.06,-12.33 -0.02,-24.67 -0.02,-37.5m50.12,28.87c0.66,-1.26 1.83,-2.5 1.89,-3.79c0.23,-4.8 0.1,-9.62 0.1,-14.44c0,-7.58 0,-15.16 0,-22.85c-10.74,0 -20.77,0 -30.96,0c0,13.74 0,27.12 0,41.1c9.52,0 18.77,0 28.97,-0.02z" fill="#060606" id="svg_15" opacity="1"/>
  <path d="m191.58,469c0.21,22.2 0.41,44 0.29,65.8c-0.03,5.57 -4.37,9.51 -10.21,9.57c-17.31,0.17 -34.62,0.18 -51.93,0.02c-6.39,-0.06 -10.56,-4.43 -10.6,-10.89c-0.12,-20.31 -0.11,-40.61 -0.01,-60.92c0.04,-6.46 4.04,-10.94 10.49,-11.04c17.3,-0.26 34.62,-0.19 51.93,-0.04c4.72,0.04 8.18,2.53 10.04,7.5m-20.41,37.5c0,-7.94 0,-15.87 0,-23.86c-10.77,0 -20.82,0 -30.86,0c0,13.81 0,27.21 0,40.68c10.42,0 20.49,0 30.86,0c0,-5.52 0,-10.67 0,-16.82z" fill="#060606" id="svg_16" opacity="1"/>
  <path d="m586.03,367.66c13.82,0 27.16,-0.03 40.49,0.01c9.7,0.03 13.4,3.68 13.41,13.22c0.02,19 0.03,38 0,57c-0.02,8.97 -3.84,12.83 -12.73,12.85c-15.84,0.04 -31.67,0.04 -47.5,0c-8.82,-0.03 -12.69,-3.98 -12.7,-12.93c-0.03,-18.5 -0.01,-37 -0.01,-55.5c0,-11.29 3.32,-14.62 14.54,-14.65c1.33,-0.01 2.67,0 4.5,0m33.02,55.72c0,-11.45 0,-22.9 0,-34.61c-10.6,0 -20.66,0 -30.88,0c0,13.75 0,27.16 0,40.79c10.34,0 20.39,0 30.88,0c0,-1.96 0,-3.59 0,-6.18z" fill="#060606" id="svg_17" opacity="1"/>
  <path d="m597,544.46c-6.5,0 -12.5,0.09 -18.5,-0.03c-7.34,-0.14 -11.45,-4.22 -11.48,-11.56c-0.07,-19.84 -0.07,-39.67 0,-59.5c0.02,-7.46 3.9,-11.81 11.21,-11.9c16.83,-0.21 33.66,-0.21 50.49,0c7.35,0.08 11.17,4.36 11.19,11.87c0.06,19.67 0.06,39.33 0.01,59c-0.02,8.04 -3.96,12.03 -11.92,12.1c-10.17,0.08 -20.33,0.02 -31,0.02m22.05,-32.98c0,-9.59 0,-19.18 0,-28.82c-10.75,0 -20.79,0 -31.18,0c0,7.06 0,13.7 0,20.35c0,6.75 0,13.5 0,20.29c10.79,0 20.84,0 31.18,0c0,-3.86 0,-7.34 0,-11.82z" fill="#060606" id="svg_18" opacity="1"/>
  <path d="m348.8,535.34c7.41,1.96 9.84,4.96 9.96,11.96c0.05,2.99 0.13,6 -0.06,8.98c-0.38,6.09 -5,10.49 -10.65,10.34c-5.48,-0.15 -9.82,-4.49 -10.14,-10.34c-0.16,-2.98 -0.09,-5.98 -0.04,-8.98c0.1,-7.39 3.1,-10.77 10.93,-11.96z" fill="#0D0D0D" id="svg_19" opacity="1"/>
  <path d="m402.05,561.74c-0.58,-6.38 -1.59,-12.48 -1.14,-18.47c0.38,-4.97 5.75,-8.28 10.58,-7.93c5.18,0.37 9.22,4.37 9.59,9.79c0.23,3.31 0.03,6.65 0.1,9.97c0.09,5.23 -2.06,9.08 -7.06,10.87c-4.85,1.74 -8.76,-0.03 -12.07,-4.23z" fill="#0D0D0D" id="svg_20" opacity="1"/>
 </g>
</svg>