<svg version="1.1" id="Layer_1" xmlns="http://www.w3.org/2000/svg" xmlns:xlink="http://www.w3.org/1999/xlink" x="0px" y="0px"
	 width="100%" viewBox="0 0 384 432" enable-background="new 0 0 384 432" xml:space="preserve">
<path fill="#000000" opacity="1.000000" stroke="none" 
	d="
M195.111053,407.307556 
	C130.513565,403.781952 74.858215,358.404877 57.305611,296.296417 
	C39.301617,232.590744 64.409332,166.299240 116.757843,129.677902 
	C145.944092,109.260147 164.106033,81.491577 171.261002,46.590996 
	C172.026230,42.858349 172.309708,39.015961 172.652115,35.209679 
	C173.634842,24.285772 182.130341,19.514280 191.822220,24.696205 
	C218.547043,38.985081 239.247314,59.416489 253.785370,86.027756 
	C267.523285,111.174362 273.776398,138.060547 272.389191,166.706818 
	C272.276489,169.033875 272.350830,171.370865 272.379822,173.702713 
	C272.383270,173.982040 272.649261,174.258102 272.974640,174.883896 
	C277.074188,171.812866 279.622070,167.526062 282.422363,163.565567 
	C285.588806,159.087219 288.351440,154.309464 291.098267,149.551407 
	C295.957764,141.133774 304.543396,139.768723 311.439972,146.631577 
	C334.321777,169.401535 348.810089,196.648972 354.264496,228.494858 
	C366.487457,299.859100 328.581512,368.436310 261.552338,396.310089 
	C240.454956,405.083344 218.368362,408.364502 195.111053,407.307556 
M130.459381,149.010773 
	C78.949898,186.623703 60.977856,250.582703 86.088173,306.919220 
	C111.951378,364.944855 174.934586,396.285461 235.924057,379.624878 
	C288.223358,365.338226 320.410492,330.443665 330.776428,277.098083 
	C337.792664,240.990952 329.333679,207.688538 307.472534,177.958771 
	C306.538391,176.688385 305.917511,174.917679 303.677887,174.877655 
	C303.031708,175.742401 302.331085,176.654129 301.657440,177.585388 
	C290.312653,193.268173 276.730865,206.632095 260.500763,217.240295 
	C254.505692,221.158752 249.159637,221.389755 244.788483,218.006592 
	C240.512314,214.696945 239.358948,209.186600 241.652924,202.493118 
	C248.446045,182.671997 251.002060,162.523605 247.816650,141.600662 
	C242.521301,106.818756 226.132996,78.704239 198.500565,57.062233 
	C197.265381,56.094826 196.155075,54.592827 193.669296,55.218521 
	C184.745667,94.131973 163.840530,125.381561 130.459381,149.010773 
z"/>
</svg>