<svg version="1.1" id="Layer_1" xmlns="http://www.w3.org/2000/svg" xmlns:xlink="http://www.w3.org/1999/xlink" x="0px" y="0px"
	 width="100%" viewBox="0 0 672 640" enable-background="new 0 0 672 640" xml:space="preserve">
<path fill="#000000" opacity="1.000000" stroke="none" 
	d="
M375.000000,605.762085 
	C405.997314,605.752075 436.495056,605.831604 466.991791,605.691711 
	C480.200348,605.631165 489.990173,599.903259 495.301453,587.368652 
	C496.438904,584.684265 496.854858,581.950684 496.861359,579.096558 
	C496.900299,561.931946 496.928497,544.767212 496.987701,527.602661 
	C497.000946,523.761597 496.998352,519.807373 499.116638,516.461548 
	C501.744720,512.310486 505.452423,509.384583 510.686249,510.019775 
	C515.839600,510.645172 519.693359,513.466248 521.535156,518.460022 
	C522.275452,520.467163 522.927551,522.669922 522.896667,524.773010 
	C522.618286,543.757751 523.852051,562.772644 522.193420,581.725891 
	C519.772095,609.395935 497.639160,630.115417 469.836578,630.211975 
	C411.009186,630.416321 352.180573,630.255493 293.352448,630.256287 
	C232.524460,630.257141 171.696426,630.309998 110.868484,630.262207 
	C86.493401,630.243042 69.314201,618.940491 59.517456,596.643311 
	C56.456451,589.676514 55.880253,582.174316 55.881203,574.631165 
	C55.894123,472.140167 55.906910,369.649200 55.903702,267.158203 
	C55.902626,232.827911 55.902985,198.497452 55.788597,164.167450 
	C55.767433,157.814987 57.675800,152.682709 62.299000,148.100784 
	C105.142044,105.640366 147.872482,63.066212 190.572342,20.461666 
	C193.738266,17.302809 197.214951,15.795370 201.677567,15.797671 
	C290.669708,15.843578 379.661926,15.768889 468.653992,15.861269 
	C499.252380,15.893033 521.310608,39.106152 522.189209,65.768265 
	C522.819458,84.895554 522.386414,104.059158 522.359924,123.206467 
	C522.327881,146.366882 522.314514,169.525345 522.938843,192.681503 
	C523.033081,196.176285 524.001099,199.135147 525.789185,202.054642 
	C565.811157,267.401001 558.425781,352.845184 507.858978,409.925781 
	C503.404358,414.954163 503.393127,416.538330 508.026306,421.236847 
	C514.110352,427.406616 520.310303,433.462830 526.348450,439.676727 
	C529.868469,443.299164 533.969421,445.467041 539.016357,445.981628 
	C547.112305,446.807190 553.786438,450.283936 559.625000,456.089294 
	C593.299866,489.572205 627.122864,522.906189 660.921082,556.264832 
	C668.565674,563.809998 673.007812,572.504456 669.109253,583.250854 
	C665.641602,592.809204 658.681580,599.055176 648.348450,600.644287 
	C640.248169,601.890076 633.801147,598.340149 628.229736,592.795959 
	C610.750610,575.402222 593.283325,557.996521 575.776062,540.631165 
	C559.692505,524.677917 543.715576,508.612122 527.378845,492.921661 
	C520.841370,486.642853 516.278564,479.732147 515.564148,470.577332 
	C515.125671,464.957611 512.482666,460.625854 508.386536,456.784271 
	C501.825867,450.631195 495.616974,444.104126 489.223755,437.771088 
	C484.554138,433.145508 482.763794,432.921173 477.560608,436.558411 
	C456.193939,451.494598 432.746094,461.863068 406.993561,465.593231 
	C338.845123,475.464417 282.553619,453.608826 239.278275,399.964233 
	C221.098343,377.428131 209.755157,351.388489 205.512161,322.581482 
	C195.513367,254.696518 217.279388,198.752945 270.437683,155.745148 
	C305.053558,127.739120 345.704132,116.054596 389.916687,119.146553 
	C428.579163,121.850380 462.865692,136.423050 492.071289,162.280930 
	C493.065735,163.161362 494.083435,164.018539 495.134491,164.829269 
	C495.341095,164.988632 495.751556,164.883652 496.158844,164.905411 
	C497.530029,163.369659 496.968475,161.451141 496.970551,159.711533 
	C497.005615,130.047607 496.577667,100.375954 497.132507,70.722488 
	C497.470337,52.665939 483.022797,40.674515 466.941742,40.743050 
	C385.283722,41.091064 303.623474,40.913109 221.963989,40.929928 
	C213.917496,40.931587 213.172562,41.708973 213.170547,49.857880 
	C213.164993,72.355888 213.212997,94.854004 213.160812,117.351891 
	C213.097977,144.440567 195.449570,166.112610 169.072281,171.641815 
	C164.621475,172.574768 160.111938,172.349335 155.625076,172.356918 
	C133.627136,172.394165 111.629066,172.338669 89.631058,172.349625 
	C81.740227,172.353561 80.227470,173.849091 80.226601,181.628967 
	C80.211861,312.784088 80.194626,443.939178 80.217384,575.094299 
	C80.220581,593.529419 92.506523,605.722534 111.025383,605.729797 
	C198.850250,605.764343 286.675110,605.755798 375.000000,605.762085 
M520.127258,346.645660 
	C529.123291,322.625305 532.246094,297.807251 528.356934,272.504639 
	C522.966431,237.434616 507.616364,207.189438 480.904297,183.508423 
	C443.947174,150.744873 400.809143,137.896683 352.144073,147.361969 
	C320.260773,153.563217 293.834595,170.612762 271.659943,193.976166 
	C236.142044,231.398056 220.159485,274.942535 231.950928,326.608032 
	C250.066498,405.983643 326.206421,456.759033 409.628235,440.174988 
	C462.626099,429.639130 499.174225,397.393494 520.127258,346.645660 
M187.529312,73.206978 
	C187.189346,70.526390 186.912582,67.738625 183.878418,66.638214 
	C180.661346,65.471466 178.473434,67.429565 176.436005,69.480270 
	C166.809219,79.169815 157.240250,88.916992 147.584244,98.577232 
	C134.984680,111.182320 122.343384,123.745934 109.667862,136.274597 
	C107.441689,138.474991 106.318077,140.917816 107.439201,143.903885 
	C108.522949,146.790405 111.151794,146.812286 113.734550,146.808960 
	C129.397461,146.788727 145.061172,146.894943 160.723099,146.769608 
	C173.416275,146.668015 185.413605,136.024414 186.808731,123.500229 
	C188.639496,107.065140 187.091553,90.551315 187.529312,73.206978 
z"/>
<path fill="#000000" opacity="1.000000" stroke="none" 
	d="
M415.000000,543.232544 
	C322.511993,543.244263 230.523972,543.238220 138.536011,543.312744 
	C133.073761,543.317139 128.302399,542.533691 125.132240,537.444641 
	C120.445564,529.921082 124.924583,520.093018 133.763229,518.901489 
	C136.060684,518.591797 138.420135,518.688782 140.751114,518.688721 
	C240.238083,518.687927 339.725037,518.705994 439.212006,518.676575 
	C443.668793,518.675232 448.013000,518.886475 451.129578,522.526489 
	C454.195618,526.107544 455.884430,530.162781 453.904785,534.962158 
	C451.797821,540.070129 448.082458,543.095398 442.494995,543.184998 
	C433.498718,543.329346 424.498535,543.229431 415.000000,543.232544 
z"/>
<path fill="#000000" opacity="1.000000" stroke="none" 
	d="
M193.000000,453.973877 
	C201.487930,453.970856 209.480042,453.808350 217.462509,454.015808 
	C224.030762,454.186554 229.167892,458.562500 230.405655,464.489746 
	C231.550690,469.973083 228.738190,475.526184 223.590698,478.211090 
	C221.412598,479.347168 219.115234,479.382111 216.787109,479.382874 
	C190.326599,479.391663 163.866043,479.417603 137.405609,479.375153 
	C129.302429,479.362152 123.956955,474.523865 123.782906,467.289185 
	C123.602676,459.797668 129.391449,454.017731 137.582123,453.971893 
	C155.887512,453.869446 174.193970,453.961578 193.000000,453.973877 
z"/>
<path fill="#000000" opacity="1.000000" stroke="none" 
	d="
M406.155029,312.287964 
	C367.598755,328.331421 325.004272,310.828949 308.917664,272.034149 
	C293.612488,235.123749 310.448151,192.086151 348.127716,176.136276 
	C386.318268,159.970139 429.500153,177.552109 445.668976,216.171448 
	C461.097443,253.022446 443.593353,296.103943 406.155029,312.287964 
M381.990112,244.572098 
	C368.955750,253.283905 354.387573,256.594666 338.933594,256.948730 
	C332.331268,257.099976 330.651337,260.085175 333.570282,266.001404 
	C343.361420,285.846649 366.582062,296.399933 388.718292,291.148499 
	C410.121429,286.070984 426.784790,266.561218 425.981750,242.034271 
	C425.239807,219.373230 409.768250,200.554321 386.531860,195.749878 
	C365.035095,191.305115 342.232513,203.068390 333.461304,223.127640 
	C331.360291,227.932510 332.866302,230.369965 338.055756,230.792938 
	C356.011292,232.256439 370.134033,225.412567 380.955933,211.222229 
	C386.387695,204.099792 393.733124,202.765915 399.992767,207.626511 
	C405.952942,212.254562 406.274628,219.450058 400.937836,226.684250 
	C395.840881,233.593292 389.652252,239.334030 381.990112,244.572098 
z"/>
<path fill="#000000" opacity="1.000000" stroke="none" 
	d="
M338.183014,321.662994 
	C363.757080,334.266205 389.241333,334.522888 414.542633,322.543701 
	C423.944489,318.092316 432.452179,317.943176 441.693848,322.530609 
	C464.967865,334.083405 479.458008,352.475708 485.635468,377.560638 
	C486.996857,383.089020 486.020874,388.193359 481.728912,392.245056 
	C478.160431,395.613831 473.936035,396.630798 469.256805,394.946930 
	C464.208466,393.130188 461.760651,389.223175 460.714813,384.144989 
	C457.727875,369.641449 450.181549,358.115082 438.122192,349.469360 
	C432.647888,345.544647 427.325623,344.787201 420.884216,347.584320 
	C392.556641,359.885284 363.938110,359.947754 335.589966,347.827240 
	C327.901489,344.539948 322.050140,345.726532 315.881348,350.706055 
	C304.715881,359.718933 297.323120,370.953400 293.996185,384.933167 
	C291.891602,393.776550 286.569366,397.618042 279.172821,395.974609 
	C271.391022,394.245575 267.461212,387.755219 269.377625,379.181885 
	C275.503998,351.774475 291.504150,332.370514 317.103760,320.879852 
	C324.087708,317.745026 331.015320,318.132172 338.183014,321.662994 
z"/>
</svg>