<svg version="1.1" id="Layer_1" xmlns="http://www.w3.org/2000/svg" xmlns:xlink="http://www.w3.org/1999/xlink" x="0px" y="0px"
	 width="100%" viewBox="0 0 608 624" enable-background="new 0 0 608 624" xml:space="preserve">
<path fill="#000000" opacity="1.000000" stroke="none" 
	d="
M367.000000,352.196228 
	C319.514191,352.196838 272.528381,352.196167 225.542587,352.197815 
	C204.797729,352.198547 190.843079,338.205750 190.834045,317.331696 
	C190.818909,282.342285 190.766342,247.352554 190.923019,212.363831 
	C190.941956,208.137085 189.958817,205.229996 186.324310,202.749466 
	C179.208893,197.893280 176.052139,190.797989 176.053574,182.197556 
	C176.058273,153.872818 175.933075,125.547882 176.012161,97.223457 
	C176.050507,83.491631 184.925323,74.807076 198.598633,74.761574 
	C209.261932,74.726097 219.927536,74.638443 230.587830,74.822449 
	C234.528503,74.890457 235.813568,73.394043 235.818802,69.547882 
	C235.829178,61.924026 235.440186,54.339264 237.481400,46.735401 
	C243.679016,23.648106 263.656616,7.718215 287.592712,7.681115 
	C337.577484,7.603641 387.562592,7.585548 437.547272,7.687280 
	C467.231567,7.747694 489.954376,30.595182 490.208130,60.322769 
	C490.209564,60.489376 490.208099,60.656006 490.209076,60.822617 
	C490.292633,74.784599 490.292633,74.781113 504.017151,74.780609 
	C514.014099,74.780243 524.012024,74.706161 534.007812,74.817421 
	C546.741150,74.959160 555.101868,83.153046 555.143250,95.805336 
	C555.240234,125.462631 555.130554,155.120544 555.163269,184.778137 
	C555.172363,193.068802 551.070007,199.064362 544.638611,203.585968 
	C541.404175,205.859909 540.278870,208.500977 540.297058,212.387039 
	C540.460938,247.375214 540.440247,282.364197 540.511963,317.352905 
	C540.555298,338.468353 527.009827,352.180847 505.956879,352.188049 
	C459.804596,352.203796 413.652283,352.194824 367.000000,352.196228 
M269.500000,92.198387 
	C246.502151,92.208008 223.503677,92.309982 200.507004,92.150200 
	C195.843613,92.117798 193.968842,93.493690 193.997650,98.398781 
	C194.161041,126.228577 194.141266,154.060150 194.006516,181.890259 
	C193.986099,186.110245 195.577179,188.948120 199.131302,190.790009 
	C203.267380,192.933502 207.379837,195.180832 211.688477,196.923416 
	C235.592163,206.590988 260.755829,211.702026 285.903198,216.615753 
	C305.810822,220.505676 325.916168,223.398499 345.958984,226.574707 
	C354.826630,227.979965 363.751190,229.793930 372.765289,228.659012 
	C387.781342,226.768402 402.814209,224.862167 417.717743,222.261841 
	C439.995636,218.374832 462.307892,214.578598 484.212738,208.798859 
	C500.640930,204.464142 517.120667,200.315506 531.979736,191.612900 
	C536.061096,189.222549 537.949341,186.130783 537.903687,181.073273 
	C537.662720,154.411285 537.807861,127.745888 537.799255,101.081673 
	C537.796387,92.203293 537.769592,92.199730 528.976318,92.199600 
	C442.817535,92.198311 356.658783,92.198318 269.500000,92.198387 
M208.230682,313.411743 
	C208.233719,314.911163 208.196136,316.411957 208.246307,317.909790 
	C208.615250,328.922729 214.556168,334.802673 225.486176,334.804352 
	C318.952332,334.818665 412.418518,334.818726 505.884674,334.792542 
	C517.340027,334.789337 523.029114,329.061737 523.036011,317.597565 
	C523.055298,285.442596 523.032349,253.287613 522.975525,221.132721 
	C522.972473,219.412399 523.625793,217.451401 521.977722,216.014648 
	C519.989319,215.792282 518.374451,216.790924 516.674072,217.379227 
	C504.073212,221.738983 491.242340,225.263931 478.261810,228.303879 
	C450.358368,234.838715 422.098450,239.397263 393.764465,243.489059 
	C384.086365,244.886688 374.364044,247.368484 364.561707,246.380356 
	C339.055511,243.809204 313.760132,239.630127 288.573730,234.893524 
	C263.701843,230.216064 238.942963,224.987686 214.963791,216.671478 
	C208.528625,214.439713 208.244049,214.549622 208.237213,221.468094 
	C208.207260,251.790344 208.220047,282.112640 208.230682,313.411743 
M426.489410,53.077431 
	C383.044373,53.079819 339.599304,53.081966 296.154266,53.084717 
	C281.063141,53.085670 281.063141,53.086346 281.144043,67.950058 
	C281.180969,74.737137 281.180969,74.768005 288.115997,74.769402 
	C338.219299,74.779495 388.322571,74.776566 438.425873,74.774124 
	C439.590576,74.774063 440.757141,74.764488 441.919556,74.700409 
	C443.400513,74.618774 444.607971,73.986778 444.654877,72.376198 
	C444.794891,67.568085 445.454163,62.703194 444.210144,57.977577 
	C443.416473,54.962734 441.200989,53.235157 437.968414,53.167358 
	C434.474121,53.094070 430.978119,53.105015 426.489410,53.077431 
M472.789581,71.001106 
	C472.800140,67.170456 472.968628,63.332619 472.794708,59.510361 
	C471.916840,40.217007 457.482544,25.142391 439.401703,25.099850 
	C388.432251,24.979925 337.462341,25.049820 286.492615,25.083979 
	C278.690094,25.089209 271.928925,27.987095 265.863342,32.814758 
	C252.973480,43.073902 252.321960,57.239845 253.355591,71.892616 
	C253.623306,75.687836 256.928589,74.563248 259.230530,74.724205 
	C261.565948,74.887505 263.663086,74.473885 263.686066,71.412392 
	C263.716095,67.415283 263.621643,63.413090 263.790192,59.421932 
	C264.364716,45.816708 274.402008,35.760983 287.828094,35.738728 
	C337.964752,35.655617 388.101746,35.670780 438.238434,35.750381 
	C449.452850,35.768188 458.559509,43.299355 461.425903,54.205952 
	C462.769592,59.318817 461.916901,64.482735 462.219421,69.614731 
	C462.339172,71.646332 461.575806,74.565895 464.796906,74.591064 
	C467.590515,74.612892 471.412811,76.558777 472.789581,71.001106 
z"/>
<path fill="#000000" opacity="1.000000" stroke="none" 
	d="
M211.610748,378.554657 
	C231.742767,369.987640 250.858459,373.675873 270.276794,380.468323 
	C306.111084,393.002960 342.229553,404.724030 378.205383,416.855865 
	C385.295532,419.246826 392.582184,421.177979 399.211548,424.771545 
	C402.913361,426.778259 406.096130,429.556183 408.570740,432.930084 
	C410.558655,435.640381 412.417603,435.806885 415.285095,434.306915 
	C437.867401,422.494476 460.508636,410.794647 483.143555,399.082947 
	C491.281128,394.872437 499.369965,390.556000 507.623077,386.582916 
	C524.923462,378.254333 545.608337,384.582550 554.487000,400.734802 
	C563.953247,417.955963 558.889709,438.493347 541.742554,448.639557 
	C508.340332,468.404114 474.631958,487.651550 441.034637,507.085907 
	C420.703644,518.846436 400.130219,530.205505 380.062714,542.398438 
	C363.835419,552.258057 346.769958,554.854980 328.269073,552.015991 
	C294.872650,546.891235 261.412842,542.179077 227.977127,537.311035 
	C224.355850,536.783813 220.715240,536.390259 217.090576,535.884705 
	C214.916397,535.581482 212.979767,536.205383 211.776245,537.920227 
	C210.605957,539.587830 212.112167,541.064941 212.908966,542.455566 
	C217.956833,551.265808 217.263916,554.072205 208.727417,559.479492 
	C189.728882,571.513733 170.754745,583.586426 151.749619,595.610229 
	C143.147186,601.052673 139.939438,600.458618 134.607147,592.044983 
	C101.610443,539.979980 68.655067,487.888885 35.735245,435.775299 
	C30.827583,428.006256 31.846720,424.267426 39.612949,419.357727 
	C58.905190,407.161560 78.157440,394.902069 97.465050,382.730316 
	C105.515182,377.655457 109.298782,378.527557 114.368279,386.430603 
	C117.785812,391.758331 121.376083,396.997864 124.422073,402.533783 
	C126.645042,406.573883 129.159683,407.163391 133.361374,405.683899 
	C159.276047,396.558777 185.267502,387.651642 211.610748,378.554657 
M250.044861,392.386444 
	C239.908493,389.829163 229.991730,390.466248 220.110855,393.928223 
	C194.341354,402.957214 168.510880,411.812103 142.716354,420.769928 
	C141.197632,421.297363 139.424347,421.534485 138.163315,424.027771 
	C158.948853,456.908783 179.959656,490.146118 201.523666,524.258606 
	C209.234604,515.683533 218.082413,518.126160 226.810211,519.531616 
	C233.543243,520.615784 240.282074,521.669434 247.031784,522.643433 
	C274.359802,526.586548 301.728821,530.263062 329.010437,534.503296 
	C344.571533,536.921936 358.641022,534.948486 372.541168,526.665894 
	C410.309082,504.161102 448.594482,482.524902 486.673218,460.541687 
	C501.962891,451.714813 517.292847,442.956299 532.515930,434.015930 
	C539.443542,429.947388 542.738953,422.564331 541.306946,415.393066 
	C539.585510,406.772003 534.526245,401.735168 526.101562,400.491089 
	C521.114868,399.754700 516.581238,401.340668 512.214050,403.608826 
	C481.767761,419.421509 451.325836,435.242828 420.832245,450.963959 
	C418.340576,452.248566 417.118347,453.680756 416.912811,456.607971 
	C415.217316,480.752960 387.706360,498.053894 367.600159,488.406738 
	C365.367737,487.335571 362.880463,486.796997 360.514099,486.003357 
	C331.623840,476.313812 302.721954,466.658752 273.853973,456.903229 
	C267.736511,454.835907 265.198120,450.464386 266.853271,445.615082 
	C268.616455,440.449066 273.575592,438.401306 279.542267,440.417603 
	C297.051300,446.334381 314.540894,452.309143 332.065460,458.179535 
	C346.273254,462.938812 360.488251,467.681732 374.764191,472.230530 
	C381.911896,474.507996 388.196045,472.662079 393.512268,467.319946 
	C398.312164,462.496643 400.915100,457.094635 398.556549,450.207916 
	C396.343018,443.744659 391.841980,439.742798 385.394196,437.591187 
	C340.532562,422.621216 295.691772,407.588837 250.044861,392.386444 
M64.124779,448.406586 
	C90.479851,490.034821 116.877876,531.635986 143.115921,573.337891 
	C145.443787,577.037720 147.163956,578.115845 151.201065,575.468628 
	C164.423294,566.798706 177.843918,558.427368 191.290817,550.106934 
	C194.544861,548.093506 195.093353,546.376526 192.939011,542.987610 
	C163.554260,496.763153 134.276962,450.470306 105.057381,404.141205 
	C103.229591,401.243134 101.515694,400.640015 98.617203,402.489685 
	C84.724487,411.355255 70.794975,420.163574 56.837196,428.926392 
	C54.332161,430.499023 53.898430,432.201172 55.509933,434.684692 
	C58.317902,439.012177 60.994881,443.424622 64.124779,448.406586 
z"/>
<path fill="#000000" opacity="1.000000" stroke="none" 
	d="
M339.681061,202.998352 
	C336.117462,192.113190 338.840210,182.381668 347.242432,175.195419 
	C355.804108,167.872818 368.920898,166.421890 379.129974,171.668121 
	C390.919373,177.726456 396.369324,190.432800 392.271881,202.308136 
	C388.119629,214.342422 373.741638,222.423096 360.911652,219.852280 
	C351.144196,217.895126 343.802307,212.751770 339.681061,202.998352 
M356.901123,198.560257 
	C361.379944,202.976639 366.584229,204.121170 371.281830,201.445892 
	C374.485596,199.621368 376.759216,196.957230 375.975922,192.937775 
	C374.964508,187.747498 368.327515,184.669540 362.235443,186.397980 
	C356.767853,187.949234 354.591278,192.336868 356.901123,198.560257 
z"/>
</svg>