<?xml version="1.0"?>
<svg width="628" height="546" xmlns="http://www.w3.org/2000/svg" xmlns:svg="http://www.w3.org/2000/svg" enable-background="new 0 0 628 546" version="1.1" xml:space="preserve">
 <g class="layer">
  <title>Layer 1</title>
  <path d="m561.9,257c0.01,85.66 0.01,170.83 0.02,255.99c0,6.88 -1.73,8.65 -8.43,8.65c-125.66,0 -251.32,0.02 -376.98,0.02c-37.33,0 -74.66,-0.04 -111.99,-0.07c-7.94,0 -9.5,-1.62 -9.51,-9.79c-0.01,-25.16 0,-50.33 0,-75.5c0,-29.63 14.7,-51.5 42.14,-62.88c10.77,-4.46 21.94,-6.7 33.58,-6.82c1.8,-0.02 3.61,-0.18 5.82,-0.3c0.47,-6.6 1.34,-12.57 -3.41,-18.41c-7.66,-9.45 -11.68,-20.83 -14.87,-32.49c-0.79,-2.85 -1.88,-5.7 -3.34,-8.26c-19.07,-33.57 -10.99,-67.51 21.35,-88.78c16.97,-11.16 35.31,-17.41 55.87,-13.44c19.89,3.84 34.45,15.92 44.82,32.52c3.96,6.35 5.44,14.76 6.29,22.42c1.19,10.66 1.57,21.58 0.62,32.25c-0.5,5.76 -4.45,11.23 -6.89,16.81c-0.85,1.96 -2.17,3.77 -2.69,5.8c-3.5,13.55 -9.31,25.86 -17.53,37.3c-2.32,3.23 -1.46,8.79 -1.72,13.3c-0.02,0.33 2.81,1.16 4.32,1.17c14.92,0.14 29.32,2.86 42.19,10.53c7.89,4.71 14.95,10.84 22.3,16.27c0,-97.72 0,-196.22 0,-295.24c-3.34,0 -6.63,0.08 -9.92,-0.01c-6.86,-0.21 -10.02,-3.38 -10.07,-10.32c-0.08,-11.5 -0.06,-23 -0.01,-34.5c0.03,-8.09 3.1,-11.13 11.27,-11.13c47.5,-0.02 95,-0.01 142.49,-0.01c50.67,-0.01 101.33,-0.01 152,0c10.19,0 12.71,2.52 12.72,12.67c0.01,10.33 0.01,20.66 0,31c-0.01,9.73 -2.65,12.31 -12.57,12.32c-2.46,0 -4.93,0 -7.87,0c0,53.16 0,105.8 0,158.93m-442.67,18.46c1.31,-4.04 4.62,-4.68 8.26,-5.19c12.19,-1.71 24.46,-3.07 36.49,-5.56c15.02,-3.1 29.65,-7.57 42.28,-17.01c1.6,-1.2 4.85,-1.21 6.96,-0.56c8.93,2.78 13.18,10.13 16.47,18.92c0.73,2.19 1.46,4.38 2.19,6.57c0.53,-0.14 1.05,-0.29 1.57,-0.43c-0.52,-2.73 -1.05,-5.46 -1.68,-8.97c-1.76,-6.74 -2.01,-14.46 -5.59,-20.02c-8.98,-13.93 -21.45,-23.97 -38.55,-26.8c-26.28,-4.35 -66.96,18.33 -71.01,49.96c0.08,1.21 0.16,2.42 0.29,4.38c-0.01,0.75 -0.02,1.5 -0.5,2.79c0.31,2.37 0.62,4.74 0.93,7.12c0.59,-0.07 1.18,-0.14 1.77,-0.21c0,-1.43 0,-2.85 0.12,-4.99m290.27,109.63c14.5,0 29,-0.01 43.49,0c10.93,0.01 14.7,3.78 14.7,14.74c0.01,34.66 0.08,69.33 -0.09,103.99c-0.02,4.31 0.96,5.69 5.49,5.64c23.67,-0.23 47.33,-0.25 70.99,0.01c4.81,0.06 5.7,-1.53 5.7,-5.93c-0.11,-133.31 -0.09,-266.63 -0.1,-399.94c0,-1.75 -0.2,-3.49 -0.3,-5.2c-84.49,0 -168.39,0 -252.28,0c0,137.06 0,273.77 0,410.71c27.24,0 53.99,0 81.45,0c0,-2.17 0,-4.1 0,-6.04c0.01,-34.83 -0.02,-69.66 0.02,-104.49c0.01,-9.35 4.13,-13.41 13.43,-13.48c5.5,-0.05 11,-0.01 17.5,-0.01m109,-299.23c17.09,0 34.17,0 51.63,0c0,-9.29 -0.27,-17.78 0.11,-26.24c0.21,-4.62 -1.47,-5.44 -5.7,-5.44c-94.3,0.12 -188.6,0.09 -282.9,0.1c-1.76,0 -3.52,0.15 -5.25,0.22c0,10.69 0,20.77 0,31.36c80.59,0 160.85,0 242.11,0m-127.68,339.64c0,27.75 0,55.49 0,83.45c21.8,0 42.97,0 64.07,0c0,-37.39 0,-74.37 0,-111.23c-21.53,0 -42.56,0 -64.07,0c0,9.2 0,17.99 0,27.78m-201.25,-68.1c4.52,-3.05 9.75,-5.42 13.46,-9.26c17.84,-18.5 23.92,-40.69 18.55,-65.75c-1.44,-6.72 -4.26,-13.19 -6.92,-19.58c-1.23,-2.94 -3.7,-3.87 -6.89,-1.56c-2.67,1.93 -5.73,3.39 -8.74,4.79c-20.21,9.38 -41.81,13.26 -63.72,15.71c-3.58,0.4 -5.06,1.47 -5.7,5.2c-3.51,20.52 2.27,38.69 14.16,55.02c11.77,16.18 27.6,21.33 45.8,15.43m-80.78,24.7c-2.04,0.72 -4.1,1.38 -6.12,2.17c-23.3,9.12 -35.45,26.91 -35.46,51.89c0,4.66 0,9.33 0,13.99c0,18.16 -0.05,36.33 0.1,54.49c0.01,1.56 1.35,4.44 2.15,4.47c8.74,0.33 17.49,0.2 26.63,0.2c0,-2.53 0,-4.33 0,-6.13c0,-17.5 0,-34.99 0,-52.49c0,-9.02 1.55,-11.96 6.23,-11.9c4.57,0.07 5.97,2.91 5.97,12.14c0,17.83 -0.07,35.66 0.11,53.49c0.01,1.65 1.55,4.68 2.45,4.71c10.61,0.34 21.23,0.22 32.56,0.22c-0.83,-2.6 -1.39,-4.47 -2.03,-6.32c-6.8,-19.67 -13.65,-39.33 -20.4,-59.02c-0.86,-2.5 -1.55,-5.12 -1.83,-7.73c-1.12,-10.27 -1.85,-20.58 -3.13,-30.83c-0.63,-4.96 0.18,-9.05 3.45,-12.94c3.35,-3.99 6.21,-8.4 9.29,-12.62c-0.29,-0.51 -0.58,-1.02 -0.86,-1.52c-6.11,1.17 -12.22,2.34 -19.11,3.73m124.56,12.18c0.88,2.78 2.46,5.54 2.52,8.33c0.25,11.65 0.22,23.32 -0.09,34.97c-0.1,3.72 -0.82,7.64 -2.2,11.08c-7.38,18.39 -15.06,36.65 -22.61,54.97c-0.67,1.61 -1.19,3.29 -2.07,5.73c10.5,0 20.12,-0.17 29.73,0.09c3.85,0.1 4.74,-1.27 4.71,-4.89c-0.16,-18.15 -0.08,-36.31 -0.07,-54.46c0,-1.67 -0.08,-3.34 0.05,-5c0.31,-3.83 2.17,-6.37 6.28,-6.27c3.84,0.1 5.56,2.58 5.82,6.2c0.1,1.33 0.05,2.66 0.05,3.99c0,18.49 -0.03,36.98 0.04,55.47c0.01,1.92 -1.04,4.8 2.54,4.83c8.58,0.07 17.17,0.02 25.93,0.02c0.1,-2.15 0.22,-3.62 0.22,-5.09c0.01,-24.49 -0.06,-48.97 0.04,-73.45c0.04,-9.71 -2.79,-18.44 -8.55,-26.1c-12.7,-16.89 -30.32,-24.28 -50.88,-25.72c-0.53,-0.03 -1.09,0.32 -2.18,0.66c3.64,4.96 6.96,9.5 10.72,14.64m-17.19,-2.94c-0.98,-1.13 -1.96,-2.25 -3.5,-4.02c-9.83,41.18 -19.41,81.24 -28.99,121.34c10.8,2 11.31,1.76 14.94,-6.98c4.91,-11.85 9.09,-24.06 14.83,-35.49c8.4,-16.7 11.39,-33.98 10.66,-52.55c-0.33,-8.46 -1.65,-15.63 -7.94,-22.3m-55.53,118.05c2.27,0 4.53,0 7.48,0c-9.78,-40.91 -19.36,-80.96 -28.94,-121.01c-0.53,-0.17 -1.06,-0.35 -1.59,-0.52c-3.16,5.09 -8.82,10.09 -8.98,15.27c-0.37,11.7 0.32,23.97 3.57,35.14c6.7,22.99 15.31,45.43 23.34,68.02c0.48,1.36 2.78,2.08 5.12,3.1m-2.19,-92.28c5.5,22.93 11,45.85 16.49,68.78c0.48,0 0.96,0 1.43,0.01c6.54,-26.78 13.07,-53.55 19.6,-80.32c-0.41,-0.17 -0.83,-0.34 -1.24,-0.51c-4.09,6.21 -8.16,12.42 -12.27,18.62c-4.58,6.92 -8.66,6.96 -13.22,0.15c-3.79,-5.67 -7.58,-11.34 -11.37,-17.01c-0.61,0.24 -1.22,0.49 -1.83,0.73c0.74,2.92 1.47,5.84 2.41,9.55m43.9,-46.57c0,-1.71 0,-3.41 0,-5.93c-18.17,10.39 -35.59,9.64 -53.48,0.34c0.5,3.64 1.08,6.93 2.7,9.56c5.42,8.79 11.21,17.35 16.87,25.98c2.32,3.54 4.69,7.05 7.5,11.26c9.02,-13.98 17.57,-27.24 26.41,-41.21z" fill="#0E0E0E" id="svg_2" opacity="1"/>
  <path d="m395.4,154c0.01,-5.83 -0.1,-11.16 0.05,-16.48c0.17,-6.15 3.55,-9.54 9.74,-9.59c11.98,-0.12 23.97,-0.12 35.95,0c6.17,0.06 9.55,3.44 9.62,9.69c0.14,11.98 0.14,23.97 0,35.95c-0.07,6.21 -3.49,9.52 -9.71,9.58c-11.98,0.1 -23.97,0.11 -35.95,0c-6.15,-0.06 -9.52,-3.47 -9.65,-9.67c-0.15,-6.33 -0.04,-12.65 -0.05,-19.48m20.17,-14.01c-1.5,0 -3,0.09 -4.49,-0.02c-2.58,-0.2 -3.56,0.9 -3.53,3.46c0.08,8.15 -0.09,16.3 0.17,24.44c0.04,1.09 1.98,3.02 3.09,3.05c8.3,0.26 16.62,0.21 24.92,0.06c1,-0.02 2.82,-1.19 2.83,-1.86c0.18,-9.56 0.13,-19.14 0.13,-29.13c-7.89,0 -15.02,0 -23.12,0z" fill="#0E0E0E" id="svg_18" opacity="1"/>
  <path d="m450.77,222.64c0.03,12.26 0.09,24.09 0.02,35.91c-0.04,7.47 -3.24,10.61 -10.7,10.65c-11.32,0.04 -22.65,0.05 -33.98,-0.01c-7.41,-0.03 -10.65,-3.25 -10.69,-10.68c-0.06,-11.32 -0.07,-22.65 0.01,-33.97c0.04,-7.36 3.33,-10.57 10.78,-10.61c11.32,-0.06 22.65,-0.06 33.98,0c6.5,0.03 8.82,1.92 10.58,8.71m-12.03,28.63c0,-7.15 -0.08,-14.3 0.04,-21.45c0.04,-2.72 -0.81,-3.89 -3.7,-3.84c-7.98,0.13 -15.96,0.14 -23.94,-0.01c-3,-0.05 -3.62,1.33 -3.59,3.94c0.08,7.81 0.16,15.63 -0.03,23.44c-0.09,3.3 1.42,3.84 4.22,3.8c7.48,-0.13 14.97,-0.25 22.44,0.04c3.96,0.15 5.06,-1.47 4.56,-5.92z" fill="#0E0E0E" id="svg_19" opacity="1"/>
  <path d="m529.86,263.57c-2.09,4.23 -5.3,5.7 -9.53,5.66c-11.67,-0.08 -23.33,0.04 -34.99,-0.05c-6.78,-0.04 -10.1,-3.33 -10.17,-10.2c-0.12,-11.66 -0.13,-23.33 0.01,-34.99c0.08,-6.79 3.46,-10 10.33,-10.05c11.66,-0.08 23.33,-0.08 34.99,0c5.74,0.04 9.71,2.74 9.81,7.84c0.24,13.8 -0.16,27.61 -0.45,41.79m-19.41,-6.47c2.45,0 4.89,0 7.52,0c0,-10.6 0,-20.63 0,-30.78c-10.29,0 -20.19,0 -30.32,0c0,10.33 0,20.36 0,30.78c7.53,0 14.67,0 22.8,0z" fill="#0E0E0E" id="svg_20" opacity="1"/>
  <path d="m530.63,159c0,4.99 0.1,9.49 -0.03,13.98c-0.18,6.83 -3.46,10.13 -10.21,10.18c-11.65,0.08 -23.31,0.07 -34.96,0c-6.82,-0.05 -10.18,-3.29 -10.26,-10.1c-0.12,-11.65 -0.12,-23.3 0,-34.95c0.07,-6.85 3.4,-10.14 10.18,-10.19c11.65,-0.09 23.3,-0.09 34.95,-0.01c6.81,0.05 10.14,3.31 10.29,10.11c0.16,6.83 0.04,13.65 0.04,20.98m-26.14,-19.01c-5.58,0 -11.17,0 -16.93,0c0,10.65 0,20.56 0,30.72c10.32,0 20.35,0 30.33,0c0,-10.39 0,-20.42 0,-30.72c-4.44,0 -8.42,0 -13.4,0z" fill="#0E0E0E" id="svg_22" opacity="1"/>
  <path d="m371.1,247.99c-0.01,4.16 0.09,7.83 -0.04,11.48c-0.22,6.25 -3.49,9.64 -9.63,9.69c-11.98,0.11 -23.96,0.1 -35.94,0.01c-6.2,-0.06 -9.64,-3.35 -9.72,-9.56c-0.16,-11.98 -0.16,-23.96 -0.01,-35.93c0.09,-6.46 3.53,-9.68 10.1,-9.73c11.64,-0.08 23.29,-0.08 34.93,0c6.82,0.05 10.16,3.31 10.27,10.09c0.13,7.82 0.04,15.64 0.04,23.95m-14,-21.93c-9.59,0 -19.18,0 -28.79,0c0,10.71 0,20.73 0,30.68c10.35,0 20.25,0 30.64,0c0,-7.49 0.09,-14.61 -0.04,-21.73c-0.06,-2.9 -0.6,-5.8 -1.81,-8.95z" fill="#0B0B0B" id="svg_24" opacity="1"/>
  <path d="m315.9,135.61c1.35,-5.61 4.83,-7.73 9.96,-7.72c11.65,0.03 23.3,-0.05 34.96,0.03c6.81,0.05 10.17,3.31 10.24,10.12c0.12,11.65 0.11,23.31 0,34.96c-0.07,6.83 -3.41,10.11 -10.2,10.15c-11.65,0.07 -23.3,0.07 -34.95,0c-6.78,-0.05 -10.12,-3.31 -10.16,-10.16c-0.09,-12.32 0.04,-24.64 0.15,-37.38m19.68,4.37c-2.42,0 -4.85,0 -7.26,0c0,10.78 0,20.8 0,30.71c10.37,0 20.26,0 30.62,0c0,-9.49 0.11,-18.61 -0.15,-27.72c-0.03,-1.03 -2.09,-2.8 -3.27,-2.86c-6.31,-0.28 -12.64,-0.13 -19.94,-0.13z" fill="#0B0B0B" id="svg_25" opacity="1"/>
  <path d="m442.1,448.75c3.13,3.7 2.97,7.07 -0.7,9.61c-3.05,2.11 -6.44,1.42 -8.06,-1.84c-0.9,-1.81 -0.77,-4.99 0.26,-6.73c1.86,-3.12 5.09,-3.31 8.5,-1.04z" fill="#191919" id="svg_26" opacity="1"/>
 </g>
</svg>