<?xml version="1.0"?>
<svg width="759" height="741" xmlns="http://www.w3.org/2000/svg" xmlns:svg="http://www.w3.org/2000/svg" enable-background="new 0 0 759 741" version="1.1" xml:space="preserve">
 <g class="layer">
  <title>Layer 1</title>
  <path d="m27.02,420c0,-133.81 0,-267.11 0,-400.83c233.16,0 466.03,0 699.29,0c0,172.63 0,345.33 0,518.71c-1.97,0 -3.91,0 -5.84,0c-84.83,0 -169.66,-0.02 -254.49,0.09c-3,0 -6.28,0.79 -8.96,2.14c-56.76,28.67 -112.69,27.52 -167.78,-4.46c-3.26,-1.89 -5.31,-2.16 -8.01,0.85c-4.56,5.07 -9.43,9.89 -14.46,14.5c-2.98,2.73 -3.47,4.66 -0.14,7.49c4.66,3.95 8.95,8.32 13.56,12.67c-1.77,1.95 -2.7,3.09 -3.74,4.12c-41.46,41.48 -82.88,83 -124.42,124.4c-19.03,18.97 -44.27,23.89 -67.47,13.53c-36.63,-16.38 -47.12,-64.16 -19.56,-93.37c24.92,-26.41 51.11,-51.61 76.79,-77.3c1.16,-1.16 2.76,-1.88 4.16,-2.8c-0.32,-0.56 -0.64,-1.12 -0.96,-1.68c-39.15,0 -78.3,0 -117.97,0c0,-39.67 0,-78.61 0,-118.06m677.09,6.5c0,-98.11 0,-196.23 0,-294.52c-218.41,0 -436.28,0 -654.18,0c0,127.89 0,255.44 0,383.3c2.13,0 3.94,0 5.74,0c32.34,0 64.68,-0.54 96.99,0.29c11.78,0.29 20.77,-2.22 27.99,-11.73c4.38,-5.76 9.86,-10.68 15.45,-16.62c5.34,5.58 9.8,10.05 14.02,14.73c2.17,2.41 3.75,2.57 6.05,0.12c4.68,-4.98 9.4,-9.95 14.51,-14.46c3.53,-3.11 3.84,-5.43 1.29,-9.57c-12.79,-20.68 -20.75,-43.16 -23.11,-67.42c-0.98,-10.03 -1.14,-20.15 -1.71,-30.78c-44.71,0 -89.61,0 -134.74,0c-1.2,-18.06 0.88,-35.05 8.01,-51.23c11.81,-26.78 31.84,-45.03 59.66,-55.94c-14.78,-14.26 -22.87,-30.96 -22.74,-50.97c0.13,-20.25 8.06,-37.15 23.1,-50.7c23.57,-21.23 60.3,-22.45 85.66,-2.81c12.85,9.96 21.41,22.85 24.85,38.72c5.51,25.48 -2.25,47.16 -20.71,65.58c4.89,2.3 9.33,3.88 13.2,6.35c3.81,2.43 5.8,1.47 8.62,-1.64c53.11,-58.76 140.48,-72.36 209.02,-32.69c15.41,8.92 29.04,20.01 41.08,33.11c1.21,1.31 3.58,3.21 4.57,2.8c5.57,-2.31 10.87,-5.24 16.41,-8.03c-32.46,-31.99 -25.16,-74.86 -3.35,-97.33c23.66,-24.37 61.52,-27.89 88.85,-7.74c13.69,10.09 22.68,23.53 26.14,40.13c5.28,25.3 -2.54,46.86 -21.2,65.36c22.53,8.43 39.85,22.23 52.3,41.82c12.57,19.79 17.05,41.58 15.35,65.35c-45.2,0 -90.11,0 -135.46,0c1.56,25.65 -2.32,49.94 -11.58,73.33c-9.27,23.43 -23.46,43.62 -42,61.56c71.32,0 141.53,0 211.92,0c0,-29.39 0,-58.38 0,-88.37m-654.51,-381.8c0,21.28 0,42.56 0,63.97c218.41,0 436.28,0 654.13,0c0,-22.54 0,-44.76 0,-67.33c-2.35,0 -4.32,0 -6.3,0c-213.81,0 -427.63,0 -641.45,0.01c-1.5,0 -3.07,-0.25 -4.47,0.12c-0.78,0.22 -1.27,1.48 -1.91,3.23m410.65,467.07c57.44,-40.99 78.39,-112.1 52.05,-176.75c-29.37,-72.1 -113.47,-109.05 -185.92,-81.68c-77.69,29.36 -116.66,114.61 -85.9,191.25c21.25,52.93 61.52,83.8 118.11,91.92c36.63,5.25 70.37,-3.81 101.66,-24.74m-319.66,167.32c35.72,-35.7 71.43,-71.39 106.63,-106.57c-17.48,-17.54 -34.35,-34.47 -51.51,-51.69c-1.01,0.95 -2.35,2.14 -3.61,3.4c-18.48,18.47 -36.96,36.95 -55.42,55.44c-18.35,18.36 -36.88,36.55 -54.95,55.2c-11.23,11.58 -12.65,29.14 -4.42,43c8.24,13.88 24.25,20.55 39.9,16.94c9.62,-2.22 16.46,-8.34 23.38,-15.72m398.57,-335.81c0.84,3.04 2.14,6.05 2.41,9.15c0.38,4.19 2.38,4.96 6.18,4.94c34.97,-0.13 69.94,-0.07 104.9,-0.07c1.63,0 3.25,0 4.9,0c0.07,-1.07 0.16,-1.56 0.12,-2.04c-0.08,-0.82 -0.18,-1.66 -0.37,-2.46c-7.45,-30.97 -26.35,-51.22 -56.87,-60.38c-14.3,-4.29 -29.1,-2.98 -43.68,-2.55c-8.36,0.24 -16.74,2.29 -24.95,4.21c-4.35,1.03 -8.34,3.54 -11.28,4.84c6.45,15.19 12.47,29.38 18.64,44.36m-442.88,9.85c-0.07,1.24 -0.14,2.49 -0.2,3.63c0.7,0.24 1.01,0.44 1.32,0.44c36.78,0.04 73.57,0.04 110.35,0.14c2.81,0 3.42,-1.37 4.17,-3.75c3.36,-10.59 6.6,-21.25 10.73,-31.55c3.06,-7.63 7.42,-14.73 11.2,-22.09c-0.41,-0.46 -0.67,-0.93 -1.07,-1.16c-1.15,-0.66 -2.33,-1.28 -3.54,-1.82c-23.73,-10.56 -48.79,-9.92 -73.04,-4.89c-32.19,6.68 -51.72,28.33 -59.92,61.05m507.01,-102.38c9.36,-11.84 12.65,-25.03 9.09,-39.84c-5.16,-21.43 -26.22,-36.23 -48.39,-33.93c-21.93,2.27 -39.53,20.89 -40.36,42.68c-0.72,19.31 10.3,36.72 27.84,43.94c18.01,7.42 37.93,2.64 51.82,-12.85m-447.87,-62.87c-1.08,1.04 -2.2,2.04 -3.23,3.12c-13.86,14.62 -16.26,36.8 -5.86,54.06c10.44,17.34 30.82,25.57 50.45,20.37c19.23,-5.1 33.42,-23.13 33.26,-43.05c-0.15,-18.43 -8.51,-32.52 -24.99,-40.71c-17.26,-8.57 -33.89,-6.18 -49.63,6.21m110.07,332.21c-0.08,-0.62 0.07,-1.46 -0.28,-1.83c-5.29,-5.47 -10.64,-10.89 -16.62,-16.98c-6.2,6.29 -12.03,12.14 -17.72,18.12c-0.54,0.57 -0.62,2.44 -0.13,2.96c5.18,5.53 10.53,10.9 16.16,16.65c6.54,-6.56 12.39,-12.44 18.59,-18.92z" fill="#060606" id="svg_2" opacity="1"/>
  <path d="m643,425.01c-24.96,0 -49.42,0 -74.05,0c0,-7.68 0,-14.93 0,-22.31c37.52,0 74.76,0 112.31,0c0,7.35 0,14.44 0,22.31c-12.61,0 -25.19,0 -38.26,0z" fill="#090909" id="svg_12" opacity="1"/>
  <path d="m113,402.42c24.13,0 47.76,0 71.72,0c0,7.64 0,14.85 0,22.33c-37.43,0 -74.67,0 -112.25,0c0,-7.33 0,-14.55 0,-22.33c13.46,0 26.74,0 40.53,0z" fill="#090909" id="svg_13" opacity="1"/>
  <path d="m77.11,447.61c36.1,0 71.71,0 107.62,0c0,7.51 0,14.61 0,22.12c-37.26,0 -74.61,0 -112.57,0c0,-6.58 -0.16,-13.19 0.2,-19.78c0.04,-0.86 2.78,-1.56 4.75,-2.34z" fill="#030303" id="svg_14" opacity="1"/>
  <path d="m668.98,447.61c4.3,0 8.1,0 12.23,0c0,7.68 0,14.91 0,22.32c-37.49,0 -74.73,0 -112.25,0c0,-7.42 0,-14.64 0,-22.32c33.34,0 66.43,0 100.02,0z" fill="#030303" id="svg_15" opacity="1"/>
  <path d="m329.07,176.81c-2.96,0 -5.44,0 -8.32,0c0,-7.6 0,-14.94 0,-22.48c7.33,0 14.42,0 21.9,0c0,7.29 0,14.5 0,22.48c-4.26,0 -8.67,0 -13.58,0z" fill="#0E0E0E" id="svg_16" opacity="1"/>
  <path d="m381.87,176.79c-5.58,0 -10.69,0 -16.06,0c0,-7.67 0,-14.89 0,-22.38c7.4,0 14.59,0 22.06,0c0,7.42 0,14.62 0,22.38c-1.97,0 -3.75,0 -6,0z" fill="#090909" id="svg_17" opacity="1"/>
  <path d="m433.27,172.81c-0.77,1.65 -1.49,3.78 -2.3,3.82c-6.61,0.27 -13.23,0.15 -20.06,0.15c0,-7.65 0,-14.76 0,-22.26c7.25,0 14.46,0 22.36,0c0,5.96 0,11.89 0,18.29z" fill="#090909" id="svg_18" opacity="1"/>
  <path d="m170.16,86.5c-2.62,0 -4.77,0 -7.34,0c0,-7.56 0,-14.88 0,-22.43c7.23,0 14.33,0 21.83,0c0,7.2 0,14.41 0,22.43c-4.56,0 -9.29,0 -14.49,0z" fill="#080808" id="svg_19" opacity="1"/>
  <path d="m83,63.86c3.98,0 7.47,0 11.35,0c0,7.5 0,14.73 0,22.3c-7.15,0 -14.39,0 -21.93,0c0,-7.34 0,-14.56 0,-22.3c3.52,0 6.8,0 10.58,0z" fill="#090909" id="svg_20" opacity="1"/>
  <path d="m130.91,86.5c-4.74,0 -9.01,0 -13.46,0c0,-7.69 0,-14.76 0,-22.24c7.3,0 14.5,0 22.08,0c0,7.07 0,14.29 0,22.24c-2.63,0 -5.39,0 -8.62,0z" fill="#090909" id="svg_21" opacity="1"/>
  <path d="m499.98,406c-6.06,55.52 -51.38,101.2 -106.85,108.09c-61.34,7.61 -117.78,-29.02 -135.36,-87.85c-21.75,-72.82 27.88,-148.79 103.3,-158.11c68.71,-8.49 130.06,39.11 138.72,108.08c1.22,9.64 0.22,19.56 0.19,29.79m-53,58.48c25.57,-25.46 35.83,-56.18 29.69,-91.62c-9.82,-56.7 -65.85,-93.28 -122.38,-80.65c-59.78,13.36 -94.2,77.32 -72.49,134.69c25.71,67.96 110.48,87.55 165.18,37.58z" fill="#070707" id="svg_22" opacity="1"/>
  <path d="m387,424.98c15.48,0 30.46,0 45.85,0c0,7.47 0,14.69 0,22.28c-37.17,0 -74.41,0 -112.06,0c0,-7.12 0,-14.34 0,-22.28c21.89,0 43.8,0 66.21,0z" fill="#080808" id="svg_24" opacity="1"/>
  <path d="m385,334.77c16.15,0 31.79,0 47.84,0c0,7.44 0,14.66 0,22.2c-37.28,0 -74.64,0 -112.21,0c0,-7.32 0,-14.43 0,-22.2c21.35,0 42.61,0 64.37,0z" fill="#020202" id="svg_25" opacity="1"/>
  <path d="m349,379.87c28.14,0 55.78,0 83.83,0c0,7.43 0,14.64 0,22.21c-37.25,0 -74.6,0 -112.18,0c0,-7.34 0,-14.45 0,-22.21c9.3,0 18.58,0 28.35,0z" fill="#020202" id="svg_26" opacity="1"/>
 </g>
</svg>