<?xml version="1.0" standalone="no"?>
<!DOCTYPE svg PUBLIC "-//W3C//DTD SVG 20010904//EN"
 "http://www.w3.org/TR/2001/REC-SVG-20010904/DTD/svg10.dtd">
<svg version="1.0" xmlns="http://www.w3.org/2000/svg"
 width="512.000000pt" height="512.000000pt" viewBox="0 0 512.000000 512.000000"
 preserveAspectRatio="xMidYMid meet">

<g transform="translate(0.000000,512.000000) scale(0.100000,-0.100000)"
fill="#000000" stroke="none">
<path d="M4413 5106 c-124 -40 -213 -165 -213 -297 0 -52 29 -139 59 -178 l19
-24 -322 -483 c-305 -458 -322 -482 -346 -476 -14 4 -54 7 -90 6 -72 -1 -133
-25 -191 -73 l-34 -29 -215 109 -216 110 0 67 c0 121 -61 220 -169 273 -204
100 -437 -44 -439 -271 0 -41 6 -83 18 -113 l19 -49 -275 -275 -275 -275 -34
18 c-52 29 -189 26 -251 -4 -108 -54 -171 -152 -175 -272 l-2 -74 -215 -108
-216 -108 -44 34 c-70 53 -123 69 -208 64 -180 -12 -297 -145 -286 -322 20
-313 442 -392 579 -109 15 31 24 72 27 123 l4 76 215 108 214 107 37 -29 c73
-58 100 -67 197 -67 78 0 97 4 140 27 105 56 165 154 165 273 0 49 -7 84 -21
115 l-20 44 274 274 275 275 48 -19 c75 -29 176 -25 245 9 30 14 66 38 78 51
l23 25 219 -110 219 -109 0 -63 c0 -88 23 -148 81 -211 61 -66 127 -97 213
-98 125 -2 229 61 283 170 50 102 35 245 -33 323 -12 14 25 74 304 495 l318
479 99 0 c85 0 107 3 145 23 186 97 228 340 84 487 -24 26 -66 56 -92 67 -58
26 -162 33 -219 14z m162 -156 c144 -70 93 -290 -68 -290 -144 0 -211 169
-105 267 49 46 109 54 173 23z m-1974 -960 c31 0 98 -68 109 -111 31 -114 -78
-224 -189 -190 -119 35 -155 175 -67 260 33 32 87 53 114 45 8 -2 22 -4 33 -4z
m1027 -516 c116 -89 54 -274 -92 -276 -143 -3 -210 170 -104 269 53 50 135 53
196 7z m-1969 -474 c105 -53 110 -208 9 -270 -74 -45 -181 -12 -219 68 -66
134 76 271 210 202z m-962 -491 c69 -43 94 -146 51 -209 -33 -48 -70 -72 -121
-77 -158 -18 -231 204 -95 287 45 27 120 27 165 -1z"/>
<path d="M4215 4029 c-17 -4 -44 -22 -60 -39 l-30 -31 -3 -1905 -2 -1904 -100
0 -100 0 0 1159 0 1158 -23 34 c-12 19 -38 42 -57 51 -40 20 -127 24 -164 7
-33 -15 -50 -57 -37 -92 13 -33 39 -47 90 -47 l41 0 0 -1135 0 -1135 -240 0
-240 0 2 1133 3 1132 54 5 c61 7 81 25 81 76 0 24 -8 39 -27 54 -24 19 -37 22
-98 18 -80 -5 -117 -24 -143 -72 -16 -29 -17 -121 -20 -1188 l-2 -1158 -95 0
-95 0 0 1398 c0 1310 -1 1399 -18 1431 -9 19 -30 44 -45 55 -27 20 -41 21
-327 21 -286 0 -300 -1 -327 -21 -15 -11 -36 -36 -45 -55 -17 -32 -18 -121
-18 -1431 l0 -1398 -95 0 -94 0 -3 918 -3 917 -24 34 c-42 58 -60 61 -368 61
-312 0 -329 -3 -365 -71 -17 -32 -18 -82 -18 -946 l0 -913 -100 0 -100 0 0
670 c0 740 3 710 -63 750 -30 19 -52 20 -322 20 -270 0 -292 -1 -322 -20 -66
-40 -63 -10 -63 -750 l0 -670 -59 0 c-44 0 -65 -5 -85 -21 -36 -28 -36 -80 0
-108 l27 -21 2447 0 2447 0 27 21 c36 28 36 80 0 108 -20 16 -41 21 -85 21
l-59 0 0 840 c0 827 0 840 -20 860 -25 25 -71 26 -101 1 l-24 -19 -3 -841 -2
-841 -235 0 -235 0 0 1870 0 1870 235 0 235 0 2 -886 3 -886 28 -24 c34 -29
56 -30 91 -3 l26 20 0 919 0 919 -31 35 c-17 20 -47 40 -67 46 -45 12 -534 12
-577 -1z m-1415 -2499 l0 -1380 -240 0 -240 0 0 1380 0 1380 240 0 240 0 0
-1380z m-970 -490 l0 -890 -240 0 -240 0 0 890 0 890 240 0 240 0 0 -890z
m-980 -245 l0 -645 -235 0 -235 0 0 645 0 645 235 0 235 0 0 -645z"/>
</g>
</svg>
