<?xml version="1.0"?>
<svg width="488" height="436" xmlns="http://www.w3.org/2000/svg" xmlns:svg="http://www.w3.org/2000/svg" enable-background="new 0 0 488 436" version="1.1" xml:space="preserve">
 <g class="layer">
  <title>Layer 1</title>
  <path d="m426.1,376.18c0.17,14.62 -6.31,25.02 -19.15,30.38c-12.52,5.22 -24.37,2.42 -34.04,-7.16c-23.32,-23.09 -46.45,-46.38 -69.63,-69.61c-5.72,-5.73 -8.97,-12.67 -9.49,-21.41c-44.45,28.01 -91.32,34.75 -140.59,16.89c-36.49,-13.23 -64.3,-37.57 -82.72,-71.66c-36.04,-66.71 -19.16,-146.61 38.46,-193.61c60.6,-49.42 143.08,-44.54 198.16,2.03c57.75,48.83 77,141.75 20.8,214.7c13.8,1.26 21.3,11.46 29.91,20.01c19.15,19.02 38.2,38.16 57.31,57.23c6.07,6.05 10.41,12.93 10.98,22.21m-296.81,-264.38c-29.08,32.22 -34.16,82.3 -12.13,119.48c22.9,38.65 63.52,57.49 108.32,50.23c38.99,-6.32 71.77,-37.5 81.58,-77.76c12.74,-52.27 -17.21,-106.86 -70.4,-122.41c-41.13,-12.03 -77.24,-1.39 -107.37,30.46z" fill="#010202" id="svg_2" opacity="1"/>
  <path d="m260.9,200.21c-10.74,0.06 -21.06,0.06 -32.18,0.06c0,5.94 0.03,11.35 -0.01,16.77c-0.03,4.66 0.16,9.36 -0.28,13.98c-1.03,10.64 -9.43,18.32 -20.01,18.67c-9.84,0.33 -19.16,-6.73 -20.44,-16.9c-1.09,-8.7 -0.6,-17.61 -0.79,-26.42c-0.04,-1.79 -0.01,-3.58 -0.01,-5.71c-9.48,0 -18.45,0.19 -27.41,-0.04c-14.23,-0.37 -23.58,-11.59 -20.99,-24.87c1.89,-9.71 10.39,-16.36 21.5,-16.56c8.79,-0.15 17.59,-0.03 26.9,-0.03c0,-9.11 -0.12,-17.89 0.03,-26.66c0.26,-14.6 11.28,-24.23 24.76,-21.8c9.82,1.76 16.51,10.14 16.71,21.29c0.17,8.82 0.04,17.64 0.04,27.17c8.73,0 17.36,-0.44 25.91,0.17c4.81,0.34 10.06,1.49 14.11,3.94c7.12,4.3 9.86,11.47 8.56,19.81c-1.45,9.25 -7.08,14.73 -16.4,17.13z" fill="#030303" id="svg_4" opacity="1"/>
 </g>
</svg>