<svg version="1.1" id="Layer_1" xmlns="http://www.w3.org/2000/svg" xmlns:xlink="http://www.w3.org/1999/xlink" x="0px" y="0px"
	 width="100%" viewBox="0 0 1008 848" enable-background="new 0 0 1008 848" xml:space="preserve">
<path fill="#000000" opacity="1.000000" stroke="none" 
	d="
M215.545837,547.408569 
	C197.204285,524.653931 182.168625,500.215179 171.102066,473.600677 
	C165.148743,459.283295 160.557220,444.382202 156.427261,429.319794 
	C147.869995,398.110504 146.647903,366.389008 147.949615,334.434998 
	C148.658401,317.035980 152.119263,300.007446 156.238327,283.043732 
	C159.852402,268.159821 165.184631,253.914703 170.275711,239.581131 
	C174.273254,228.326340 180.488754,218.004196 186.047348,207.434311 
	C195.294235,189.851013 207.076141,173.952469 219.756180,158.791367 
	C234.828339,140.770096 252.154510,125.097733 271.204010,111.237396 
	C290.074982,97.506927 309.984619,85.713600 331.515808,76.770897 
	C347.881805,69.973511 364.698975,64.613678 381.989899,60.428020 
	C403.233704,55.285488 424.682526,52.737309 446.434265,52.167114 
	C464.426178,51.695477 482.366791,53.119637 500.065033,56.003033 
	C518.825989,59.059555 537.201233,64.077469 555.105225,70.621140 
	C581.545166,80.284569 606.120361,93.295494 628.956055,109.892639 
	C641.631226,119.105049 653.750854,128.883667 664.823303,139.849350 
	C687.843384,162.647491 706.747314,188.543427 721.557495,217.429077 
	C731.425171,236.674866 738.479614,256.887024 744.602539,277.602631 
	C754.859192,312.303558 755.185913,347.608826 753.545715,383.258850 
	C752.838135,398.639191 749.835815,413.546204 746.164062,428.304352 
	C742.735962,442.083618 737.689819,455.414948 732.727783,468.769653 
	C725.498413,488.226624 714.719971,505.696045 704.365356,523.439819 
	C701.897156,527.669312 704.707947,528.430054 707.488525,529.230713 
	C712.409424,530.647644 717.499451,531.081909 722.362427,533.171326 
	C734.458130,538.368286 743.602783,547.243042 752.700867,556.216553 
	C765.358582,568.700928 777.865234,581.338928 790.389099,593.958313 
	C802.212097,605.871460 813.902100,617.917297 825.779907,629.775269 
	C841.526917,645.496033 857.604553,660.890686 873.147156,676.809265 
	C883.769348,687.688477 891.881958,699.886475 895.665588,715.319092 
	C902.465698,743.054688 889.183655,771.892334 868.995422,787.004883 
	C853.655945,798.487671 836.652954,803.154480 818.071228,801.056091 
	C806.715210,799.773743 796.034546,795.451111 786.518005,788.546875 
	C773.652527,779.212830 763.568848,767.027893 752.298096,756.063782 
	C739.927185,744.029480 727.661926,731.884888 715.460083,719.679016 
	C704.190552,708.405884 693.079712,696.974365 681.874023,685.637146 
	C668.467163,672.072876 654.549927,659.008667 641.694885,644.904907 
	C633.246460,635.635803 627.298096,625.114746 625.565491,612.411926 
	C624.811096,606.880737 622.621704,606.284790 617.744873,609.130798 
	C598.124634,620.581055 578.640930,632.136841 556.929260,639.637085 
	C539.046997,645.814392 521.149841,651.300964 502.459930,654.570801 
	C471.655182,659.960144 440.773102,659.460327 409.943420,656.354492 
	C387.317291,654.075012 365.629181,647.338440 344.211700,639.555481 
	C319.838654,630.698425 297.437042,618.355713 276.152771,603.825134 
	C261.166870,593.594360 247.657303,581.493164 234.718948,568.832397 
	C227.969620,562.227966 222.079483,554.745483 215.545837,547.408569 
M312.737732,141.292618 
	C295.432861,152.333328 279.793243,165.483170 265.749817,180.343384 
	C250.660706,196.310074 237.660065,213.948654 227.324524,233.447311 
	C221.806808,243.856796 216.283691,254.355850 212.535385,265.460999 
	C209.269287,275.137451 206.279617,284.977051 203.756241,294.953766 
	C199.709457,310.953400 197.027390,327.118744 196.464340,343.514496 
	C195.986298,357.434937 196.055496,371.351807 197.953445,385.346252 
	C199.766037,398.711243 202.096466,411.968536 205.793350,424.782745 
	C210.361038,440.615448 216.078888,456.127899 223.717255,470.953674 
	C232.900406,488.777832 243.897171,505.300262 256.744659,520.514893 
	C274.637024,541.704041 295.356262,559.811951 319.317383,573.988892 
	C331.157135,580.994019 343.109894,587.987061 356.070801,592.585388 
	C368.356445,596.944153 380.747589,601.051758 393.494781,604.208618 
	C411.004028,608.544922 428.779572,610.886963 446.583221,611.365173 
	C472.183350,612.052734 497.452911,608.306641 522.083374,600.793213 
	C537.164612,596.192688 551.934082,590.987915 566.018005,583.744873 
	C583.986145,574.504272 600.873901,563.590454 616.231934,550.612854 
	C628.894653,539.912720 640.340576,527.880249 650.776245,514.807129 
	C664.027588,498.206726 675.055359,480.367798 684.046387,461.237915 
	C691.173035,446.074982 695.903992,430.097839 700.030273,413.837799 
	C704.671509,395.548370 706.622559,376.983704 707.533447,358.307617 
	C708.311951,342.346252 705.457947,326.597565 702.862793,310.850586 
	C699.689331,291.593781 693.965881,273.148468 686.444397,255.252502 
	C676.546631,231.702621 663.237427,210.149353 646.619629,190.745316 
	C634.508484,176.603546 621.164246,163.767456 606.287109,152.409180 
	C591.691895,141.266068 575.997925,132.216599 559.576721,124.186546 
	C548.045776,118.547852 535.848938,114.934547 523.735779,110.895142 
	C506.125549,105.022606 487.947327,102.027489 469.692291,100.628357 
	C447.650970,98.939034 425.606140,100.381760 403.754150,105.029198 
	C387.330994,108.522064 371.178589,112.673149 355.659821,118.969467 
	C340.904938,124.955849 326.670410,132.085709 312.737732,141.292618 
z"/>
<path fill="#000000" opacity="1.000000" stroke="none" 
	d="
M415.045898,158.866028 
	C437.641113,152.134094 460.234802,152.462662 482.530975,157.006577 
	C497.776367,160.113586 511.675842,167.260132 524.851135,176.009338 
	C536.965820,184.054291 547.107361,193.790695 555.787659,205.201889 
	C565.928040,218.532516 573.104919,233.350433 577.431641,249.586609 
	C580.088318,259.555847 582.147034,269.548981 582.366699,279.916992 
	C582.770142,298.964111 578.798340,317.017242 571.482666,334.580231 
	C563.316040,354.186005 550.920044,370.622772 534.859619,384.135590 
	C524.707397,392.677429 513.062256,399.212067 500.975586,404.887329 
	C489.276581,410.380585 482.632111,420.319061 478.473236,432.159058 
	C474.207916,444.302124 476.630798,456.894989 476.110626,469.284393 
	C475.840576,475.716339 474.985718,481.806244 470.867432,487.084137 
	C465.268860,494.259125 454.147278,498.312622 445.947632,496.001770 
	C436.134674,493.236237 428.172455,484.228394 427.928986,474.389954 
	C427.579010,460.245270 426.743469,446.003357 428.879181,431.970825 
	C430.295197,422.667236 433.434082,413.691498 437.589142,405.127930 
	C445.398163,389.033417 456.889923,376.109650 471.671204,366.279205 
	C478.397614,361.805756 486.073303,358.787598 493.031464,354.629181 
	C510.669525,344.087952 522.811340,329.112030 529.405212,309.480896 
	C532.527893,300.183960 534.058777,290.675720 533.733521,281.100189 
	C533.344421,269.643280 530.694519,258.465698 525.524414,248.036423 
	C514.238220,225.269623 496.117188,210.740646 471.803436,204.045166 
	C466.286865,202.526001 460.611023,201.254425 454.665039,201.194702 
	C435.901672,201.006241 419.045502,206.496658 403.916931,217.358170 
	C389.750427,227.528931 379.826233,240.848236 374.344421,257.547943 
	C371.479767,266.274780 369.690796,275.059326 369.136292,284.240143 
	C368.538422,294.139709 360.156677,302.302155 350.206085,304.153961 
	C339.029480,306.233978 328.181274,300.219940 323.889313,291.331116 
	C320.387604,284.078949 320.789978,276.536438 322.068054,269.340118 
	C324.289490,256.832214 327.308136,244.515381 332.283844,232.584946 
	C338.621246,217.389694 347.701416,204.303467 358.992310,192.697098 
	C374.569794,176.684418 393.430878,165.797424 415.045898,158.866028 
z"/>
<path fill="#000000" opacity="1.000000" stroke="none" 
	d="
M445.796692,562.746338 
	C432.929932,558.619019 425.365906,546.420715 428.335724,534.380920 
	C431.298828,522.368469 442.202698,513.773438 456.064270,515.693115 
	C464.874756,516.913269 474.006134,526.362793 475.554169,535.951172 
	C477.138031,545.761719 472.001434,555.570557 463.540344,560.165344 
	C457.953186,563.199402 452.277527,563.841309 445.796692,562.746338 
z"/>
</svg>