<?xml version="1.0"?>
<svg width="452" height="430" xmlns="http://www.w3.org/2000/svg" xmlns:svg="http://www.w3.org/2000/svg" enable-background="new 0 0 452 430" version="1.1" xml:space="preserve">
 <g class="layer">
  <title>Layer 1</title>
  <path d="m344.81,128.19c23.57,23.57 46.97,46.8 70.18,70.23c16.62,16.77 14.2,42.75 -5.39,55.13c-4.71,2.97 -10.76,3.98 -16.32,5.43c-2.46,0.64 -5.22,0.1 -8.34,0.1c0,2.34 0,4.12 0,5.91c0,35.66 0.02,71.32 0,106.99c-0.02,26.26 -17.64,43.97 -43.78,44.01c-18.83,0.03 -37.66,0.02 -56.49,0.01c-9.63,-0.01 -13.66,-4.04 -13.67,-13.65c-0.01,-28.5 0.01,-56.99 -0.01,-85.49c0,-13.74 -7.57,-21.38 -21.28,-21.45c-10.66,-0.06 -21.33,-0.08 -31.99,0.01c-13.08,0.11 -20.72,7.87 -20.73,20.97c-0.02,28.49 0,56.99 -0.01,85.49c-0.01,10.27 -3.88,14.11 -14.21,14.12c-18.66,0.01 -37.33,0.02 -55.99,-0.01c-25.91,-0.04 -43.7,-17.73 -43.73,-43.54c-0.04,-35.83 -0.01,-71.65 -0.01,-107.48c0,-1.79 0,-3.58 0,-4.91c-6.28,-1.01 -12.29,-1.05 -17.6,-2.99c-25.05,-9.2 -31.4,-39.44 -12.45,-58.66c17.54,-17.79 35.32,-35.34 52.99,-53.01c33.68,-33.68 67.34,-67.38 101.05,-101.05c16.59,-16.57 37.26,-16.63 53.79,-0.13c27.93,27.88 55.83,55.81 83.99,83.97z" fill="#000000" id="svg_2" opacity="1"/>
 </g>
</svg>