<?xml version="1.0"?>
<svg width="437" height="414" xmlns="http://www.w3.org/2000/svg" xmlns:svg="http://www.w3.org/2000/svg" enable-background="new 0 0 437 414" version="1.1" xml:space="preserve">
 <g class="layer">
  <title>Layer 1</title>
  <path d="m348.78,394.87c-6.96,1.51 -13.55,3.86 -20.2,4.05c-19.31,0.53 -38.65,0.2 -57.98,0.18c-8.74,-0.02 -12.87,-4.11 -12.88,-12.83c-0.04,-28.49 -0.37,-57 0.14,-85.48c0.23,-13.28 -8.67,-22.92 -22.24,-22.13c-10.63,0.62 -21.32,0.06 -31.99,0.14c-11.93,0.09 -19.72,7.79 -19.76,19.7c-0.08,28.66 -0.02,57.33 -0.03,85.99c0,11.03 -3.6,14.61 -14.69,14.61c-19,0.01 -38,0.07 -57,-0.01c-24.49,-0.11 -42.14,-17.73 -42.21,-42.3c-0.11,-36 -0.03,-72 -0.03,-107.99c0,-1.82 0,-3.63 0,-5.59c-5.11,-0.62 -10.16,-0.59 -14.83,-1.91c-26.75,-7.54 -35.22,-39.28 -15.72,-59.21c18.52,-18.92 37.39,-37.51 56.12,-56.24c32.74,-32.74 65.92,-65.06 98.05,-98.39c14.26,-14.8 39.67,-15.03 54.29,-0.17c50.57,51.41 101.58,102.41 152.96,153.01c17.24,16.97 14.74,47.34 -6.52,57.74c-6.64,3.25 -14.45,4.1 -22.64,6.29c0,0.43 0,2.2 0,3.97c0,35.5 -0.11,70.99 0.05,106.49c0.08,17.74 -7.05,31.13 -22.89,40.08m-4.85,-239.3c-37.47,-37.45 -74.94,-74.91 -112.42,-112.35c-7.44,-7.43 -14.15,-7.39 -21.59,0.04c-19.56,19.55 -39.11,39.11 -58.67,58.66c-31.8,31.81 -63.6,63.63 -95.41,95.43c-4.1,4.1 -6.05,8.79 -3.71,14.47c2.36,5.73 6.86,8.3 12.99,8.25c4.83,-0.04 9.67,-0.06 14.5,0c8.26,0.1 12.64,4.42 12.71,12.64c0.08,8.16 0.02,16.33 0.02,24.49c0,32.83 -0.02,65.66 0.02,98.49c0.01,13.36 7.77,21.14 21.02,21.2c3.84,0.02 7.67,0.01 11.5,0.01c11.96,0 23.92,0 36.36,0c0,-2.25 0,-4.03 0,-5.82c0,-23.99 -0.09,-47.99 0.02,-71.98c0.12,-25.03 17.82,-42.68 42.87,-42.9c10.83,-0.09 21.66,-0.06 32.49,0c25.97,0.12 43.44,17.67 43.49,43.72c0.05,23.83 0.01,47.66 0.01,71.49c0,1.75 0,3.51 0,5.49c15.86,0 31.03,-0.44 46.16,0.13c12.28,0.47 23.17,-6.73 22.94,-23.08c-0.55,-39.99 -0.19,-79.99 -0.17,-119.98c0,-9.8 4.15,-13.88 14.04,-13.91c3.83,-0.01 7.67,-0.14 11.49,0.03c6.35,0.29 11.59,-1.46 14.45,-7.57c2.57,-5.52 1.02,-10.75 -4.7,-16.49c-13.3,-13.33 -26.61,-26.64 -40.41,-40.46z" fill="#030303" id="svg_2" opacity="1"/>
 </g>
</svg>