<?xml version="1.0"?>
<svg width="432" height="419" xmlns="http://www.w3.org/2000/svg" xmlns:svg="http://www.w3.org/2000/svg" enable-background="new 0 0 432 419" version="1.1" xml:space="preserve">
 <g class="layer">
  <title>Layer 1</title>
  <path d="m882.89,388c71.99,0 143.54,0 215.11,0c0,-139.67 0,-279.33 0,-419c-121,0 -242,0 -363,0c0,139.67 0,279.33 0,419c49.16,0 98.31,0 147.89,0m74.36,-20c-40.88,0 -81.76,0.05 -122.64,-0.07c-5.29,-0.01 -10.65,-0.42 -15.86,-1.49c-35.28,-7.25 -60.97,-44.12 -61.04,-87.72c-0.1,-68.48 -0.05,-136.95 0.03,-205.43c0.01,-5.47 0.42,-11 1.19,-16.39c6.02,-41.98 37.03,-72.78 73.57,-72.87c57.68,-0.12 115.35,-0.06 173.04,0.03c4.59,0.01 9.24,0.53 13.76,1.47c35.11,7.26 60.95,44.09 61.02,87.24c0.12,68.81 0.06,137.62 -0.02,206.42c-0.01,5.31 -0.44,10.67 -1.18,15.9c-5.97,41.58 -36.8,72.47 -72.73,72.87c-16.1,0.18 -32.2,0.04 -49.14,0.04z" fill="#F7F9FA" id="svg_1" opacity="1" transform="matrix(1 0 0 1 0 0)"/>
  <path d="m172,404c-19.66,0 -38.82,0.14 -57.98,-0.04c-42.76,-0.4 -79.45,-31.29 -86.55,-72.87c-0.89,-5.23 -1.4,-10.59 -1.41,-15.9c-0.09,-68.8 -0.16,-137.61 -0.02,-206.42c0.08,-43.15 30.84,-79.98 72.62,-87.24c5.38,-0.94 10.92,-1.46 16.38,-1.47c68.65,-0.09 137.29,-0.15 205.93,-0.03c43.48,0.09 80.39,30.89 87.55,72.87c0.92,5.39 1.41,10.92 1.42,16.39c0.09,68.48 0.15,136.95 0.03,205.43c-0.08,43.6 -30.65,80.47 -72.64,87.72c-6.2,1.07 -12.58,1.48 -18.88,1.49c-48.65,0.12 -97.3,0.07 -146.45,0.07m28.94,-148.5c0,11.33 -0.12,22.66 0.09,33.98c0.05,2.9 0.6,6.05 1.84,8.64c3.49,7.27 11.19,10.56 19.34,8.79c7.32,-1.59 12.75,-8.32 12.8,-16.4c0.12,-18.33 0.04,-36.65 0.05,-54.97c0.01,-6.6 0.36,-6.96 7.13,-6.96c17.99,-0.01 35.98,0.07 53.97,-0.02c13.06,-0.06 21.32,-11.93 16.43,-23.72c-3.19,-7.72 -9.61,-10.61 -17.62,-10.6c-17.66,0 -35.32,0 -52.97,-0.01c-6.71,0 -6.94,-0.24 -6.94,-7.14c0,-17.66 0.02,-35.32 -0.01,-52.97c-0.02,-10.95 -7.16,-18.81 -17,-18.85c-9.83,-0.04 -17.08,7.86 -17.1,18.75c-0.03,17.65 -0.01,35.31 -0.01,52.96c0,7.04 -0.17,7.2 -7.41,7.2c-17.66,0.01 -35.32,-0.04 -52.97,0.02c-8.3,0.03 -14.56,3.94 -17.19,10.52c-4.72,11.83 3.28,23.65 16.44,23.8c17.99,0.2 35.98,0.05 53.97,0.06c6.79,0 7.15,0.36 7.16,6.93c0.01,6.33 0,12.66 0,19.99z" fill="#000000" id="svg_2" opacity="1"/>
  <path d="m765.94,195c0,-6.83 0.01,-13.16 0,-19.49c-0.01,-6.57 -0.37,-6.93 -7.16,-6.93c-17.99,-0.01 -35.98,0.14 -53.97,-0.06c-13.16,-0.15 -21.16,-11.97 -16.44,-23.8c2.63,-6.58 8.89,-10.49 17.19,-10.52c17.65,-0.06 35.31,-0.01 52.97,-0.02c7.24,0 7.41,-0.16 7.41,-7.2c0,-17.65 -0.02,-35.31 0.01,-52.96c0.02,-10.89 7.27,-18.79 17.1,-18.75c9.84,0.04 16.98,7.9 17,18.85c0.03,17.65 0.01,35.31 0.01,52.97c0,6.9 0.23,7.14 6.94,7.14c17.65,0.01 35.31,0.01 52.97,0.01c8.01,-0.01 14.43,2.88 17.62,10.6c4.89,11.79 -3.37,23.66 -16.43,23.72c-17.99,0.09 -35.98,0.01 -53.97,0.02c-6.77,0 -7.12,0.36 -7.13,6.96c-0.01,18.32 0.07,36.64 -0.05,54.97c-0.05,8.08 -5.48,14.81 -12.8,16.4c-8.15,1.77 -15.85,-1.52 -19.34,-8.79c-1.24,-2.59 -1.79,-5.74 -1.84,-8.64c-0.21,-11.32 -0.09,-22.65 -0.09,-34.48z" fill="#F5F7F8" id="svg_3" opacity="1"/>
 </g>
</svg>