<?xml version="1.0"?>
<svg width="445" height="440" xmlns="http://www.w3.org/2000/svg" xmlns:svg="http://www.w3.org/2000/svg" enable-background="new 0 0 445 440" version="1.1" xml:space="preserve">
 <g class="layer">
  <title>Layer 1</title>
  <path d="m387.37,56.64c18.19,19.59 26.71,42.49 26.67,68.83c-0.11,62.66 0,125.31 -0.05,187.97c-0.03,41.7 -23.37,76.48 -62.29,91.19c-9.78,3.7 -20.71,5.98 -31.13,6.06c-65.65,0.54 -131.31,0.61 -196.97,0.17c-47.31,-0.33 -87.31,-37.18 -92.72,-84.29c-0.47,-4.13 -0.84,-8.3 -0.85,-12.45c-0.05,-63.49 -0.24,-126.98 0.05,-190.47c0.16,-34.87 15.24,-62.17 44.27,-81.49c14.76,-9.82 31.28,-14.98 48.97,-15.04c65.82,-0.21 131.65,-0.37 197.47,0.07c25.97,0.17 48.09,10.66 66.58,29.45m-47.81,6.14c-7.67,-1.27 -15.33,-3.61 -23.01,-3.65c-62.99,-0.3 -125.99,-0.18 -188.98,-0.14c-3.33,0 -6.7,0.03 -9.96,0.58c-34.26,5.84 -55.63,31.29 -55.64,66.17c-0.02,62.17 -0.02,124.33 0,186.49c0.01,39.09 27.62,66.79 66.58,66.8c62.33,0.02 124.66,0.03 186.99,0c38.71,-0.01 66.47,-27.72 66.49,-66.39c0.03,-62.33 0.02,-124.66 0,-186.99c-0.01,-29.45 -14.47,-51.13 -42.47,-62.87z" fill="#020202" id="svg_2" opacity="1"/>
  <path d="m205.96,265c0,-10.13 0,-19.75 0,-29.96c-2.17,0 -3.94,0 -5.71,0c-18.82,0 -37.65,0.02 -56.47,-0.01c-10.56,-0.02 -17.8,-6.61 -17.77,-16.08c0.04,-9.45 7.28,-15.97 17.87,-15.98c20.47,-0.03 40.93,-0.01 62.08,-0.01c0,-2.06 0,-3.82 0,-5.57c0,-18.83 -0.02,-37.65 0.01,-56.47c0.01,-10.6 6.5,-17.86 15.94,-17.91c9.48,-0.05 16.1,7.19 16.12,17.74c0.03,20.48 0.01,40.96 0.01,62.21c1.95,0 3.7,0 5.44,0c18.99,0 37.98,-0.02 56.97,0.01c10.24,0.02 17.41,6.54 17.53,15.82c0.13,9.45 -7.17,16.22 -17.62,16.24c-18.99,0.03 -37.98,0.01 -56.97,0.01c-1.62,0 -3.24,0 -5.35,0c0,2.26 0,4.05 0,5.83c0,18.82 0.02,37.65 -0.01,56.47c-0.02,10.47 -6.76,17.76 -16.21,17.65c-9.27,-0.11 -15.81,-7.31 -15.85,-17.51c-0.04,-10.66 -0.01,-21.32 -0.01,-32.48z" fill="#020202" id="svg_4" opacity="1"/>
 </g>
</svg>