<svg version="1.1" id="Layer_1" xmlns="http://www.w3.org/2000/svg" xmlns:xlink="http://www.w3.org/1999/xlink" x="0px" y="0px"
	 width="100%" viewBox="0 0 400 400" enable-background="new 0 0 400 400" xml:space="preserve">
<path fill="#000000" opacity="1.000000" stroke="none" 
	d="
M344.204620,243.973221 
	C353.053345,264.229462 356.790497,285.232086 358.453613,306.754089 
	C359.481842,320.059418 360.135468,333.261414 357.448273,346.489044 
	C352.394714,371.365265 330.506439,391.504669 305.377930,394.400574 
	C298.732452,395.166412 292.112366,395.369751 285.456604,395.368134 
	C224.322113,395.353241 163.187393,395.430847 102.053230,395.280243 
	C74.540924,395.212463 51.592346,379.500122 42.290714,354.783325 
	C37.617481,342.365387 37.210419,329.374512 38.012302,316.355743 
	C39.168167,297.590057 41.186157,278.888580 46.877728,260.877411 
	C54.097805,238.029205 64.571136,217.311920 86.655975,204.954819 
	C97.196609,199.057007 108.665894,196.567093 120.588776,195.818207 
	C125.244637,195.525772 129.484985,197.040680 133.376968,199.412079 
	C139.204926,202.963104 144.947983,206.655914 150.681320,210.359390 
	C168.529373,221.888397 188.049866,227.170639 209.149704,224.522598 
	C223.672989,222.699951 237.064438,217.095734 249.187073,208.725372 
	C249.872116,208.252380 250.634079,207.875839 251.265488,207.342285 
	C273.006744,188.968994 294.644989,195.430786 315.755310,208.210297 
	C329.325226,216.425095 337.404297,229.589035 344.204620,243.973221 
M327.539307,265.958832 
	C325.507538,259.777893 323.058228,253.775040 319.893341,248.079163 
	C314.467712,238.314621 307.952209,229.497269 297.466522,224.687836 
	C286.872284,219.828598 276.241882,216.522858 266.018738,225.937256 
	C263.486206,228.269424 260.232513,229.849640 257.223206,231.628082 
	C226.877090,249.561935 195.181458,254.239090 161.474258,241.953888 
	C148.303955,237.153732 136.871048,229.484451 125.199577,222.105026 
	C123.245148,220.869308 121.410072,219.492889 118.820145,219.684174 
	C103.403839,220.822891 91.187080,227.506699 82.376900,240.316193 
	C73.530052,253.179016 68.660271,267.559082 65.813927,282.766632 
	C62.407120,300.968628 60.279850,319.311157 62.435669,337.764862 
	C64.730423,357.407776 80.711159,371.552704 100.700943,371.614441 
	C166.008148,371.816223 231.316864,371.842255 296.623840,371.611633 
	C318.585876,371.534088 335.109680,354.852570 335.603760,332.876678 
	C336.107178,310.486755 334.247589,288.319550 327.539307,265.958832 
z"/>
<path fill="#000000" opacity="1.000000" stroke="none" 
	d="
M249.080170,180.149887 
	C199.524918,212.981277 135.263306,195.342545 111.274689,141.098923 
	C86.488274,85.051247 119.946732,23.373611 178.592117,12.105174 
	C224.816711,3.223331 268.203857,28.375263 283.940948,72.475143 
	C295.816864,105.754845 288.590729,143.960358 261.172913,169.938980 
	C257.422272,173.492752 253.695847,177.067825 249.080170,180.149887 
M265.635437,96.892838 
	C265.320801,94.926300 265.006439,92.959717 264.691467,90.993240 
	C259.721130,59.959484 229.056793,28.814936 186.613281,34.708370 
	C145.291489,40.446053 119.505417,79.226250 128.873566,120.144920 
	C138.512161,162.244858 187.724503,185.869385 226.143951,166.105362 
	C253.531189,152.016602 267.098663,129.036575 265.635437,96.892838 
z"/>
</svg>