<?xml version="1.0"?>
<svg width="384" height="421" xmlns="http://www.w3.org/2000/svg" xmlns:svg="http://www.w3.org/2000/svg" enable-background="new 0 0 384 421" version="1.1" xml:space="preserve">
 <g class="layer">
  <title>Layer 1</title>
  <path d="m265,399c-56.14,0 -111.78,-0.01 -167.43,0c-11.75,0.01 -23.27,-1.33 -34.04,-6.4c-21.62,-10.2 -33.72,-27.55 -35.41,-51.1c-2.12,-29.66 1.28,-58.9 11.94,-86.86c7.91,-20.75 19.9,-38.35 41.2,-47.82c9.61,-4.27 19.69,-6.31 30.06,-6.17c3.77,0.05 7.76,1.8 11.2,3.62c5.13,2.7 9.9,6.12 14.78,9.29c18.75,12.14 38.95,18.68 61.49,15.46c16.3,-2.32 31.26,-8.6 44.04,-18.76c19.14,-15.19 38.07,-10.24 56.85,-0.51c17.62,9.12 27.83,25.01 34.79,42.88c11.54,29.64 15.54,60.58 12.37,92.14c-2.86,28.52 -25.83,50.45 -54.42,53.18c-8.93,0.85 -17.94,0.73 -27.42,1.05z" fill="#000000" id="svg_2" opacity="1"/>
  <path d="m275.51,86.66c6.31,35.05 -1.93,65.14 -28.3,89.33c-36.52,33.5 -92.88,31.88 -127.7,-3.54c-47.19,-48.01 -29.45,-128.21 33.6,-151.84c51.78,-19.41 108.98,11.31 122.4,66.05z" fill="#010101" id="svg_3" opacity="1"/>
 </g>
</svg>