<svg version="1.1" id="Layer_1" xmlns="http://www.w3.org/2000/svg" xmlns:xlink="http://www.w3.org/1999/xlink" x="0px" y="0px"
	 width="100%" viewBox="0 0 432 416" enable-background="new 0 0 432 416" xml:space="preserve">
<path fill="#000000" opacity="1.000000" stroke="none" 
	d="
M82.748352,259.110840 
	C78.909096,253.846909 78.173027,248.100342 78.109482,242.201370 
	C78.039482,235.702560 77.977203,229.201218 78.086304,222.703903 
	C78.146095,219.143234 76.616364,217.702103 73.092171,217.395721 
	C45.894814,215.031113 28.526354,196.684570 28.161894,168.947128 
	C27.739344,136.788651 27.799480,104.617935 28.126877,72.457390 
	C28.380095,47.583565 42.890774,29.525850 65.923950,24.373732 
	C68.334740,23.834476 70.873642,23.667910 73.353340,23.666227 
	C124.682365,23.631395 176.011551,23.581755 227.340424,23.678553 
	C250.819199,23.722830 271.245636,43.367111 272.335297,66.734680 
	C273.601166,93.881088 272.625244,121.047012 272.912750,148.202515 
	C272.993591,155.837433 272.955170,155.838409 280.694427,155.838852 
	C304.859100,155.840225 329.023865,155.794998 353.188385,155.855331 
	C377.226807,155.915344 396.220795,171.368362 400.851166,194.744812 
	C401.653900,198.797409 401.877441,203.020065 401.887878,207.165390 
	C401.966003,238.162582 401.958160,269.160126 401.900818,300.157440 
	C401.878357,312.299683 399.051178,323.556793 391.056366,333.134888 
	C382.112579,343.849854 370.613770,349.518372 356.795563,350.189423 
	C352.892578,350.378967 351.692688,351.353149 351.799988,355.354767 
	C352.022980,363.670135 352.335907,372.011169 351.523773,380.328339 
	C350.623383,389.549377 345.709930,395.984070 337.216736,399.087646 
	C328.718719,402.192963 320.715332,400.464508 314.154724,393.992188 
	C300.986847,381.001404 287.835236,367.991272 274.883545,354.786407 
	C271.706146,351.546844 268.427216,350.217102 263.904144,350.266235 
	C244.907944,350.472748 225.908218,350.373810 206.909805,350.352325 
	C177.244202,350.318756 157.123627,330.225250 157.008667,300.385101 
	C156.916229,276.387451 157.003296,252.389160 156.966003,228.391205 
	C156.962967,226.440491 157.390472,224.414505 156.440247,222.448288 
	C154.402206,222.299347 153.613754,224.031570 152.517487,225.113571 
	C140.419601,237.054016 128.539444,249.220215 116.263580,260.973572 
	C105.570419,271.211578 92.361557,270.381531 82.748352,259.110840 
M253.694031,128.500076 
	C253.687302,109.175964 253.772064,89.851242 253.643692,70.527939 
	C253.548157,56.149067 243.250900,44.467918 229.076584,43.042828 
	C213.637787,41.490604 198.118439,42.509598 182.636978,42.448372 
	C147.820526,42.310669 113.002899,42.350880 78.186134,42.450489 
	C60.302372,42.501648 47.495583,53.714130 47.404076,69.738510 
	C47.210022,103.721413 47.248653,137.706665 47.402981,171.690002 
	C47.460335,184.319351 56.981033,195.318146 69.377197,198.010040 
	C74.996147,199.230209 80.665932,198.469193 86.309258,198.681046 
	C93.677803,198.957642 97.258102,202.509674 97.294640,209.890167 
	C97.347412,220.551590 97.282417,231.213638 97.346695,241.874939 
	C97.360161,244.108582 96.537933,246.921280 99.249687,248.107605 
	C101.977028,249.300766 103.472176,246.786179 105.048317,245.224335 
	C118.891693,231.506653 132.732773,217.785645 146.448669,203.940964 
	C150.082626,200.272903 154.092850,198.567551 159.323303,198.610168 
	C180.811829,198.785278 202.302658,198.717163 223.792526,198.675049 
	C241.662155,198.640030 253.624161,186.732025 253.674194,168.981598 
	C253.711304,155.821182 253.689102,142.660599 253.694031,128.500076 
M252.651611,209.236282 
	C245.342468,214.219910 237.400558,217.064438 228.441452,217.506607 
	C212.947678,218.271332 197.457703,217.852295 181.970459,217.756439 
	C177.716965,217.730118 176.162140,218.559921 176.198883,223.161118 
	C176.410507,249.653427 176.295517,276.148285 176.333694,302.642212 
	C176.336548,304.624023 176.453583,306.654327 176.886322,308.579163 
	C180.117813,322.953186 191.015671,331.493713 206.653549,331.594482 
	C228.147781,331.733032 249.644501,331.734131 271.138062,331.551117 
	C276.177368,331.508179 280.008667,333.005890 283.553986,336.608002 
	C297.345184,350.620209 311.335052,364.436890 325.265106,378.312225 
	C326.801636,379.842743 328.399628,381.629913 330.874023,380.536987 
	C333.219604,379.500916 332.650604,377.177856 332.659485,375.253235 
	C332.705597,365.255707 332.683228,355.257843 332.688232,345.260101 
	C332.693909,333.930115 335.026215,331.636200 346.527405,331.634552 
	C348.860168,331.634216 351.196899,331.715149 353.525055,331.609528 
	C370.171509,330.854309 382.548401,319.293152 382.617096,303.930634 
	C382.768280,270.105652 382.789612,236.278931 382.616333,202.454178 
	C382.540283,187.606018 370.273376,175.386612 355.462982,175.283798 
	C329.470154,175.103333 303.474823,175.297409 277.481689,175.141357 
	C273.693573,175.118607 272.159424,176.519043 271.542786,180.062531 
	C269.438782,192.154007 262.919891,201.510620 252.651611,209.236282 
z"/>
<path fill="#000000" opacity="1.000000" stroke="none" 
	d="
M122.556206,83.880692 
	C130.171432,72.103920 141.503983,70.120384 153.846924,71.002029 
	C158.312073,71.320969 162.644318,72.464546 166.757874,74.562035 
	C179.439407,81.028320 183.655396,93.989296 176.876404,106.578552 
	C173.991867,111.935417 169.987915,116.414551 165.145203,120.058891 
	C159.314697,124.446587 155.847946,129.828751 156.246170,137.452637 
	C156.498337,142.280396 153.265182,144.097672 148.940689,144.559158 
	C144.536530,145.029144 140.646652,144.262924 139.713974,139.221725 
	C137.744461,128.576294 140.680634,119.493546 149.088959,112.392708 
	C151.887390,110.029434 154.799210,107.776611 157.403870,105.213806 
	C160.600754,102.068260 162.049591,98.066238 160.311996,93.795769 
	C158.614899,89.624825 154.745667,88.489754 150.487213,88.193893 
	C144.784836,87.797707 140.059250,89.086403 136.560516,94.095070 
	C133.124573,99.013855 129.936737,99.838776 125.583168,97.659203 
	C121.591255,95.660690 120.128899,91.652397 121.564987,86.578621 
	C121.790710,85.781136 122.114784,85.011490 122.556206,83.880692 
z"/>
<path fill="#000000" opacity="1.000000" stroke="none" 
	d="
M147.085297,150.682739 
	C153.995087,151.615952 157.038315,154.464645 157.301270,159.848938 
	C157.542862,164.795929 154.390732,169.092896 149.750687,170.141891 
	C145.008148,171.214081 140.282455,168.718399 138.426605,164.161514 
	C135.920578,158.008102 139.235077,152.590378 147.085297,150.682739 
z"/>
<path fill="#000000" opacity="1.000000" stroke="none" 
	d="
M330.315674,266.071198 
	C323.085602,262.211578 320.138519,256.214600 321.876556,249.510040 
	C323.397614,243.642563 329.333069,239.449432 335.815979,239.662476 
	C342.480164,239.881485 347.601624,244.311172 348.883759,251.189850 
	C350.859985,261.792816 338.639313,270.197815 330.315674,266.071198 
z"/>
<path fill="#000000" opacity="1.000000" stroke="none" 
	d="
M223.131531,267.183960 
	C210.625336,264.028839 206.053696,252.943359 213.300400,244.327133 
	C216.819763,240.142654 222.991440,238.465561 228.261261,240.261642 
	C233.369873,242.002777 237.010971,246.791336 237.351395,252.216461 
	C237.728500,258.226288 234.938309,263.150116 229.755936,265.580811 
	C227.788940,266.503357 225.741669,267.148468 223.131531,267.183960 
z"/>
<path fill="#000000" opacity="1.000000" stroke="none" 
	d="
M274.965454,240.351868 
	C284.212616,238.750885 290.122803,241.834885 292.444458,249.117691 
	C294.621246,255.946075 291.652405,262.695099 285.138550,265.726044 
	C278.864410,268.645447 271.371582,266.336639 267.769135,260.373810 
	C264.129608,254.349670 265.531952,246.724640 271.130676,242.478409 
	C272.177429,241.684540 273.426025,241.156891 274.965454,240.351868 
z"/>
</svg>