<svg version="1.1" id="Layer_1" xmlns="http://www.w3.org/2000/svg" xmlns:xlink="http://www.w3.org/1999/xlink" x="0px" y="0px"
	 width="100%" viewBox="0 0 368 368" enable-background="new 0 0 368 368" xml:space="preserve">
<path fill="#000000" opacity="1.000000" stroke="none" 
	d="
M89.409416,204.425949 
	C82.100288,210.259811 75.025276,215.817383 68.048180,221.495270 
	C64.978020,223.993744 61.739601,225.314041 57.927563,223.619904 
	C54.120487,221.927979 53.599792,218.535294 53.630928,214.827469 
	C53.700893,206.495132 53.562710,198.160446 53.689087,189.829453 
	C53.735718,186.755356 52.849129,185.526062 49.506176,185.222961 
	C30.490955,183.498810 17.666506,169.233078 17.655912,150.096985 
	C17.637739,117.265099 17.635025,84.433189 17.657564,51.601307 
	C17.671547,31.232824 32.254044,16.669704 52.628967,16.664644 
	C105.626640,16.651482 158.624313,16.648357 211.621979,16.664913 
	C231.900940,16.671247 246.313889,31.010859 246.333832,51.200306 
	C246.362976,80.698975 246.433365,110.198235 246.255569,139.695847 
	C246.227997,144.268906 247.547241,145.786270 252.188889,145.731949 
	C270.685516,145.515457 289.186249,145.621475 307.685364,145.657227 
	C327.644745,145.695801 342.315826,160.417725 342.334290,180.451691 
	C342.364655,213.450226 342.365295,246.448792 342.339783,279.447327 
	C342.325287,298.217438 329.482239,312.424652 310.646759,314.187408 
	C307.018616,314.526947 306.238312,315.970123 306.294189,319.184509 
	C306.439056,327.514954 306.291534,335.850067 306.369720,344.182312 
	C306.402985,347.730164 305.812866,350.975769 302.304688,352.612427 
	C298.774872,354.259186 295.539276,353.251038 292.564392,350.878326 
	C278.626526,339.761780 264.608032,328.745483 250.735748,317.548004 
	C247.980255,315.323792 245.225647,314.294373 241.661407,314.306396 
	C210.829803,314.410400 179.997604,314.399841 149.165710,314.346344 
	C128.269836,314.310120 113.670670,299.653015 113.656166,278.793793 
	C113.636009,249.795090 113.659454,220.796326 113.615311,191.797668 
	C113.612640,190.045410 114.163597,188.170303 112.680809,185.916504 
	C104.943512,192.067337 97.313423,198.132950 89.409416,204.425949 
M126.333710,206.500153 
	C126.337761,229.332748 126.336113,252.165329 126.347664,274.997925 
	C126.356743,292.945648 135.048157,301.632782 153.051208,301.643524 
	C184.050232,301.662018 215.049408,301.698456 246.048096,301.596680 
	C250.122620,301.583313 253.444092,302.729431 256.580414,305.272614 
	C267.321747,313.982513 278.158020,322.575684 288.996368,331.165100 
	C290.221710,332.136169 291.166168,333.760193 293.061951,333.535431 
	C293.229858,333.332306 293.416565,333.212036 293.418030,333.089539 
	C293.510132,325.433014 293.508698,317.774414 293.691864,310.120239 
	C293.823761,304.608948 296.584930,301.921844 302.056641,301.676270 
	C303.720276,301.601624 305.392303,301.709686 307.055389,301.628967 
	C320.193909,300.991241 329.512848,291.920929 329.582855,278.940216 
	C329.759949,246.108887 329.762665,213.275269 329.577393,180.444031 
	C329.508362,168.210922 320.193726,158.647629 308.105499,158.464035 
	C288.610718,158.167969 269.107971,158.415024 249.608795,158.359634 
	C247.074142,158.352448 245.895737,159.281189 244.929153,161.733917 
	C238.585403,177.831253 227.320358,185.330139 209.894730,185.340561 
	C183.895554,185.356125 157.895767,185.439209 131.897797,185.263184 
	C127.465866,185.233170 125.973427,186.643814 126.266373,191.005753 
	C126.589508,195.817078 126.336304,200.667130 126.333710,206.500153 
M34.442135,39.027431 
	C31.438513,43.647652 30.329571,48.759312 30.333931,54.213734 
	C30.358704,85.197899 30.336357,116.182098 30.349895,147.166275 
	C30.357021,163.472046 39.361931,172.532120 55.631859,172.658813 
	C63.955814,172.723618 66.316399,175.063416 66.337524,183.329391 
	C66.355591,190.401260 66.341263,197.473206 66.341263,204.620209 
	C68.679955,204.414597 69.735680,203.288544 70.877625,202.375854 
	C81.284035,194.058594 91.758636,185.822922 102.020538,177.330460 
	C106.090057,173.962646 110.329155,172.506989 115.681358,172.541214 
	C146.830811,172.740372 177.982513,172.705139 209.132904,172.593689 
	C224.741104,172.537842 233.637436,163.467697 233.645477,147.974838 
	C233.661880,116.324333 233.680588,84.673767 233.636353,53.023323 
	C233.616043,38.492954 224.434921,29.370806 209.835800,29.362322 
	C157.862350,29.332121 105.888832,29.322710 53.915413,29.373404 
	C46.217400,29.380911 39.548645,31.913843 34.442135,39.027431 
z"/>
<path fill="#000000" opacity="1.000000" stroke="none" 
	d="
M250.498932,230.650101 
	C254.513641,240.211243 258.395203,249.414108 262.226807,258.637726 
	C262.989746,260.474243 263.835571,262.343903 264.162048,264.279419 
	C264.759064,267.818512 263.418396,270.573181 259.824768,271.697266 
	C256.505127,272.735657 253.726135,271.521790 252.269440,268.503906 
	C249.884079,263.562073 247.712875,258.496765 245.799530,253.353989 
	C244.430756,249.674927 242.248169,248.212463 238.293930,248.364746 
	C230.976425,248.646545 223.639938,248.632553 216.316910,248.478058 
	C213.321457,248.414856 211.752914,249.574097 210.702805,252.264816 
	C208.766144,257.227203 206.705093,262.148285 204.491821,266.993347 
	C202.386734,271.601654 199.040482,273.153290 195.397034,271.357178 
	C191.237488,269.306610 190.896332,265.781738 192.465500,262.017029 
	C202.075104,238.961823 211.790497,215.950714 221.438293,192.911346 
	C222.702408,189.892563 224.606262,187.796661 228.079178,187.786713 
	C231.606186,187.776627 233.401245,190.032928 234.647629,193.005310 
	C239.863464,205.443985 245.111816,217.869049 250.498932,230.650101 
M232.999863,235.672592 
	C234.402969,235.483994 236.022873,236.149155 237.408447,234.261078 
	C234.662888,227.202072 232.004044,219.870422 227.820663,211.936569 
	C224.326065,220.203094 221.284073,227.398956 218.090286,234.953888 
	C223.264801,236.236496 227.723267,235.418640 232.999863,235.672592 
z"/>
<path fill="#000000" opacity="1.000000" stroke="none" 
	d="
M159.764191,141.686615 
	C155.713638,137.130737 151.830429,137.823868 146.848541,139.863007 
	C130.543289,146.536865 110.511673,141.250519 99.606743,128.051285 
	C87.252983,113.098450 85.817574,92.965721 95.961983,76.930496 
	C105.462273,61.913441 124.167824,54.420452 141.578354,58.657715 
	C171.018188,65.822594 183.866364,98.798401 167.012939,124.234756 
	C165.316376,126.795364 164.629211,128.580109 166.876953,131.142380 
	C168.899689,133.448151 169.041275,136.427658 167.440399,139.073532 
	C165.812775,141.763687 163.260162,142.774429 159.764191,141.686615 
M141.965134,103.083214 
	C146.312149,107.785713 150.659180,112.488220 155.043900,117.231499 
	C164.557968,106.157539 163.114258,89.297386 152.220612,78.973007 
	C140.730911,68.083725 123.035286,68.149544 111.658104,79.123871 
	C100.243858,90.133949 99.551804,107.788773 110.071190,119.607162 
	C119.131157,129.785919 135.434982,132.835693 144.361633,125.690140 
	C140.812363,121.557320 137.212433,117.471199 133.737122,113.281708 
	C131.416718,110.484459 130.572540,107.236687 132.827240,104.115112 
	C135.011581,101.090942 138.126526,101.085526 141.965134,103.083214 
z"/>
</svg>